<?xml version="1.0" standalone="no"?>
<!DOCTYPE svg PUBLIC "-//W3C//DTD SVG 1.1//EN" "http://www.w3.org/Graphics/SVG/1.1/DTD/svg11.dtd" >
<svg xmlns="http://www.w3.org/2000/svg" xmlns:xlink="http://www.w3.org/1999/xlink" version="1.1">
<metadata></metadata>
<defs>
<font id="yanone_kaffeesatzbold" horiz-adv-x="821" >
<font-face units-per-em="2048" ascent="1638" descent="-410" />
<missing-glyph horiz-adv-x="288" />
<glyph unicode="&#xfb01;" horiz-adv-x="837" d="M20 836q0 98 2.5 133t13.5 45t40 10h67v117q0 215 108.5 292.5t287.5 77.5q266 0 266 -129q0 -27 -6 -65.5t-17 -65.5q-43 27 -107.5 42.5t-125.5 15.5q-92 0 -135 -32t-43 -128v-125h108q0 -92 -3 -129t-11 -48t-29 -11h-65v-795q0 -10 -7.5 -25.5t-33.5 -15.5h-187v836 h-123zM539 0v924q0 51 18 70.5t61.5 24.5t151.5 5v-983q0 -23 -10 -30t-67.5 -9t-153.5 -2z" />
<glyph unicode="&#xfb02;" horiz-adv-x="858" d="M20 836q0 98 2.5 133t13.5 45t40 10h67v117q0 213 101.5 291.5t238.5 78.5q86 0 167 -24.5t138 -61.5v-1384q0 -10 -7 -25.5t-33 -15.5h-187v1321q-31 8 -61 8q-53 0 -91 -31.5t-38 -111.5v-162h121q0 -92 -3.5 -129t-11.5 -48t-28 -11h-78v-795q0 -10 -7.5 -25.5 t-33.5 -15.5h-187v836h-123z" />
<glyph horiz-adv-x="0" />
<glyph unicode="&#xd;" horiz-adv-x="288" />
<glyph horiz-adv-x="0" />
<glyph horiz-adv-x="0" />
<glyph unicode=" "  horiz-adv-x="288" />
<glyph unicode="&#x09;" horiz-adv-x="288" />
<glyph unicode="&#xa0;" horiz-adv-x="288" />
<glyph unicode="!" horiz-adv-x="413" d="M55 1378q-2 33 20.5 46.5t85 17.5t214.5 4l-51 -848q-4 -51 -22.5 -72.5t-61.5 -27.5t-144 -6zM61 129q0 61 40 104t106 43q78 0 110.5 -37.5t32.5 -109.5q0 -61 -38 -103t-105 -42q-80 0 -113 35.5t-33 109.5z" />
<glyph unicode="&#x22;" horiz-adv-x="589" d="M51 1563q0 35 6 36q23 12 90 13q63 0 121 -8q-4 -98 -22.5 -246t-30.5 -158l-123 -6q-6 43 -23.5 174t-17.5 195zM322 1563q0 35 6 36q23 12 90 13q59 0 121 -8q-4 -98 -22.5 -246t-31.5 -158l-123 -6q-6 43 -23 174t-17 195z" />
<glyph unicode="#" d="M31 369q0 59 2 102t10 58.5t29 15.5h63l10 172h-114q0 59 2 102t10 58.5t29 15.5h82l6 104q2 29 41 35t155 6l-8 -145h154l6 104q2 29 41 35t156 6l-9 -145h92q0 -59 -2 -102t-10 -58.5t-28 -15.5h-60l-10 -172h110q0 -59 -2 -102.5t-10 -58.5t-28 -15h-78l-6 -109 q-2 -29 -42 -35t-155 -6l8 150h-153l-7 -109q-2 -29 -42 -35t-154 -6l8 150h-96zM330 545h153l11 172h-154z" />
<glyph unicode="$" d="M74 979q0 117 64.5 187.5t185.5 88.5v168q0 53 49 70.5t157 17.5v-251q102 -8 151.5 -31t49.5 -45q0 -31 -13 -76t-42 -78q-18 12 -72.5 23.5t-109.5 11.5q-84 0 -126 -16.5t-42 -63.5q0 -41 13 -68.5t56 -76.5l242 -262q94 -106 94 -248q0 -274 -242 -332v-166 q0 -51 -48 -67.5t-158 -16.5v238q-100 8 -153.5 36.5t-53.5 57.5q0 27 15 91.5t36 94.5q35 -27 90 -42t121 -15t102.5 29.5t36.5 93.5q0 47 -17.5 80.5t-68.5 95.5l-229 252q-88 104 -88 219z" />
<glyph unicode="%" horiz-adv-x="1368" d="M53 1077q0 373 291 373q96 0 155.5 -33t88 -112.5t28.5 -223.5q0 -201 -71.5 -294t-216.5 -93q-101 0 -159 31t-87 113t-29 239zM217 70l784 1382q10 -4 40 -17.5t57.5 -34t27.5 -44.5q0 -23 -324.5 -593t-445.5 -779q-10 4 -43.5 16t-64.5 31.5t-31 38.5zM270 1077 q0 -90 7.5 -135t21.5 -60.5t41 -15.5q31 0 48.5 44t17.5 167q0 88 -5.5 130t-18.5 57.5t-40 15.5q-37 0 -54.5 -42t-17.5 -161zM752 365q0 373 290 372q96 0 155.5 -32.5t88.5 -112.5t29 -223q0 -201 -72 -294t-217 -93q-100 0 -158.5 30.5t-87 112.5t-28.5 240zM965 358 q0 -90 8 -135t22.5 -60.5t40.5 -15.5q31 0 50.5 44.5t19.5 166.5q0 88 -5 130t-19.5 57.5t-43.5 15.5q-37 0 -55 -42t-18 -161z" />
<glyph unicode="&#x26;" horiz-adv-x="1001" d="M31 346q0 121 62.5 221.5t160.5 165.5q-152 283 -152 430q0 129 85 206t257 77q143 0 230.5 -28.5t87.5 -78.5q0 -41 -15.5 -88t-41.5 -80q-57 43 -111.5 58.5t-120.5 15.5q-70 0 -99.5 -20.5t-29.5 -91.5q0 -78 87 -250t210 -351q2 33 2 91q0 145 -16.5 227t-48.5 164 q66 18 253 18q72 0 136 -6q2 -6 4 -27.5t2 -50.5q0 -51 -16.5 -77.5t-71.5 -26.5h-45q16 -47 20 -91t4 -157q0 -160 -43 -295q109 -118 170 -141q-6 -47 -31.5 -89t-58.5 -66.5t-57 -24.5q-35 0 -139 114q-109 -115 -289 -114q-207 0 -296 100t-89 266zM266 342 q0 -70 35 -109.5t102 -39.5q101 -1 158 73q-100 129 -209 301q-43 -39 -64.5 -93t-21.5 -132z" />
<glyph unicode="'" horiz-adv-x="319" d="M51 1563q0 35 6 36q23 12 90 13q63 0 121 -8q-4 -98 -22.5 -246t-30.5 -158l-123 -6q-6 43 -23.5 174t-17.5 195z" />
<glyph unicode="(" horiz-adv-x="593" d="M121 651q0 313 62.5 535.5t139 339t105.5 116.5q55 0 83 -30.5t44 -112.5q-201 -299 -201 -852q0 -299 56.5 -533.5t144.5 -336.5q-18 -90 -43 -131t-80 -41q-31 0 -107.5 115.5t-140 350t-63.5 580.5z" />
<glyph unicode=")" horiz-adv-x="593" d="M39 -223q201 283 201 868q0 272 -48.5 494.5t-152.5 359.5q16 82 44 112.5t83 30.5q31 0 106.5 -111.5t138 -333.5t62.5 -546q0 -317 -63.5 -552.5t-140 -364.5t-107.5 -129q-56 0 -80.5 41t-42.5 131z" />
<glyph unicode="*" horiz-adv-x="960" d="M23 1004q-2 55 15 97t46 64.5t55 22.5q12 0 23 -6l244 -176q2 -78 -46 -78q-6 0 -22 4zM115 631l250 227q25 20 43 21q25 0 57 -41l-160 -320q-18 -24 -41 -24q-37 0 -80 43t-69 94zM385 1360q-6 59 80 59q66 0 135 -30l-53 -306q-4 -25 -14.5 -36t-34.5 -11q-20 0 -52 6 zM504 834q0 14 15.5 26t51.5 27l242 -254q12 -14 12 -31q0 -39 -58 -72.5t-118 -42.5l-139 318q-6 16 -6 29zM557 985q0 12 8 21.5t25 19.5l287 178q29 -25 45 -66.5t16 -80.5q0 -31 -10 -52.5t-31 -25.5l-309 -57q-31 38 -31 63z" />
<glyph unicode="+" d="M51 479q0 117 6 157t35 40h221v219q0 29 39 35t156 6v-260h260q0 -117 -6 -157t-35 -40h-219v-219q0 -29 -40 -35t-155 -6v260h-262z" />
<glyph unicode="," horiz-adv-x="385" d="M59 139q0 55 38 93t93 38q70 0 108 -37.5t38 -109.5q0 -80 -36 -152.5t-82 -120t-71 -47.5q-34 0 -55.5 12.5t-30.5 47.5q33 53 40.5 78.5t15.5 74.5q-33 18 -45.5 48t-12.5 75z" />
<glyph unicode="-" horiz-adv-x="540" d="M61 479q0 117 6.5 157t34.5 40h377q0 -117 -6 -157t-35 -40h-377z" />
<glyph unicode="." horiz-adv-x="385" d="M47 131q0 61 40 104.5t106 43.5q78 0 110.5 -38t32.5 -110q0 -61 -38 -103t-105 -42q-80 0 -113 35.5t-33 109.5z" />
<glyph unicode="/" horiz-adv-x="751" d="M20 -41l459 1548q10 31 24.5 41.5t60.5 14.5t167 4l-459 -1555q-8 -29 -22 -38t-59.5 -12t-170.5 -3z" />
<glyph unicode="0" d="M41 606q0 313 88 468t279 155q193 0 281.5 -136.5t88.5 -410.5q0 -246 -32.5 -396.5t-114.5 -227t-228 -76.5q-143 0 -223 72.5t-109.5 207.5t-29.5 344zM289 598q0 -166 9 -252t34.5 -124t79.5 -38q65 0 96 114t31 384q0 178 -26 263t-93 85q-78 0 -104.5 -106.5 t-26.5 -325.5z" />
<glyph unicode="1" d="M39 150q0 37 58.5 50t203.5 13l18 784q-68 -2 -124 -11t-72 -13q-35 61 -35 139q0 23 79 49.5t181.5 47t155.5 20.5q16 0 34.5 -3t24.5 -9l-24 -1004h114q39 0 77 3t48 5q0 -100 -2 -142t-12 -60.5t-35 -18.5h-684q-6 78 -6 150z" />
<glyph unicode="2" d="M41 63q0 55 9 88t44 93q72 125 219 315q96 123 141.5 199t45.5 143q0 53 -33 82t-88 29q-59 0 -141 -18.5t-129 -45.5q-29 63 -29 166q0 47 113.5 81t255.5 34q168 0 240.5 -72t72.5 -217q0 -111 -54.5 -208t-172.5 -251q-129 -168 -191 -268h156q104 0 191 10t87 13 q0 -106 -3 -151.5t-13 -65t-35 -19.5h-678q-8 24 -8 63z" />
<glyph unicode="3" d="M68 1114q0 49 99 82t257 33q145 0 215 -67.5t70 -180.5q0 -121 -54.5 -213t-144.5 -156q113 -12 179.5 -89t66.5 -214q0 -262 -129 -388t-336 -126q-211 0 -211 111q0 66 13 110.5t16 55.5q29 -29 79 -44.5t103 -15.5q109 0 163 76t54 209q0 106 -87 150.5t-226 37.5 l-2 138q125 49 189 124.5t64 155.5q0 53 -20 81t-86 28q-59 0 -127 -17.5t-117 -46.5q-29 63 -28 166z" />
<glyph unicode="4" d="M33 428q0 37 81 217t175 352t141 209t98 37q74 0 131 -31l-6 -790q43 0 79 4t46 6q2 -4 6 -20.5t4 -44.5q0 -66 -18 -111t-55 -45h-62v-145q0 -37 -10 -48.5t-51 -14.5t-166 -3v211h-315q-78 78 -78 217zM227 422h199l31 508q-53 -63 -129 -235.5t-101 -272.5z" />
<glyph unicode="5" d="M57 -119q0 63 5.5 103.5t19.5 81.5q61 -59 174 -60q84 0 142.5 50t88 128t29.5 156q0 109 -20.5 164t-75.5 78.5t-168 23.5q-92 0 -182 -22l63 645h627q0 -88 -7.5 -128t-31 -56.5t-74.5 -16.5q-63 0 -174 5t-147 7l-25 -256q41 8 90 9q156 0 262.5 -79t106.5 -317 q0 -279 -125 -440.5t-350 -161.5q-78 0 -129.5 14.5t-75 35t-23.5 36.5z" />
<glyph unicode="6" d="M45 659q0 428 120 604.5t341 176.5t221 -82q0 -88 -22 -160q-35 12 -84.5 20.5t-83.5 8.5q-133 0 -201 -100.5t-76 -333.5q45 57 101.5 83.5t142.5 26.5q131 0 204.5 -96t73.5 -301q0 -268 -98 -395t-287 -127q-158 0 -233.5 76.5t-97 214t-21.5 384.5zM262 594 q2 -8 2 -25q-6 -227 36 -306t110 -79q69 0 109 81t40 194q0 111 -31.5 173t-95.5 62q-90 0 -170 -100z" />
<glyph unicode="7" d="M74 1229h737q-209 -469 -314.5 -808t-107.5 -609q-98 0 -147 5t-67.5 18t-18.5 40q0 152 57 374t141 439t160 350q-176 -12 -379 -12q-61 0 -61 203z" />
<glyph unicode="8" d="M45 381q0 121 53.5 219t147.5 166q-88 72 -131 133q-55 76 -56 186q0 172 97.5 266.5t249.5 94.5q375 0 374 -332q0 -123 -52 -209t-144 -157q57 -53 92 -95q106 -124 106 -278q0 -102 -40 -191.5t-120.5 -143.5t-195.5 -54q-199 0 -290 110.5t-91 284.5zM256 397 q0 -92 44 -143t110 -51q65 0 107 47t42 131q0 63 -15.5 98t-43.5 70q-31 37 -94 88q-72 -55 -111 -110.5t-39 -129.5zM289 1100q0 -70 45 -127q23 -27 102 -99q66 53 99.5 108.5t33.5 123.5q0 49 -35.5 88t-95.5 39q-67 0 -108 -34t-41 -99z" />
<glyph unicode="9" d="M37 735q0 264 98 388t287 124q149 0 222 -55t100.5 -190.5t33.5 -411.5q-4 -414 -122.5 -608.5t-387.5 -194.5q-197 0 -196 88q0 31 6 75t14 75q76 -23 146 -23q166 0 235.5 111.5t81.5 308.5q-43 -55 -97.5 -81t-140.5 -26q-125 0 -202.5 113t-77.5 307zM260 760 q0 -111 33 -173.5t94 -62.5q100 1 174 97v12q0 162 -11 250t-41 126t-83 38q-74 0 -120 -73t-46 -214z" />
<glyph unicode=":" horiz-adv-x="385" d="M49 131q0 61 40 104.5t106 43.5q78 0 110.5 -38t32.5 -110q0 -61 -38 -103t-105 -42q-80 0 -113 35.5t-33 109.5zM49 788q0 63 39 106.5t107 43.5q78 0 110.5 -38t32.5 -112q0 -61 -38 -103t-105 -42q-80 0 -113 36t-33 109z" />
<glyph unicode=";" horiz-adv-x="385" d="M41 788q0 63 39 106.5t104 43.5q78 0 112 -39t34 -111q0 -61 -39 -103t-107 -42q-80 0 -111.5 36t-31.5 109zM49 -137q33 53 40 78.5t15 74.5q-31 18 -43 48t-12 75q0 55 37 93t92 38q70 0 108 -37.5t38 -109.5q0 -80 -36 -152.5t-82 -120t-71 -47.5q-35 0 -56.5 12.5 t-29.5 47.5z" />
<glyph unicode="&#x3c;" horiz-adv-x="819" d="M68 524q0 41 18 73t53 50l529 254q37 -31 58.5 -73t23.5 -78q0 -47 -39 -64l-349 -170l392 -180q-2 -68 -34 -121t-69 -53q-20 0 -63 16l-484 215q-37 59 -36 131z" />
<glyph unicode="=" d="M51 276q0 115 6 155t35 40h676q0 -117 -6 -156t-35 -39h-676zM51 684q0 117 6 156t35 39h676q0 -115 -6 -155t-35 -40h-676z" />
<glyph unicode="&#x3e;" horiz-adv-x="819" d="M78 698q2 66 34.5 120t67.5 54q20 0 64 -16l483 -215q37 -63 37 -133q0 -39 -18.5 -70.5t-55.5 -50.5l-528 -256q-35 33 -56.5 74t-23.5 76q0 51 37 67l350 168z" />
<glyph unicode="?" horiz-adv-x="602" d="M27 1364q0 41 86 65.5t184 24.5q141 0 213 -78t72 -202q0 -86 -18.5 -153t-45 -112t-74.5 -112q-53 -74 -75 -115q-12 -25 -13 -53q0 -25 13 -74q10 -35 10 -53q0 -16 -8 -25q-20 -27 -131 -26q-33 0 -74 4q-4 6 -13.5 28.5t-17.5 59.5t-8 75q0 66 27 117 q25 47 53.5 95.5t38.5 64.5q47 74 67.5 119t20.5 98q0 57 -30 85t-101 28q-41 0 -72 -9.5t-47 -19.5t-21 -14q-37 96 -36 182zM123 131q0 61 40 104.5t105 43.5q78 0 111 -38t33 -110q0 -61 -38 -103t-106 -42q-80 0 -112.5 35.5t-32.5 109.5z" />
<glyph unicode="@" horiz-adv-x="1474" d="M82 539q0 430 184.5 642t513.5 212q203 0 337 -60.5t206 -203t72 -384.5q0 -438 -95.5 -590.5t-234.5 -152.5q-68 0 -125 43q-25 -18 -80 -30.5t-133 -12.5q-84 0 -138 22.5t-86 93t-32 208.5q0 184 59.5 261t149.5 77q74 0 113 -29l2 119q2 39 -16.5 56t-61.5 17 q-57 0 -97 -11t-90 -38q-25 47 -24 129q2 31 18 47q31 23 98.5 41.5t168.5 18.5q115 0 168 -51.5t51 -180.5l-6 -379q-4 -141 -9 -198q23 -6 43 -6q63 0 91 123.5t28 353.5q0 207 -31.5 315.5t-111.5 153.5t-236 45q-170 0 -269 -60.5t-146.5 -208t-47.5 -413.5 q0 -260 38 -405.5t126 -208t242 -62.5q149 0 261 14.5t214 51.5q59 -86 59 -154q0 -63 -136 -99t-382 -36q-215 0 -354 67.5t-220 270.5t-81 592zM688 336q0 -102 7 -134t42 -32q29 0 38 23.5t11 105.5l5 205q-2 0 -10.5 2t-24.5 2q-35 0 -51.5 -37t-16.5 -135z" />
<glyph unicode="A" horiz-adv-x="894" d="M4 4l342 1391q8 43 92 43q70 0 109 -8l342 -1393q4 -21 -16.5 -31t-86.5 -10q-72 0 -131 4l-67 328h-277l-59 -289q-6 -25 -23.5 -34t-81.5 -9q-72 0 -143 8zM354 532h191l-41 193q-31 147 -53 387q-29 -260 -56 -387z" />
<glyph unicode="B" horiz-adv-x="735" d="M61 0v1393q0 20 12.5 30.5t45.5 10.5h200q154 0 250.5 -70t96.5 -252q0 -145 -56.5 -231t-132.5 -97q236 -25 236 -297q0 -219 -94.5 -353t-288.5 -134h-269zM293 197h43q49 0 77.5 71.5t28.5 198.5q0 90 -11 135t-32.5 59.5t-58.5 14.5h-47v-479zM293 868h41 q39 0 60.5 53.5t21.5 141.5q0 100 -19.5 136t-54.5 36h-49v-367z" />
<glyph unicode="C" horiz-adv-x="665" d="M41 670q0 784 410 784q119 0 156.5 -31.5t37.5 -89.5q0 -68 -33 -137q-47 35 -106 35q-102 0 -163.5 -118t-61.5 -425q0 -178 16 -276.5t51 -138.5t94 -40q102 0 160 31q31 -61 31 -133t-66.5 -111.5t-183.5 -39.5q-123 0 -195.5 55t-109.5 203.5t-37 431.5z" />
<glyph unicode="D" horiz-adv-x="739" d="M61 0v1393q0 20 12.5 30.5t45.5 10.5h196q145 0 230.5 -53.5t128.5 -193.5t43 -399q0 -414 -92.5 -601t-298.5 -187h-265zM289 215h43q39 0 65.5 44t43 176t16.5 378q0 176 -15.5 265t-42 119t-69.5 30h-41v-1012z" />
<glyph unicode="E" horiz-adv-x="616" d="M61 0v1393q0 10 8.5 25.5t32.5 15.5h492q0 -78 -2 -127.5t-10.5 -62.5t-28.5 -13h-264v-350h250q0 -76 -2 -126t-9.5 -66.5t-25.5 -16.5h-213v-469h291q0 -82 -2.5 -131t-9.5 -60.5t-27 -11.5h-480z" />
<glyph unicode="F" horiz-adv-x="606" d="M61 0v1393q0 10 8.5 25.5t32.5 15.5h492q0 -78 -2 -125t-9.5 -57.5t-29.5 -10.5h-264v-360h250q0 -76 -2 -126t-9.5 -65.5t-25.5 -15.5h-213v-633v-4q0 -37 -35 -37h-193z" />
<glyph unicode="G" horiz-adv-x="757" d="M41 670q0 319 51 490t147.5 232.5t252.5 61.5q104 0 163.5 -35t59.5 -84q0 -63 -29 -145q-23 18 -63.5 29.5t-81.5 11.5q-102 0 -157.5 -53.5t-76 -168t-20.5 -321.5q0 -209 13 -312.5t44 -138t90 -34.5q51 0 68 20v459h-96v147q0 41 49 41h260l-2 -827q-96 -63 -283 -63 q-158 0 -239.5 58t-115.5 204.5t-34 427.5z" />
<glyph unicode="H" horiz-adv-x="784" d="M63 0v1393q0 23 9.5 30t66 9t152.5 2v-564h201v523q0 23 9 30t65.5 9t152.5 2v-1393q0 -23 -9.5 -30t-65.5 -9t-152 -2v657h-201v-616q0 -23 -9.5 -30t-65.5 -9t-153 -2z" />
<glyph unicode="I" horiz-adv-x="356" d="M61 0v1333q0 55 11.5 73.5t52.5 23t168 4.5v-1393q0 -23 -10.5 -30t-67.5 -9t-154 -2z" />
<glyph unicode="J" horiz-adv-x="616" d="M20 119q0 37 7.5 61.5t23.5 61.5q33 -25 78 -42.5t86 -17.5q47 0 69.5 15.5t31 55.5t8.5 122v958q0 55 10 73.5t51 23t170 4.5v-1104q0 -176 -71.5 -262t-235.5 -86q-133 0 -180.5 36.5t-47.5 100.5z" />
<glyph unicode="K" horiz-adv-x="794" d="M57 0v1393q0 23 10.5 30t66.5 9t155 2v-592l227 577q74 16 146 17q102 0 102 -39q0 -6 -4 -19l-238 -557q111 -102 167 -302t59 -476q0 -29 -17.5 -38t-77.5 -9q-78 0 -164 6q-2 225 -29.5 380t-107.5 245q-29 31 -63 47v-633q0 -23 -10.5 -30t-66.5 -9t-155 -2z" />
<glyph unicode="L" horiz-adv-x="612" d="M61 0v1376q0 31 11.5 42.5t51.5 13.5t165 2v-1221h291v-172q0 -41 -39 -41h-480z" />
<glyph unicode="M" horiz-adv-x="976" d="M61 0v1393q0 27 10.5 34t30.5 7h172l164 -508q27 -78 40.5 -135.5t15.5 -71.5q2 14 14 71.5t35 131.5l141 471q8 25 15.5 33t25.5 8h190v-1393q0 -23 -10 -30t-67.5 -9t-155.5 -2l10 393q4 145 17.5 281.5t26 222.5t16.5 109l-7 4q-76 -301 -104 -381l-98 -273 q-4 -14 -23 -14h-94l-96 287q-29 86 -101 381l-6 -4q4 -23 17.5 -108t27 -220t13.5 -283l6 -354q0 -23 -12.5 -30t-67.5 -9t-146 -2z" />
<glyph unicode="N" horiz-adv-x="880" d="M61 0v1393q0 41 41 41h181l215 -539q51 -129 120 -434q-26 239 -26 439v15v478q0 22 11 29.5t66.5 9.5t149.5 2v-1393q0 -18 -10 -29.5t-31 -11.5h-176l-217 549q-53 137 -123 455q27 -262 27 -472v-491q0 -23 -10.5 -30t-66.5 -9t-151 -2z" />
<glyph unicode="O" horiz-adv-x="839" d="M41 725q0 274 42 434t127 227.5t222 67.5t215 -63.5t114 -219t36 -438.5q0 -287 -41 -450.5t-124 -233t-222 -69.5q-142 0 -219.5 61t-113.5 221t-36 463zM301 674q0 -174 9 -270.5t35 -142.5t77 -46t77.5 51t37 158.5t10.5 300.5q0 199 -7.5 299t-33 147.5t-78.5 47.5 q-49 0 -76.5 -52.5t-39 -169t-11.5 -323.5z" />
<glyph unicode="P" horiz-adv-x="714" d="M61 0v1393q0 23 8.5 32t32.5 9h193q137 0 223 -37t131 -129t45 -256q0 -254 -109.5 -356.5t-279.5 -102.5h-16v-512q0 -23 -10.5 -30t-66.5 -9t-151 -2zM289 764h43q53 0 79.5 57.5t26.5 218.5q0 100 -21.5 148.5t-70.5 48.5h-57v-473z" />
<glyph unicode="Q" horiz-adv-x="839" d="M41 725q0 274 42 434t127 227.5t222 67.5t215 -63.5t114 -219t36 -438.5q0 -303 -46 -470t-145 -232q10 -72 31.5 -103.5t64.5 -31.5q68 0 123 34q15 -22 23 -57t8 -61q0 -57 -64.5 -80t-136.5 -23q-119 0 -191.5 65.5t-113.5 207.5q-115 12 -181.5 80.5t-97 225 t-30.5 437.5zM301 674q0 -174 9 -270.5t35 -142.5t77 -46t77.5 51t37 158.5t10.5 300.5q0 199 -7.5 299t-33 147.5t-78.5 47.5q-49 0 -76.5 -52.5t-39 -169t-11.5 -323.5z" />
<glyph unicode="R" horiz-adv-x="747" d="M61 0v1393q0 10 8.5 25.5t32.5 15.5h193q137 0 223 -37t131 -129t45 -256q0 -272 -143 -385q65 -88 117.5 -231.5t58.5 -350.5q0 -23 -7 -33t-31.5 -14t-80.5 -4q-55 0 -133 6q-4 213 -43 347t-90 208q-12 -2 -37 -2h-16v-512q0 -23 -11.5 -30t-66.5 -9t-150 -2zM289 764 h43q53 0 79.5 55t26.5 205q0 111 -21.5 162t-70.5 51h-57v-473z" />
<glyph unicode="S" horiz-adv-x="704" d="M31 1141q0 143 94 228t270 85q150 0 214.5 -28.5t64.5 -86.5q0 -68 -53 -127q-18 14 -71.5 27.5t-107.5 13.5q-78 0 -120.5 -26.5t-42.5 -79.5q0 -47 16 -86t59 -96l197 -252q72 -92 97.5 -167t25.5 -167q0 -178 -84 -288.5t-289 -110.5q-131 0 -199.5 39.5t-68.5 97.5 q0 37 13 81t38 83q33 -31 85 -49.5t105 -18.5q82 0 117 41t35 119q0 53 -19.5 100t-72.5 119l-187 248q-68 88 -92 157.5t-24 143.5z" />
<glyph unicode="T" horiz-adv-x="778" d="M20 1221v172q0 41 41 41h697v-172q0 -25 -9.5 -33t-31.5 -8h-219v-1180q0 -23 -11.5 -30t-66.5 -9t-150 -2v1221h-250z" />
<glyph unicode="U" horiz-adv-x="843" d="M61 393v998q0 25 10.5 32t52.5 9t173 2v-1049q0 -106 26.5 -151.5t104.5 -45.5q76 0 121 25v1178q0 25 10 32t51 9t170 2v-1377q-45 -29 -139 -53t-213 -24q-152 0 -232.5 53t-107.5 141t-27 219z" />
<glyph unicode="V" horiz-adv-x="860" d="M10 1405q0 16 12.5 22.5t43.5 6.5h190l104 -672q31 -199 76 -576q29 324 68 576l90 610q4 35 15.5 48.5t39.5 13.5h201l-272 -1434q-100 -12 -199 -12q-100 0 -127 121q-45 203 -128 658.5t-110 606.5q-4 25 -4 31z" />
<glyph unicode="W" horiz-adv-x="1368" d="M12 1401q0 18 11.5 25.5t42.5 7.5h190l102 -672q43 -276 58 -531h16q6 250 51 531l88 549q4 35 14.5 48t41.5 13h159l107 -610q35 -201 59 -531h17q10 262 49 531l88 610q4 35 14 48.5t39 13.5h199l-246 -1434q-57 -6 -100 -9t-99 -3q-51 0 -79.5 32.5t-40.5 96.5 l-48 227q-31 154 -67 526q-39 -377 -64 -526l-57 -344q-100 -10 -217 -10q-43 0 -70.5 34.5t-40.5 92.5q-43 207 -116.5 657.5t-98.5 599.5q-2 10 -2 27z" />
<glyph unicode="X" horiz-adv-x="862" d="M14 0l279 735l-223 660q-6 20 7 27.5t82.5 9.5t182.5 2l59 -215q31 -111 58 -238q29 135 59 238l53 178q6 20 18.5 26.5t69 8.5t154.5 2l-229 -672l254 -729q4 -7 4 -17q0 -16 -27 -16h-252l-78 240q-18 57 -55 188l-16 57q-35 -139 -76 -245l-80 -211 q-8 -16 -18.5 -22.5t-28.5 -6.5h-197z" />
<glyph unicode="Y" horiz-adv-x="753" d="M12 1399q-6 18 5.5 24.5t77 8.5t177.5 2l60 -269q16 -72 34.5 -196.5t24.5 -198.5q6 72 25.5 198t36.5 199l49 226q6 23 19.5 30t69.5 9t154 2l-249 -836v-557q0 -23 -9.5 -30t-65.5 -9t-153 -2v590z" />
<glyph unicode="Z" horiz-adv-x="770" d="M27 88q0 47 18 94l424 1051h-322q-61 0 -96 -10v168q0 20 12.5 31.5t30.5 11.5h615q10 -18 15 -33t5 -39q0 -45 -20 -96l-435 -1065h320q88 0 137 20v-180q0 -20 -9 -30.5t-32 -10.5h-633q-30 35 -30 88z" />
<glyph unicode="[" horiz-adv-x="718" d="M180 -410v2026q0 33 8.5 44t43 16t122.5 5h348q0 -104 -3 -144t-16 -54.5t-46 -14.5h-225v-1665h290q0 -113 -4 -152.5t-15 -50t-46 -10.5h-457z" />
<glyph unicode="\" horiz-adv-x="735" d="M18 1532q0 16 18.5 23.5t75 9.5t138.5 2l461 -1575q4 -16 4 -23q0 -14 -17.5 -20t-74 -8t-140.5 -2l-458 1568q-2 6 -4.5 12.5t-2.5 12.5z" />
<glyph unicode="]" horiz-adv-x="718" d="M16 -410q0 105 3.5 145t16.5 54t46 14h225v1667h-291q0 113 4.5 153t15.5 50t46 10h457v-2027q0 -33 -8.5 -44t-43 -16.5t-122.5 -5.5h-349z" />
<glyph unicode="^" horiz-adv-x="880" d="M76 530l381 314l307 -258q39 -31 39 -72q0 -39 -31 -69.5t-78 -36.5l-264 141l-190 -115q-39 -20 -60 -20q-47 0 -74.5 35.5t-29.5 80.5z" />
<glyph unicode="_" horiz-adv-x="757" d="M20 -258q0 115 6.5 155t34.5 40h676q0 -117 -6 -156t-35 -39h-676z" />
<glyph unicode="`" horiz-adv-x="573" d="M100 1305q10 61 40 113t65 52q18 0 118.5 -87t149.5 -154q-2 -10 -12 -40t-29.5 -57.5t-46.5 -27.5q-20 2 -134 81t-151 120z" />
<glyph unicode="a" horiz-adv-x="694" d="M41 299q0 193 65.5 265.5t172.5 72.5q31 0 68.5 -7t62.5 -24v142q0 41 -19.5 59t-66.5 18q-57 0 -127 -12t-121 -31q-31 59 -31 131q0 20 8 41t21 31q27 20 110.5 39.5t194.5 19.5q141 0 199.5 -56t58.5 -193v-97q0 -502 -10 -653q-109 -65 -290 -65h-5 q-88 0 -150.5 22.5t-101.5 93t-39 203.5zM281 305q0 -76 14 -107.5t53 -31.5q40 0 58 20q4 47 4 267q-20 18 -56 18q-37 0 -55 -36t-18 -130z" />
<glyph unicode="b" horiz-adv-x="749" d="M72 41v1362q0 51 17 71.5t58 25.5t152 5v-520q72 59 176 59q123 0 177.5 -94t54.5 -321q0 -270 -58.5 -413.5t-143.5 -189.5t-194 -46q-80 0 -142.5 16t-96.5 45zM299 195q20 -16 47 -17q41 0 73 89t32 321q0 137 -19.5 195.5t-60.5 58.5t-72 -31v-616z" />
<glyph unicode="c" horiz-adv-x="598" d="M41 489q0 229 52 352.5t131 163t182 39.5q76 0 122.5 -27.5t46.5 -76.5q0 -61 -20 -121q-27 10 -62.5 18.5t-66.5 8.5q-68 0 -107.5 -69.5t-39.5 -282.5q0 -123 12 -189.5t41.5 -95.5t85.5 -29q33 0 69.5 8.5t61.5 20.5q18 -74 18 -119q0 -51 -62.5 -80.5t-160.5 -29.5 q-111 0 -175.5 40.5t-96 150.5t-31.5 318z" />
<glyph unicode="d" horiz-adv-x="735" d="M41 465q0 299 77 439t206 140q76 0 120 -36v397q0 51 17.5 70.5t59.5 24.5t151 5v-1464q-139 -61 -299 -61q-103 0 -173.5 33.5t-114.5 140t-44 311.5zM297 494q0 -178 18.5 -246t59.5 -68q42 1 69 21v639q-16 10 -45 10q-27 0 -49 -21.5t-37.5 -100.5t-15.5 -234z" />
<glyph unicode="e" horiz-adv-x="706" d="M41 463q0 233 48 362t126 174t186 45q262 0 263 -333q0 -178 -29 -291q-117 -25 -356 -29q6 -104 34.5 -147t100.5 -43q98 0 217 57q18 -61 18 -152q0 -59 -83 -92.5t-208 -33.5q-154 0 -235.5 105t-81.5 378zM279 569q115 0 153 19q10 31 10 106q0 94 -14 124t-55 30 q-47 0 -68.5 -67.5t-25.5 -211.5z" />
<glyph unicode="f" horiz-adv-x="536" d="M20 836q0 98 2.5 133t13.5 45t40 10h67v117q0 215 100.5 292.5t256.5 77.5q98 0 151.5 -26.5t53.5 -79.5q0 -61 -23 -123q-55 27 -139 27t-128 -31t-44 -113v-141h149q0 -92 -3 -129t-11 -48t-29 -11h-106v-795q0 -10 -7.5 -25.5t-33.5 -15.5h-187v836h-123z" />
<glyph unicode="g" horiz-adv-x="782" d="M20 -172q0 135 138 231q-109 35 -109 113q0 47 31 93t98 102q-123 82 -123 297q0 209 88 294.5t258 85.5q49 0 101 -18h246q24 -47 24 -106q0 -48 -19.5 -68.5t-52.5 -20.5q-18 0 -43 7q49 -76 50 -189q0 -170 -79 -252t-253 -82q-37 0 -56 2q-27 -35 -26 -57 q0 -16 23.5 -22.5t76.5 -12.5l78 -10q137 -23 203.5 -80t66.5 -174q0 -160 -96 -261t-293 -101q-332 0 -332 229zM256 -113q0 -43 26.5 -62.5t94.5 -19.5q70 0 101.5 39t31.5 86q0 35 -10.5 54.5t-47 32t-116.5 20.5q-35 -29 -57.5 -69t-22.5 -81zM297 674q0 -109 18.5 -150 t69.5 -41q49 0 70.5 47.5t21.5 180.5q0 96 -19.5 135t-66.5 39q-45 0 -69.5 -48.5t-24.5 -162.5z" />
<glyph unicode="h" horiz-adv-x="741" d="M68 0v1405q0 51 17 70.5t59 24.5t151 5v-532q35 35 89 53t108 18q113 0 150.5 -61t37.5 -203v-739q0 -23 -13.5 -30t-70.5 -9t-152 -2v709q0 61 -12 94t-53 33q-43 0 -84 -27v-768q0 -23 -10.5 -30t-65.5 -9t-151 -2z" />
<glyph unicode="i" horiz-adv-x="368" d="M68 0v924q0 51 18 70.5t61 24.5t152 5v-983q0 -23 -10 -30t-67.5 -9t-153.5 -2zM68 1282q0 74 31.5 117t93.5 43q61 0 83.5 -33t22.5 -117q0 -82 -30.5 -128t-89.5 -46q-56 0 -83.5 37t-27.5 127z" />
<glyph unicode="j" horiz-adv-x="382" d="M-184 -281q0 72 30 111q59 -27 148 -27q55 0 72.5 32t17.5 122v967q0 51 18.5 70.5t60.5 24.5t148 5v-1098q0 -150 -61.5 -239.5t-220.5 -89.5q-117 0 -165 29.5t-48 92.5zM76 1282q0 74 31.5 117t93.5 43q61 0 83.5 -33t22.5 -117q0 -82 -30.5 -128t-89.5 -46 q-56 0 -83.5 37t-27.5 127z" />
<glyph unicode="k" horiz-adv-x="739" d="M68 0v1405q0 51 18 70.5t60 24.5t151 5v-520q104 59 219 59q94 0 132 -50t38 -124q0 -102 -37 -181t-84 -128q145 -106 150 -387q0 -68 -6 -139q-2 -18 -14.5 -24.5t-76 -8.5t-169.5 -2q10 117 10 209q0 246 -90 246q-25 0 -48.5 -14.5t-23.5 -16.5v-383q0 -23 -10.5 -30 t-65.5 -9t-153 -2zM297 575q68 39 100.5 88.5t32.5 120.5q0 57 -41 58q-49 0 -92 -60v-207z" />
<glyph unicode="l" horiz-adv-x="364" d="M68 0v1405q0 51 18 70.5t60 24.5t149 5v-1464q0 -23 -10.5 -30t-65.5 -9t-151 -2z" />
<glyph unicode="m" horiz-adv-x="1087" d="M68 0v977q143 67 310 67h5q111 0 172 -55q53 27 117.5 41t124.5 14q100 0 150 -31.5t65.5 -89t15.5 -157.5v-725q0 -23 -11 -30t-67.5 -9t-148.5 -2v760q0 49 -12.5 67.5t-49.5 18.5q-43 0 -77 -19v-786q0 -23 -9.5 -30t-63.5 -9t-149 -2h-2h-4v768q0 51 -11 66.5 t-48 15.5t-80 -25v-784q0 -23 -11.5 -30t-66.5 -9t-149 -2z" />
<glyph unicode="n" horiz-adv-x="741" d="M68 0v977q53 25 148 46t169 21q160 0 227.5 -57t67.5 -207v-739q0 -23 -11.5 -30t-69.5 -9t-155 -2v709q0 84 -13 112.5t-54 28.5q-45 0 -82 -25v-784q0 -23 -11.5 -30t-66.5 -9t-149 -2z" />
<glyph unicode="o" horiz-adv-x="741" d="M41 514q0 530 340 530q115 0 183.5 -46t102 -158.5t33.5 -317.5q0 -289 -82.5 -415.5t-252.5 -126.5q-121 0 -188.5 39.5t-101.5 154.5t-34 340zM291 516q0 -154 9 -228.5t25.5 -97t45.5 -22.5q24 0 40.5 23.5t28 100.5t11.5 224q0 150 -6.5 220.5t-22.5 95t-49 24.5 q-39 0 -60.5 -69.5t-21.5 -270.5z" />
<glyph unicode="p" horiz-adv-x="743" d="M68 -303v1268q59 37 140 58t163 21q162 0 245.5 -90t83.5 -325q0 -260 -34.5 -403.5t-93 -194.5t-140.5 -51q-90 0 -137 38v-403q-49 -18 -117 -18q-61 0 -85.5 20.5t-24.5 79.5zM295 219q29 -39 59 -39q27 0 46.5 30t32.5 126t13 278q0 98 -9 148.5t-27.5 69t-51.5 18.5 t-63 -25v-606z" />
<glyph unicode="q" horiz-adv-x="745" d="M41 440q0 604 426 604q68 0 118 -14t97 -47v-1288q0 -45 -10 -65.5t-37 -26.5t-86 -9q-37 1 -98 9v446q-42 -69 -151 -69h-3q-117 0 -186.5 98t-69.5 362zM301 451q0 -158 19.5 -216.5t60.5 -58.5q52 0 70 74v579q-10 12 -19.5 16.5t-25.5 4.5q-51 0 -78 -87t-27 -312z " />
<glyph unicode="r" horiz-adv-x="509" d="M68 0v952q139 92 284 92q80 0 108.5 -23.5t28.5 -78.5q0 -68 -22 -131q-33 16 -76 16q-20 0 -44.5 -8t-45.5 -24l-2 -754q0 -23 -10 -30t-66.5 -9t-154.5 -2z" />
<glyph unicode="s" horiz-adv-x="653" d="M37 791q0 117 80 185t258 68q152 0 202 -37.5t50 -91.5q0 -27 -11.5 -56.5t-31.5 -51.5q-80 43 -178 43t-99 -64q0 -20 12.5 -42.5t49.5 -59.5l151 -154q59 -70 81 -124t22 -132q0 -137 -92.5 -215.5t-249.5 -78.5h-4q-238 0 -238 120q0 59 37 127q84 -45 180 -45 q53 0 79.5 23.5t26.5 64.5q0 61 -47 115l-178 188q-51 53 -75.5 110.5t-24.5 107.5z" />
<glyph unicode="t" horiz-adv-x="581" d="M18 831q0 94 2.5 131t11.5 49.5t34 12.5h77v297q0 37 18.5 51t60.5 17.5t149 3.5v-369h168q0 -96 -2 -132t-11.5 -48.5t-31.5 -12.5h-123v-559q0 -49 8 -74.5t41 -25.5q51 0 106 27q14 -68 15 -109q0 -110 -184 -110h-3q-88 0 -133 32.5t-61.5 94t-16.5 161.5v563h-125z " />
<glyph unicode="u" horiz-adv-x="735" d="M59 289v694q0 23 10.5 30t69 9t156.5 2v-750q0 -53 14.5 -76.5t57.5 -23.5q49 0 77 27v782q0 23 9.5 30t65.5 9t153 2v-967q-55 -33 -136 -55t-167 -22q-174 0 -242 76.5t-68 232.5z" />
<glyph unicode="v" horiz-adv-x="675" d="M16 987q0 18 18.5 25.5t80 9.5t153.5 2l39 -297q14 -111 26.5 -274.5t14.5 -214.5h4q2 51 14.5 215.5t26.5 275.5l29 250q4 25 15.5 33t53 10t171.5 2l-205 -1024q-59 -10 -166 -10q-71 0 -94 102l-177 864q-4 25 -4 31z" />
<glyph unicode="w" horiz-adv-x="1077" d="M12 981q-4 23 10.5 31t60.5 10t181 2l41 -289q16 -125 28.5 -281.5t14.5 -205.5h17l4 57q4 135 18 242l57 411q4 31 16.5 38.5t55.5 7.5h152l69 -457q8 -55 15.5 -159.5t9.5 -139.5h16q12 287 39 487l31 244q4 25 15 33t50 10t154 2q-29 -160 -113 -592t-92 -432 q-8 -2 -45 -6t-102 -4q-41 0 -75 24.5t-42 77.5l-20 135q-20 141 -27 332q-16 -233 -33 -332l-37 -227q-18 -2 -81.5 -6t-114.5 -4q-70 0 -92 100q-35 152 -97.5 469.5t-83.5 421.5z" />
<glyph unicode="x" horiz-adv-x="778" d="M14 0l242 530l-211 457q-6 12 -6 19q0 12 41 15t205 3l47 -113q10 -29 51 -149l23 -66q39 127 73 215l31 74q8 20 22.5 27.5t72 9.5t153.5 2l-228 -477l224 -498q8 -20 8 -26q0 -14 -34 -18.5t-146 -4.5h-82l-43 100q-31 72 -88 240q-51 -160 -80 -240l-23 -57 q-8 -23 -27.5 -31t-77 -10t-147.5 -2z" />
<glyph unicode="y" horiz-adv-x="698" d="M-23 -293q0 31 8.5 65.5t20.5 57.5q18 -14 57 -24.5t82 -10.5q41 0 67 38t38 134l-225 998q-4 25 -5 28q0 16 17.5 22.5t72 7.5t138.5 1l61 -358q18 -111 32.5 -242t18.5 -170q2 39 15.5 169t27.5 243l41 295q4 35 17.5 46t55.5 14t169 3l-229 -1071q-29 -137 -65 -211 t-89 -105.5t-137 -31.5q-107 0 -148 26.5t-41 75.5z" />
<glyph unicode="z" horiz-adv-x="616" d="M20 113q0 41 19 80l303 643h-168q-80 0 -137 -11q-8 47 -8 103q0 51 16 73.5t55 22.5h473q2 -2 7.5 -10t10.5 -22.5t5 -35.5q0 -45 -27 -106l-282 -641h114q113 0 183 29q8 -33 8 -99q-2 -76 -20.5 -107.5t-71.5 -31.5h-441q-4 2 -13 14.5t-17.5 38t-8.5 60.5z" />
<glyph unicode="{" horiz-adv-x="544" d="M57 594q0 37 11.5 64.5t29.5 41.5q29 20 45.5 37t26.5 52.5t10 95.5q0 78 -16 221q-12 127 -12 172q0 121 86 182.5t231 63.5q20 -31 31.5 -69t11.5 -73q0 -31 -9 -52t-26 -25q-94 -14 -94 -150q0 -43 8 -149q10 -158 10 -199q0 -88 -24.5 -130t-73.5 -65 q51 -23 74.5 -65.5t23.5 -130.5q0 -86 -10 -183q-8 -106 -8 -149q0 -88 26.5 -129t86.5 -51q6 -55 6 -86q0 -55 -20.5 -89t-55.5 -34q-147 0 -210.5 72.5t-63.5 205.5q0 57 6 114.5t8 74.5q14 104 14 186q0 76 -23.5 111t-80.5 45q-18 39 -19 90z" />
<glyph unicode="|" horiz-adv-x="591" d="M180 -410v2020q0 31 10.5 42t54.5 14t167 3v-2025q0 -29 -10.5 -39.5t-51.5 -12.5t-170 -2z" />
<glyph unicode="}" horiz-adv-x="544" d="M35 -164q0 68 35 76q94 14 94 149q0 45 -8 152q-8 127 -9 197q0 90 23 132t72 64q-47 23 -71 66t-24 131q0 63 9 182q8 102 8 150q0 86 -26.5 127t-86.5 53q-8 47 -8 86q0 55 21.5 89t58.5 34q272 0 272 -279q0 -82 -14 -186q-2 -18 -8 -76.5t-6 -114.5 q0 -78 22.5 -111.5t79.5 -43.5q20 -43 20 -88q0 -74 -43 -107q-29 -23 -44 -39t-25 -51t-10 -96q0 -78 16 -221q12 -127 12 -172q0 -119 -87 -181.5t-230 -62.5q-21 29 -32 67.5t-11 73.5z" />
<glyph unicode="~" horiz-adv-x="819" d="M18 559q33 49 115 89t170 40q49 0 78 -10t65 -31q31 -18 50.5 -25.5t50.5 -7.5q55 0 125 58q23 12 39 12q39 0 65.5 -42t28.5 -103q-35 -49 -112 -90t-167 -41q-51 0 -83.5 12t-63.5 33q-31 18 -49.5 25t-46.5 7q-27 0 -47.5 -10t-51.5 -29q-23 -16 -39 -23t-34 -7 q-39 0 -65 39t-28 104z" />
<glyph unicode="&#xa1;" horiz-adv-x="413" d="M55 -403l49 839q4 51 22.5 72.5t61.5 28t144 6.5l43 -879q2 -33 -20.5 -46t-85 -17t-214.5 -4zM76 893q0 61 39 103t106 42q80 0 112 -35.5t32 -109.5q0 -61 -39 -104.5t-105 -43.5q-78 0 -111.5 38t-33.5 110z" />
<glyph unicode="&#xa2;" d="M150 475q0 467 239 551v135q0 53 49 71.5t158 18.5v-219q39 -10 62.5 -27.5t23.5 -35.5q0 -104 -20 -160q-61 27 -130 27q-45 0 -78.5 -22.5t-56 -99.5t-22.5 -225q0 -137 13 -200.5t42 -82t86 -18.5q31 0 73 8.5t66 20.5q8 -27 13.5 -70t5.5 -69q0 -31 -39 -57.5 t-94 -36.5v-158q0 -51 -48.5 -66.5t-158.5 -15.5v250q-94 25 -139 130t-45 351z" />
<glyph unicode="&#xa3;" horiz-adv-x="710" d="M31 563q0 117 6 156t35 39h65q14 238 97 349.5t233 111.5q86 0 145.5 -30t59.5 -95q0 -35 -6.5 -62.5t-20.5 -70.5q-57 29 -119 28q-70 0 -111.5 -52t-52.5 -179h226q0 -115 -6.5 -155t-34.5 -40h-187q4 -227 15 -340l258 -16q16 -51 16 -103q0 -104 -96 -104h-393 q-23 223 -27 563h-102z" />
<glyph unicode="&#xa4;" horiz-adv-x="1226" d="M14 997q68 68 97.5 93.5t50.5 25.5q12 0 20 -8l154 -154q96 76 287 76q182 0 274 -72l178 179q66 -66 91.5 -96.5t25.5 -51.5q0 -12 -8 -20l-183 -181q25 -86 25 -210q0 -168 -37 -279l223 -223q-63 -63 -95 -90t-50 -27q-12 0 -20 8l-175 174q-90 -63 -254 -63 q-172 0 -266 61l-198 -200q-68 68 -93.5 97.5t-25.5 47.5q0 12 8 20l193 193q-35 92 -35 248q0 147 28 239zM428 539q0 -145 45 -208t152 -63q98 0 140 72t42 238q0 145 -40 206.5t-134 61.5q-111 0 -158 -70.5t-47 -236.5z" />
<glyph unicode="&#xa5;" d="M43 1399q-6 18 5 24.5t76.5 8.5t178.5 2l57 -269q18 -78 35 -173t21 -161q6 66 23.5 162.5t35.5 173.5l57 226q6 23 19.5 30t70 9t154.5 2l-164 -547h170q0 -106 -15 -146.5t-69 -40.5h-141l-29 -96v-65h254q0 -106 -15 -146.5t-69 -40.5h-170v-311q0 -23 -9 -30 t-65.5 -9t-152.5 -2v352h-254q0 109 15.5 148t68.5 39h170v49l-35 112h-219q0 106 15.5 146.5t68.5 40.5h76z" />
<glyph unicode="&#xa6;" horiz-adv-x="468" d="M119 373q0 53 25.5 72.5t95.5 19.5q57 0 106 -16v-773q0 -37 -8 -53t-32.5 -22.5t-76.5 -6.5q-69 1 -110 13v766zM119 670v762q0 53 25.5 72.5t95.5 19.5q57 0 106 -17v-768q0 -35 -8 -52t-32.5 -23.5t-76.5 -6.5q-59 1 -110 13z" />
<glyph unicode="&#xa7;" horiz-adv-x="667" d="M45 780q0 51 24.5 105.5t75.5 97.5q-2 4 -6 8t-8 13q-35 51 -49 92t-14 86q0 121 92 189.5t229 68.5q90 0 141.5 -27t67.5 -61q8 -23 8 -47q0 -68 -39 -140q-55 31 -133 31q-51 0 -77.5 -16.5t-26.5 -46.5q0 -20 11 -41t38 -58l37 -41q106 -117 141 -172q31 -43 43 -79.5 t12 -90.5q0 -49 -24.5 -103t-73.5 -97q6 -7 9 -13t7 -10q33 -51 47.5 -92t14.5 -86q0 -121 -92 -189.5t-228 -68.5q-92 0 -144 26.5t-67 63.5q-8 14 -8 45q0 74 39 139q55 -31 133 -30q51 0 78 17t27 46q0 23 -11.5 43t-39.5 55l-43 49q-100 115 -134 164q-31 45 -44 83 t-13 87zM258 760q0 -27 11.5 -52.5t35.5 -60.5q16 -27 43 -47q25 10 40 32.5t15 41.5q0 25 -11 49.5t-36 60.5q-20 27 -43 47q-25 -8 -40 -30.5t-15 -40.5z" />
<glyph unicode="&#xa8;" horiz-adv-x="573" d="M43 1282q0 70 29.5 111t89.5 41q59 0 81.5 -31t22.5 -111t-30.5 -123t-88.5 -43q-51 0 -77.5 35t-26.5 121zM307 1282q0 70 31 111t90 41q57 0 78.5 -31t21.5 -111t-29.5 -123t-84.5 -43q-54 0 -80.5 35t-26.5 121z" />
<glyph unicode="&#xa9;" horiz-adv-x="983" d="M66 1110q0 225 112.5 334.5t325.5 109.5q217 0 315.5 -101t98.5 -337q0 -221 -111 -342t-324 -121t-315 113t-102 344zM231 1116q0 -164 63.5 -234.5t192.5 -70.5q113 0 187 70.5t74 234.5q0 145 -59.5 219t-188.5 74q-268 0 -269 -293zM334 1094q0 154 53 208t133 54 q29 0 58.5 -11.5t29.5 -23.5q0 -14 -3 -35.5t-7 -42.5q-45 10 -68 10q-37 0 -57 -30.5t-20 -132.5q0 -53 7 -79t20.5 -33t41.5 -7q27 0 70 14q12 -27 12 -74q0 -18 -28.5 -29.5t-65.5 -11.5q-70 0 -105.5 16.5t-53 63.5t-17.5 144z" />
<glyph unicode="&#xaa;" horiz-adv-x="630" d="M61 846q0 258 207 258q59 0 115 -19v70q0 59 -26.5 80.5t-77.5 21.5q-78 0 -179 -38q-25 35 -24 94q0 43 14 63q55 78 256 78q106 0 164.5 -56.5t58.5 -164.5v-584q-53 -25 -128.5 -42t-147.5 -17t-122 18.5t-80 74.5t-30 163zM242 844q0 -98 77 -99q19 0 36.5 5.5 t27.5 13.5v170q-20 12 -55 12q-43 0 -64.5 -20.5t-21.5 -81.5z" />
<glyph unicode="&#xab;" horiz-adv-x="847" d="M12 512q0 41 64.5 154.5t134.5 220t92 137.5q39 0 68.5 -25.5t48 -55.5t18.5 -34q0 -47 -48 -135t-99 -163.5t-68 -98.5q16 -20 68.5 -93t100.5 -158t48 -134q0 -4 -18.5 -37t-48 -61.5t-68.5 -28.5q-22 31 -92 136.5t-135.5 220t-65.5 155.5zM389 514q0 39 63.5 141.5 t132 196.5t89.5 123q37 0 66.5 -23.5t45 -49t19.5 -34.5q0 -43 -45 -121.5t-94.5 -146.5t-63.5 -86q16 -18 65.5 -80.5t94.5 -138.5t45 -121q-4 -8 -20.5 -36.5t-46 -55.5t-66.5 -27q-21 29 -89.5 122t-132 195.5t-63.5 141.5z" />
<glyph unicode="&#xac;" horiz-adv-x="819" d="M70 551q0 47 17 77.5t52 30.5h598v-432q-49 -18 -104 -18q-47 0 -78 17.5t-31 52.5v165h-436q-18 53 -18 107z" />
<glyph unicode="&#xad;" horiz-adv-x="540" d="M61 479q0 117 6.5 157t34.5 40h377q0 -117 -6 -157t-35 -40h-377z" />
<glyph unicode="&#xae;" horiz-adv-x="983" d="M66 1110q0 225 112.5 334.5t325.5 109.5q217 0 315.5 -101t98.5 -337q0 -221 -111 -342t-324 -121t-315 113t-102 344zM231 1116q0 -164 63.5 -234.5t192.5 -70.5q113 0 187 70.5t74 234.5q0 145 -59.5 219t-188.5 74q-268 0 -269 -293zM373 866v480q0 2 3 7t13 5h76 q162 0 162 -150q0 -82 -52 -127q62 -55 66 -196q0 -12 -7 -17.5t-36 -5.5l-59 4q-2 131 -43 181q-8 -2 -25 -3h-6v-161q0 -8 -4 -11.5t-26.5 -4.5t-61.5 -1zM465 1133q2 -2 16 -3q20 0 31.5 19.5t11.5 69.5q0 59 -39 59h-20v-145z" />
<glyph unicode="&#xaf;" horiz-adv-x="573" d="M-2 1264q0 49 24.5 80.5t67.5 31.5h463q23 -45 22 -96q0 -51 -23.5 -84t-62.5 -33h-475q-16 44 -16 101z" />
<glyph unicode="&#xb0;" horiz-adv-x="702" d="M139 1321q0 215 219 215q111 0 159 -46t48 -165q0 -217 -219 -217q-108 0 -157.5 46t-49.5 167zM285 1321q0 -76 65 -76q74 0 74 78q0 74 -66 74q-74 0 -73 -76z" />
<glyph unicode="&#xb1;" horiz-adv-x="825" d="M51 35q0 117 6 157t35 40h676q0 -117 -6 -157t-35 -40h-676zM55 612q0 117 6 157t35 40h221v219q0 29 39 35t156 6v-260h260q0 -117 -6 -157t-35 -40h-219v-219q0 -29 -40 -35t-155 -6v260h-262z" />
<glyph unicode="&#xb2;" horiz-adv-x="745" d="M55 662q0 72 31 108q53 68 160 178q76 78 107.5 119t31.5 82q0 35 -21.5 54.5t-74.5 19.5q-76 0 -180 -62q-23 47 -29 75t-6 60q0 72 105.5 115t223.5 43q145 0 205 -53t60 -160q0 -94 -53.5 -178t-147.5 -186q-45 -49 -64 -72h273q12 -61 12 -98q0 -115 -70 -115h-546 q-17 35 -17 70z" />
<glyph unicode="&#xb3;" horiz-adv-x="714" d="M53 702q0 33 13.5 66t35.5 55q90 -45 181 -45q145 0 145 82q0 66 -92 74q-29 4 -119 4q-6 8 -16.5 47t-10.5 57q0 33 15.5 49.5t52.5 16.5q51 0 76 -2q49 37 49 82q0 66 -96 65q-94 0 -181 -53q-43 49 -43 115q0 47 25 67q37 33 115 52.5t188 19.5q246 0 246 -182 q0 -115 -98 -213q59 -29 92 -78t33 -104q0 -154 -102.5 -230t-260.5 -76q-78 0 -131 13.5t-82 31.5q-35 25 -35 86z" />
<glyph unicode="&#xb4;" horiz-adv-x="577" d="M102 1249q33 45 91 101.5t111.5 98.5t65.5 42q35 0 64.5 -52.5t40.5 -115.5q-35 -41 -151 -119t-134 -80q-27 0 -46.5 28t-29.5 57.5t-12 39.5z" />
<glyph unicode="&#xb5;" horiz-adv-x="751" d="M59 -387v1323q0 51 28 75.5t89 24.5q68 0 113 -14v-750q0 -80 82 -79q49 0 90 18v725q0 53 23.5 76.5t88.5 23.5q72 0 115 -14v-973q-63 -31 -148 -50t-175 -19q-51 0 -76 24v-311q0 -94 -127 -94q-35 0 -103 14z" />
<glyph unicode="&#xb6;" horiz-adv-x="1093" d="M45 854q0 324 107.5 462t296.5 138q74 0 143.5 -17.5t114.5 -41.5v-1319q0 -82 -109 -82q-74 0 -119 16v404q-47 -23 -139 -23q-295 0 -295 463zM281 881q0 -180 33.5 -246t86.5 -66q49 1 76 19v661q-25 14 -61 15q-135 0 -135 -383zM805 4v1319q0 51 25.5 71.5 t93.5 20.5q47 0 110 -18v-1323q0 -51 -22.5 -66.5t-98.5 -15.5q-67 0 -108 12z" />
<glyph unicode="&#xb7;" horiz-adv-x="481" d="M96 549q0 63 39 106t107 43q78 0 110.5 -38.5t32.5 -110.5q0 -61 -39 -103.5t-104 -42.5q-80 0 -113 36t-33 110z" />
<glyph unicode="&#xb8;" horiz-adv-x="573" d="M133 -422q2 14 13.5 55t19.5 50q6 6 24.5 -3.5t34 -16.5t35.5 -7q57 0 57 65q0 33 -12 49.5t-41 16.5q-39 0 -62.5 -5t-29.5 -7l39 229h115l-23 -121h33q43 0 73.5 -36.5t30.5 -108.5q0 -80 -50 -135.5t-134 -55.5q-31 0 -58.5 7.5t-44 14.5t-20.5 9z" />
<glyph unicode="&#xb9;" horiz-adv-x="720" d="M53 690q0 57 15.5 86t58.5 29h145v399l-186 -33q-27 47 -27 107q0 76 70 104q70 27 167 49.5t142 22.5q16 0 35 -2t31 -6v-641h153q10 -61 11 -98q0 -63 -14.5 -89t-51.5 -26h-536q-13 51 -13 98z" />
<glyph unicode="&#xba;" horiz-adv-x="667" d="M55 1022q0 432 289 432q96 0 153.5 -37t86 -130t28.5 -259q0 -436 -286 -436q-93 0 -152 39t-89 133t-30 258zM244 1014q0 -139 19.5 -189.5t64.5 -50.5q49 0 72.5 53.5t23.5 190.5q0 96 -8 147.5t-25.5 70.5t-48.5 19q-49 0 -73.5 -54t-24.5 -187z" />
<glyph unicode="&#xbb;" horiz-adv-x="847" d="M41 174q0 49 45 124t94 136.5t64 77.5q4 0 -15.5 27.5t-27.5 40.5q-74 102 -116 172.5t-42 115.5q0 35 26.5 60.5t56.5 39t38 15.5q23 -29 92.5 -125t134 -200.5t64.5 -145.5t-64.5 -144.5t-134.5 -197.5t-92 -123q0 -2 -34 14.5t-61.5 44t-27.5 68.5zM408 127 q0 49 48 134t100 158t69 93q-16 23 -67.5 98.5t-99.5 163.5t-48 135q0 35 29.5 60.5t62.5 39t43 15.5q23 -31 92.5 -137.5t134 -220t64.5 -154.5t-65.5 -155.5t-135.5 -220t-92 -136.5q0 -2 -38 14.5t-67.5 44t-29.5 68.5z" />
<glyph unicode="&#xbc;" horiz-adv-x="1898" d="M53 690q0 59 15.5 87t58.5 28h145v399l-186 -33q-27 43 -27 107q0 76 70 104q70 27 166 49.5t143 22.5q16 0 35 -2t31 -6v-641h153q10 -61 11 -98q0 -63 -14.5 -89t-51.5 -26h-539q-10 53 -10 98zM565 55l541 1344q16 55 78 55q37 0 79 -18.5t79 -57.5l-547 -1355 q-6 -18 -22.5 -30.5t-43.5 -12.5q-35 0 -81 20t-83 55zM1175 252q0 33 13 72q33 111 108.5 240.5t145.5 205.5q47 55 96 73.5t110 18.5q45 0 95 -12v-502h96q18 -47 18 -102q0 -53 -20.5 -83t-50.5 -30h-43v-82q0 -66 -119 -65q-39 0 -92 12v135h-316q-41 43 -41 119z M1378 332h162l12 284q-55 -35 -104 -119.5t-70 -164.5z" />
<glyph unicode="&#xbd;" horiz-adv-x="1863" d="M53 690q0 59 15.5 87t58.5 28h145v399l-186 -33q-27 43 -27 107q0 76 70 104q70 27 166 49.5t143 22.5q16 0 35 -2t31 -6v-641h153q10 -61 11 -98q0 -63 -14.5 -89t-51.5 -26h-539q-10 53 -10 98zM565 55l541 1344q16 55 78 55q37 0 79 -18.5t79 -57.5l-547 -1355 q-6 -18 -22.5 -30.5t-43.5 -12.5q-35 0 -81 20t-83 55zM1175 70q0 72 31 108q53 68 160 178q76 78 107.5 119t31.5 82q0 35 -21.5 54.5t-74.5 19.5q-76 0 -180 -62q-23 47 -30 75t-7 61q0 72 106.5 114.5t224.5 42.5q145 0 205 -53t60 -160q0 -94 -53.5 -178t-147.5 -186 q-45 -49 -64 -72h273q12 -61 12 -98q0 -115 -72 -115h-544q-17 35 -17 70z" />
<glyph unicode="&#xbe;" horiz-adv-x="1892" d="M53 702q0 35 13.5 68t35.5 53q86 -45 181 -45q143 0 143 82q0 66 -90 74q-29 4 -119 4q-6 8 -16.5 47t-10.5 57q0 31 14.5 48.5t51.5 17.5q53 0 78 -2q47 37 47 82q0 66 -94 65q-96 0 -181 -53q-20 25 -31.5 55.5t-11.5 59.5q0 47 23 67q37 33 116 52.5t189 19.5 q123 0 184.5 -47t61.5 -135q0 -115 -98 -213q57 -29 90 -78t33 -104q0 -154 -102.5 -230t-260.5 -76q-145 0 -211 45q-35 23 -35 86zM559 55l541 1344q16 55 78 55q37 0 79 -18.5t79 -57.5l-547 -1355q-6 -18 -22.5 -30.5t-43.5 -12.5q-35 0 -81 20t-83 55zM1169 252 q0 33 13 72q33 111 108.5 240.5t145.5 205.5q47 55 96 73.5t110 18.5q45 0 95 -12v-502h96q18 -47 18 -102q0 -53 -20.5 -83t-50.5 -30h-43v-82q0 -66 -119 -65q-39 0 -92 12v135h-316q-41 43 -41 119zM1372 332h162l12 284q-55 -35 -104 -119.5t-70 -164.5z" />
<glyph unicode="&#xbf;" horiz-adv-x="638" d="M29 -121q0 86 18.5 152.5t45 111.5t73.5 113q53 74 76 115q12 25 12 53q0 27 -12 76q-10 35 -11 53q0 14 7 22q25 27 133 27q33 0 73 -4q4 -6 13.5 -28.5t17.5 -58.5t8 -77q0 -61 -26 -117q-25 -47 -53.5 -95t-38.5 -64q-47 -74 -68 -119t-21 -98q0 -55 30 -84t100 -29 q41 0 72.5 9t48 19.5t20.5 14.5q37 -96 37 -182q0 -41 -86 -65.5t-185 -24.5q-141 0 -212.5 77.5t-71.5 202.5zM197 891q0 61 38.5 103t106.5 42q80 0 112.5 -35.5t32.5 -109.5q0 -61 -39.5 -104.5t-105.5 -43.5q-78 0 -111.5 38t-33.5 110z" />
<glyph unicode="&#xc0;" horiz-adv-x="894" d="M4 4l342 1391q8 43 92 43q70 0 109 -8l342 -1393q4 -21 -16.5 -31t-86.5 -10q-72 0 -131 4l-67 328h-277l-59 -289q-6 -25 -23.5 -34t-81.5 -9q-72 0 -143 8zM282 1715q10 61 40 113t65 52q18 0 118.5 -87t149.5 -154q-2 -10 -12 -40t-29.5 -57.5t-46.5 -27.5 q-20 2 -134 81t-151 120zM354 532h191l-41 193q-31 147 -53 387q-29 -260 -56 -387z" />
<glyph unicode="&#xc1;" horiz-adv-x="894" d="M4 4l342 1391q8 43 92 43q70 0 109 -8l342 -1393q4 -21 -16.5 -31t-86.5 -10q-72 0 -131 4l-67 328h-277l-59 -289q-6 -25 -23.5 -34t-81.5 -9q-72 0 -143 8zM283 1659q33 45 91 101.5t111.5 98.5t65.5 42q35 0 64.5 -52.5t40.5 -115.5q-35 -41 -151 -119t-134 -80 q-27 0 -46.5 28t-29.5 57.5t-12 39.5zM354 532h191l-41 193q-31 147 -53 387q-29 -260 -56 -387z" />
<glyph unicode="&#xc2;" horiz-adv-x="894" d="M4 4l342 1391q8 43 92 43q70 0 109 -8l342 -1393q4 -21 -16.5 -31t-86.5 -10q-72 0 -131 4l-67 328h-277l-59 -289q-6 -25 -23.5 -34t-81.5 -9q-72 0 -143 8zM174 1598l239 274q20 6 46 6q37 0 63 -28q14 -14 62.5 -66.5t93.5 -110t45 -81.5q0 -55 -158 -56 q-6 4 -24.5 23.5t-42 51.5t-42.5 67q-6 -10 -27.5 -44t-50 -65t-51.5 -31q-106 0 -153 60zM354 532h191l-41 193q-31 147 -53 387q-29 -260 -56 -387z" />
<glyph unicode="&#xc3;" horiz-adv-x="894" d="M4 4l342 1391q8 43 92 43q70 0 109 -8l342 -1393q4 -21 -16.5 -31t-86.5 -10q-72 0 -131 4l-67 328h-277l-59 -289q-6 -25 -23.5 -34t-81.5 -9q-72 0 -143 8zM137 1661q51 84 124 127t134 43q29 0 47.5 -11t40.5 -34q23 -23 39 -33t41 -10q35 0 52.5 10.5t35.5 30.5 q6 8 15.5 15.5t19.5 7.5q18 0 34.5 -29t27 -58.5t12.5 -39.5q0 -4 -39 -44t-92.5 -74t-110.5 -34q-37 0 -56.5 12.5t-37.5 34.5q-16 20 -29.5 29.5t-38.5 9.5q-39 0 -76 -41q-20 -25 -34 -24q-29 0 -52.5 24.5t-38 52t-18.5 35.5zM354 532h191l-41 193q-31 147 -53 387 q-29 -260 -56 -387z" />
<glyph unicode="&#xc4;" horiz-adv-x="894" d="M4 4l342 1391q8 43 92 43q70 0 109 -8l342 -1393q4 -21 -16.5 -31t-86.5 -10q-72 0 -131 4l-67 328h-277l-59 -289q-6 -25 -23.5 -34t-81.5 -9q-72 0 -143 8zM205 1692q0 70 29.5 111t89.5 41q59 0 81.5 -31t22.5 -111t-30.5 -123t-88.5 -43q-51 0 -77.5 35t-26.5 121z M354 532h191l-41 193q-31 147 -53 387q-29 -260 -56 -387zM469 1692q0 70 31 111t90 41q57 0 78.5 -31t21.5 -111t-29.5 -123t-84.5 -43q-54 0 -80.5 35t-26.5 121z" />
<glyph unicode="&#xc5;" horiz-adv-x="894" d="M4 4l342 1391q8 43 92 43q70 0 109 -8l342 -1393q4 -21 -16.5 -31t-86.5 -10q-72 0 -131 4l-67 328h-277l-59 -289q-6 -25 -23.5 -34t-81.5 -9q-72 0 -143 8zM236 1706q0 215 221 215q111 0 159 -46t48 -165q0 -217 -219 -217q-109 0 -159 46.5t-50 166.5zM354 532h191 l-41 193q-31 147 -53 387q-29 -260 -56 -387zM391 1706q0 -66 58 -65q61 -1 61 67q0 66 -53 66q-66 0 -66 -68z" />
<glyph unicode="&#xc6;" horiz-adv-x="1193" d="M33 4l518 1391q12 39 74 39h549q0 -78 -2.5 -127.5t-10.5 -62.5t-28 -13h-265v-350h250q0 -76 -2 -126t-9 -66.5t-28 -16.5h-211v-469h291q0 -82 -2 -131t-9 -60.5t-30 -11.5h-477v328h-262l-98 -289q-8 -25 -29 -34t-76 -9q-72 0 -143 8zM446 532h195v662 q-57 -260 -131 -475z" />
<glyph unicode="&#xc7;" horiz-adv-x="665" d="M41 670q0 784 410 784q119 0 156.5 -31.5t37.5 -89.5q0 -68 -33 -137q-47 35 -106 35q-102 0 -163.5 -118t-61.5 -425q0 -178 16 -276.5t51 -138.5t94 -40q103 0 160 31q31 -61 31 -133q0 -61 -52.5 -100t-144.5 -49l-18 -99h33q43 0 73.5 -36.5t30.5 -108.5 q0 -80 -50 -135.5t-134 -55.5q-31 0 -58.5 7.5t-44 14.5t-20.5 9q2 14 13 55t20 50q6 6 24.5 -3.5t33.5 -16.5t36 -7q57 0 57 65q0 33 -12 49.5t-41 16.5q-39 0 -62.5 -5t-29.5 -7l35 209q-98 10 -159 73.5t-91.5 210t-30.5 402.5z" />
<glyph unicode="&#xc8;" horiz-adv-x="616" d="M61 0v1393q0 10 8.5 25.5t32.5 15.5h492q0 -78 -2 -127.5t-10.5 -62.5t-28.5 -13h-264v-350h250q0 -76 -2 -126t-9.5 -66.5t-25.5 -16.5h-213v-469h291q0 -82 -2.5 -131t-9.5 -60.5t-27 -11.5h-480zM151 1715q10 61 40 113t65 52q18 0 118.5 -87t149.5 -154 q-2 -10 -12 -40t-29.5 -57.5t-46.5 -27.5q-20 2 -134 81t-151 120z" />
<glyph unicode="&#xc9;" horiz-adv-x="616" d="M61 0v1393q0 10 8.5 25.5t32.5 15.5h492q0 -78 -2 -127.5t-10.5 -62.5t-28.5 -13h-264v-350h250q0 -76 -2 -126t-9.5 -66.5t-25.5 -16.5h-213v-469h291q0 -82 -2.5 -131t-9.5 -60.5t-27 -11.5h-480zM152 1659q33 45 91 101.5t111.5 98.5t65.5 42q35 0 64.5 -52.5 t40.5 -115.5q-35 -41 -151 -119t-134 -80q-27 0 -46.5 28t-29.5 57.5t-12 39.5z" />
<glyph unicode="&#xca;" horiz-adv-x="616" d="M43 1598l239 274q20 6 46 6q37 0 63 -28q14 -14 62.5 -66.5t93.5 -110t45 -81.5q0 -55 -158 -56q-6 4 -24.5 23.5t-42 51.5t-42.5 67q-6 -10 -27.5 -44t-50 -65t-51.5 -31q-106 0 -153 60zM61 0v1393q0 10 8.5 25.5t32.5 15.5h492q0 -78 -2 -127.5t-10.5 -62.5t-28.5 -13 h-264v-350h250q0 -76 -2 -126t-9.5 -66.5t-25.5 -16.5h-213v-469h291q0 -82 -2.5 -131t-9.5 -60.5t-27 -11.5h-480z" />
<glyph unicode="&#xcb;" horiz-adv-x="616" d="M61 0v1393q0 10 8.5 25.5t32.5 15.5h492q0 -78 -2 -127.5t-10.5 -62.5t-28.5 -13h-264v-350h250q0 -76 -2 -126t-9.5 -66.5t-25.5 -16.5h-213v-469h291q0 -82 -2.5 -131t-9.5 -60.5t-27 -11.5h-480zM74 1692q0 70 29.5 111t89.5 41q59 0 81.5 -31t22.5 -111t-30.5 -123 t-88.5 -43q-51 0 -77.5 35t-26.5 121zM338 1692q0 70 31 111t90 41q57 0 78.5 -31t21.5 -111t-29.5 -123t-84.5 -43q-54 0 -80.5 35t-26.5 121z" />
<glyph unicode="&#xcc;" horiz-adv-x="356" d="M12 1715q10 61 40 113t65 52q18 0 118.5 -87t149.5 -154q-2 -10 -12 -40t-29.5 -57.5t-46.5 -27.5q-20 2 -134 81t-151 120zM61 0v1333q0 55 11.5 73.5t52.5 23t168 4.5v-1393q0 -23 -10.5 -30t-67.5 -9t-154 -2z" />
<glyph unicode="&#xcd;" horiz-adv-x="356" d="M12 1659q33 45 91 101.5t111.5 98.5t65.5 42q35 0 64.5 -52.5t40.5 -115.5q-35 -41 -151 -119t-134 -80q-27 0 -46.5 28t-29.5 57.5t-12 39.5zM61 0v1333q0 55 11.5 73.5t52.5 23t168 4.5v-1393q0 -23 -10.5 -30t-67.5 -9t-154 -2z" />
<glyph unicode="&#xce;" horiz-adv-x="356" d="M-96 1598l239 274q20 6 46 6q37 0 63 -28q14 -14 62.5 -66.5t93.5 -110t45 -81.5q0 -55 -158 -56q-6 4 -24.5 23.5t-42 51.5t-42.5 67q-6 -10 -27.5 -44t-50 -65t-51.5 -31q-106 0 -153 60zM61 0v1333q0 55 11.5 73.5t52.5 23t168 4.5v-1393q0 -23 -10.5 -30t-67.5 -9 t-154 -2z" />
<glyph unicode="&#xcf;" horiz-adv-x="356" d="M-66 1692q0 70 29.5 111t89.5 41q59 0 81.5 -31t22.5 -111t-30.5 -123t-88.5 -43q-51 0 -77.5 35t-26.5 121zM61 0v1333q0 55 11.5 73.5t52.5 23t168 4.5v-1393q0 -23 -10.5 -30t-67.5 -9t-154 -2zM198 1692q0 70 31 111t90 41q57 0 78.5 -31t21.5 -111t-29.5 -123 t-84.5 -43q-54 0 -80.5 35t-26.5 121z" />
<glyph unicode="&#xd0;" horiz-adv-x="739" d="M-8 645q0 117 6 157t35 40h28v551q0 20 12.5 30.5t45.5 10.5h196q144 0 230 -52.5t129 -186.5t43 -382q0 -289 -40 -467t-126 -262t-225 -84h-265v645h-69zM289 217l43 -2q39 0 65.5 44t43 176t16.5 378q0 176 -15.5 265t-42 119t-69.5 30h-41v-385h104q0 -117 -6 -157 t-33 -40h-65v-428z" />
<glyph unicode="&#xd1;" horiz-adv-x="880" d="M61 0v1393q0 41 41 41h181l215 -539q51 -129 120 -434q-27 248 -26 454v478q0 22 11 29.5t66.5 9.5t149.5 2v-1393q0 -18 -10 -29.5t-31 -11.5h-176l-217 549q-53 137 -123 455q27 -262 27 -472v-491q0 -23 -10.5 -30t-66.5 -9t-151 -2zM129 1661q51 84 124 127t134 43 q29 0 47.5 -11t40.5 -34q23 -23 39 -33t41 -10q35 0 52.5 10.5t35.5 30.5q6 8 15.5 15.5t19.5 7.5q18 0 34.5 -29t27 -58.5t12.5 -39.5q0 -4 -39 -44t-92.5 -74t-110.5 -34q-37 0 -56.5 12.5t-37.5 34.5q-16 20 -29.5 29.5t-38.5 9.5q-39 0 -76 -41q-20 -25 -34 -24 q-29 0 -52.5 24.5t-38 52t-18.5 35.5z" />
<glyph unicode="&#xd2;" horiz-adv-x="839" d="M41 725q0 274 42 434t127 227.5t222 67.5t215 -63.5t114 -219t36 -438.5q0 -287 -41 -450.5t-124 -233t-222 -69.5q-142 0 -219.5 61t-113.5 221t-36 463zM254 1715q10 61 40 113t65 52q18 0 118.5 -87t149.5 -154q-2 -10 -12 -40t-29.5 -57.5t-46.5 -27.5q-20 2 -134 81 t-151 120zM301 674q0 -174 9 -270.5t35 -142.5t77 -46t77.5 51t37 158.5t10.5 300.5q0 199 -7.5 299t-33 147.5t-78.5 47.5q-49 0 -76.5 -52.5t-39 -169t-11.5 -323.5z" />
<glyph unicode="&#xd3;" horiz-adv-x="839" d="M41 725q0 274 42 434t127 227.5t222 67.5t215 -63.5t114 -219t36 -438.5q0 -287 -41 -450.5t-124 -233t-222 -69.5q-142 0 -219.5 61t-113.5 221t-36 463zM254 1659q33 45 91 101.5t111.5 98.5t65.5 42q35 0 64.5 -52.5t40.5 -115.5q-35 -41 -151 -119t-134 -80 q-27 0 -46.5 28t-29.5 57.5t-12 39.5zM301 674q0 -174 9 -270.5t35 -142.5t77 -46t77.5 51t37 158.5t10.5 300.5q0 199 -7.5 299t-33 147.5t-78.5 47.5q-49 0 -76.5 -52.5t-39 -169t-11.5 -323.5z" />
<glyph unicode="&#xd4;" horiz-adv-x="839" d="M41 725q0 274 42 434t127 227.5t222 67.5t215 -63.5t114 -219t36 -438.5q0 -287 -41 -450.5t-124 -233t-222 -69.5q-142 0 -219.5 61t-113.5 221t-36 463zM146 1598l239 274q20 6 46 6q37 0 63 -28q14 -14 62.5 -66.5t93.5 -110t45 -81.5q0 -55 -158 -56q-6 4 -24.5 23.5 t-42 51.5t-42.5 67q-6 -10 -27.5 -44t-50 -65t-51.5 -31q-106 0 -153 60zM301 674q0 -174 9 -270.5t35 -142.5t77 -46t77.5 51t37 158.5t10.5 300.5q0 199 -7.5 299t-33 147.5t-78.5 47.5q-49 0 -76.5 -52.5t-39 -169t-11.5 -323.5z" />
<glyph unicode="&#xd5;" horiz-adv-x="839" d="M41 725q0 274 42 434t127 227.5t222 67.5t215 -63.5t114 -219t36 -438.5q0 -287 -41 -450.5t-124 -233t-222 -69.5q-142 0 -219.5 61t-113.5 221t-36 463zM109 1661q51 84 124 127t134 43q29 0 47.5 -11t40.5 -34q23 -23 39 -33t41 -10q35 0 52.5 10.5t35.5 30.5 q6 8 15.5 15.5t19.5 7.5q18 0 34.5 -29t27 -58.5t12.5 -39.5q0 -4 -39 -44t-92.5 -74t-110.5 -34q-37 0 -56.5 12.5t-37.5 34.5q-16 20 -29.5 29.5t-38.5 9.5q-39 0 -76 -41q-20 -25 -34 -24q-29 0 -52.5 24.5t-38 52t-18.5 35.5zM301 674q0 -174 9 -270.5t35 -142.5t77 -46 t77.5 51t37 158.5t10.5 300.5q0 199 -7.5 299t-33 147.5t-78.5 47.5q-49 0 -76.5 -52.5t-39 -169t-11.5 -323.5z" />
<glyph unicode="&#xd6;" horiz-adv-x="839" d="M41 725q0 274 42 434t127 227.5t222 67.5t215 -63.5t114 -219t36 -438.5q0 -287 -41 -450.5t-124 -233t-222 -69.5q-142 0 -219.5 61t-113.5 221t-36 463zM176 1692q0 70 29.5 111t89.5 41q59 0 81.5 -31t22.5 -111t-30.5 -123t-88.5 -43q-51 0 -77.5 35t-26.5 121z M301 674q0 -174 9 -270.5t35 -142.5t77 -46t77.5 51t37 158.5t10.5 300.5q0 199 -7.5 299t-33 147.5t-78.5 47.5q-49 0 -76.5 -52.5t-39 -169t-11.5 -323.5zM440 1692q0 70 31 111t90 41q57 0 78.5 -31t21.5 -111t-29.5 -123t-84.5 -43q-54 0 -80.5 35t-26.5 121z" />
<glyph unicode="&#xd7;" d="M109 393l167 185l-167 184q68 68 97.5 93.5t49.5 25.5q10 0 18 -9l138 -149l135 149q8 8 18 9q18 0 45 -22.5t103 -96.5l-168 -184l168 -185q-76 -74 -102.5 -96.5t-45.5 -22.5q-10 0 -18 9l-135 149l-138 -149q-8 -8 -18 -9q-20 0 -50 26t-97 93z" />
<glyph unicode="&#xd8;" horiz-adv-x="860" d="M-6 37q-4 16 90 242q-33 158 -33 446q0 276 41 435t124 226.5t220 67.5q86 0 147.5 -22.5t104.5 -75.5q8 18 23.5 61t23.5 56q10 0 42 -7.5t63.5 -21.5t36.5 -39q2 -19 -29 -118t-64 -193q23 -133 23 -361q0 -287 -41 -450.5t-124 -233t-222 -69.5q-86 0 -146.5 21.5 t-101.5 70.5l-43 -103q-39 -2 -84 18.5t-51 49.5zM311 549l203 627q-27 45 -80 45q-47 0 -73.5 -52.5t-38 -170t-11.5 -324.5v-125zM354 240q20 -25 58 -25q47 0 77.5 32t49 143.5t18.5 334.5v129q-49 -156 -147 -446z" />
<glyph unicode="&#xd9;" horiz-adv-x="843" d="M61 393v998q0 25 10.5 32t52.5 9t173 2v-1049q0 -106 26.5 -151.5t104.5 -45.5q76 0 121 25v1178q0 25 10 32t51 9t170 2v-1377q-45 -29 -139 -53t-213 -24q-152 0 -232.5 53t-107.5 141t-27 219zM256 1715q10 61 40 113t65 52q18 0 118.5 -87t149.5 -154q-2 -10 -12 -40 t-29.5 -57.5t-46.5 -27.5q-20 2 -134 81t-151 120z" />
<glyph unicode="&#xda;" horiz-adv-x="843" d="M61 393v998q0 25 10.5 32t52.5 9t173 2v-1049q0 -106 26.5 -151.5t104.5 -45.5q76 0 121 25v1178q0 25 10 32t51 9t170 2v-1377q-45 -29 -139 -53t-213 -24q-152 0 -232.5 53t-107.5 141t-27 219zM256 1659q33 45 91 101.5t111.5 98.5t65.5 42q35 0 64.5 -52.5 t40.5 -115.5q-35 -41 -151 -119t-134 -80q-27 0 -46.5 28t-29.5 57.5t-12 39.5z" />
<glyph unicode="&#xdb;" horiz-adv-x="843" d="M61 393v998q0 25 10.5 32t52.5 9t173 2v-1049q0 -106 26.5 -151.5t104.5 -45.5q76 0 121 25v1178q0 25 10 32t51 9t170 2v-1377q-45 -29 -139 -53t-213 -24q-152 0 -232.5 53t-107.5 141t-27 219zM148 1598l239 274q20 6 46 6q37 0 63 -28q14 -14 62.5 -66.5t93.5 -110 t45 -81.5q0 -55 -158 -56q-6 4 -24.5 23.5t-42 51.5t-42.5 67q-6 -10 -27.5 -44t-50 -65t-51.5 -31q-106 0 -153 60z" />
<glyph unicode="&#xdc;" horiz-adv-x="843" d="M61 393v998q0 25 10.5 32t52.5 9t173 2v-1049q0 -106 26.5 -151.5t104.5 -45.5q76 0 121 25v1178q0 25 10 32t51 9t170 2v-1377q-45 -29 -139 -53t-213 -24q-152 0 -232.5 53t-107.5 141t-27 219zM178 1692q0 70 29.5 111t89.5 41q59 0 81.5 -31t22.5 -111t-30.5 -123 t-88.5 -43q-51 0 -77.5 35t-26.5 121zM442 1692q0 70 31 111t90 41q57 0 78.5 -31t21.5 -111t-29.5 -123t-84.5 -43q-54 0 -80.5 35t-26.5 121z" />
<glyph unicode="&#xdd;" horiz-adv-x="753" d="M12 1399q-6 18 5.5 24.5t77 8.5t177.5 2l60 -269q16 -72 34.5 -196.5t24.5 -198.5q6 72 25.5 198t36.5 199l49 226q6 23 19.5 30t69.5 9t154 2l-249 -836v-557q0 -23 -9.5 -30t-65.5 -9t-153 -2v590zM211 1659q33 45 91 101.5t111.5 98.5t65.5 42q35 0 64.5 -52.5 t40.5 -115.5q-35 -41 -151 -119t-134 -80q-27 0 -46.5 28t-29.5 57.5t-12 39.5z" />
<glyph unicode="&#xde;" horiz-adv-x="714" d="M61 0v1378q0 25 12.5 36t43 15.5t100.5 4.5h72v-267h6q137 0 223 -36.5t131 -129t45 -256.5q0 -254 -109.5 -356t-279.5 -102h-16v-246q0 -23 -12.5 -30t-67.5 -9t-148 -2zM289 504q2 0 12 -4t31 -4q53 0 79.5 58t26.5 220q0 100 -21.5 148.5t-70.5 48.5q-37 0 -57 -6 v-461z" />
<glyph unicode="&#xdf;" horiz-adv-x="937" d="M53 8l9.5 28.5t13.5 65.5t6 97l-8 927q0 158 90 238t250 80q213 0 318.5 -83t105.5 -216q0 -66 -26 -103.5t-75 -78.5q-39 -33 -57 -57.5t-18 -63.5q0 -31 21.5 -64t68.5 -90q84 -102 132 -190t48 -209q0 -137 -81 -222t-222 -85q-121 0 -184.5 28.5t-63.5 69.5 q0 53 14.5 86t40.5 63q4 -4 21.5 -14t47.5 -20.5t64 -10.5q104 0 105 105q0 57 -32 112.5t-91 130.5q-70 90 -105.5 156t-35.5 141q0 70 29.5 115t80.5 90q37 33 54.5 56.5t17.5 54.5q0 41 -43 64.5t-123 23.5q-76 0 -99.5 -51.5t-23.5 -180.5l8 -872q0 -84 -25.5 -116.5 t-107.5 -32.5q-39 0 -66.5 6t-42 13t-16.5 9z" />
<glyph unicode="&#xe0;" horiz-adv-x="694" d="M41 299q0 193 65.5 265.5t172.5 72.5q31 0 68.5 -7t62.5 -24v142q0 41 -19.5 59t-66.5 18q-57 0 -127 -12t-121 -31q-31 59 -31 131q0 20 8 41t21 31q27 20 110.5 39.5t194.5 19.5q141 0 199.5 -56t58.5 -193v-97q0 -502 -10 -653q-111 -66 -295 -65q-88 0 -150.5 22.5 t-101.5 93t-39 203.5zM180 1305q10 61 40 113t65 52q18 0 118.5 -87t149.5 -154q-2 -10 -12 -40t-29.5 -57.5t-46.5 -27.5q-20 2 -134 81t-151 120zM281 305q0 -76 14 -107.5t53 -31.5q40 0 58 20q4 47 4 267q-20 18 -56 18q-37 0 -55 -36t-18 -130z" />
<glyph unicode="&#xe1;" horiz-adv-x="694" d="M41 299q0 193 65.5 265.5t172.5 72.5q31 0 68.5 -7t62.5 -24v142q0 41 -19.5 59t-66.5 18q-57 0 -127 -12t-121 -31q-31 59 -31 131q0 20 8 41t21 31q27 20 110.5 39.5t194.5 19.5q141 0 199.5 -56t58.5 -193v-97q0 -502 -10 -653q-111 -66 -295 -65q-88 0 -150.5 22.5 t-101.5 93t-39 203.5zM180 1249q33 45 91 101.5t111.5 98.5t65.5 42q35 0 64.5 -52.5t40.5 -115.5q-35 -41 -151 -119t-134 -80q-27 0 -46.5 28t-29.5 57.5t-12 39.5zM281 305q0 -76 14 -107.5t53 -31.5q40 0 58 20q4 47 4 267q-20 18 -56 18q-37 0 -55 -36t-18 -130z" />
<glyph unicode="&#xe2;" horiz-adv-x="694" d="M41 299q0 193 65.5 265.5t172.5 72.5q31 0 68.5 -7t62.5 -24v142q0 41 -19.5 59t-66.5 18q-57 0 -127 -12t-121 -31q-31 59 -31 131q0 20 8 41t21 31q27 20 110.5 39.5t194.5 19.5q141 0 199.5 -56t58.5 -193v-97q0 -502 -10 -653q-111 -66 -295 -65q-88 0 -150.5 22.5 t-101.5 93t-39 203.5zM72 1188l239 274q20 6 46 6q37 0 63 -28q14 -14 62.5 -66.5t93.5 -110t45 -81.5q0 -55 -158 -56q-6 4 -24.5 23.5t-42 51.5t-42.5 67q-6 -10 -27.5 -44t-50 -65t-51.5 -31q-106 0 -153 60zM281 305q0 -76 14 -107.5t53 -31.5q40 0 58 20q4 47 4 267 q-20 18 -56 18q-37 0 -55 -36t-18 -130z" />
<glyph unicode="&#xe3;" horiz-adv-x="694" d="M35 1251q51 84 124 127t134 43q29 0 47.5 -11t40.5 -34q23 -23 39 -33t41 -10q35 0 52.5 10.5t35.5 30.5q6 8 15.5 15.5t19.5 7.5q18 0 34.5 -29t27 -58.5t12.5 -39.5q0 -4 -39 -44t-92.5 -74t-110.5 -34q-37 0 -56.5 12.5t-37.5 34.5q-16 20 -29.5 29.5t-38.5 9.5 q-39 0 -76 -41q-20 -25 -34 -24q-29 0 -52.5 24.5t-38 52t-18.5 35.5zM41 299q0 193 65.5 265.5t172.5 72.5q31 0 68.5 -7t62.5 -24v142q0 41 -19.5 59t-66.5 18q-57 0 -127 -12t-121 -31q-31 59 -31 131q0 20 8 41t21 31q27 20 110.5 39.5t194.5 19.5q141 0 199.5 -56 t58.5 -193v-97q0 -502 -10 -653q-111 -66 -295 -65q-88 0 -150.5 22.5t-101.5 93t-39 203.5zM281 305q0 -76 14 -107.5t53 -31.5q40 0 58 20q4 47 4 267q-20 18 -56 18q-37 0 -55 -36t-18 -130z" />
<glyph unicode="&#xe4;" horiz-adv-x="694" d="M41 299q0 193 65.5 265.5t172.5 72.5q31 0 68.5 -7t62.5 -24v142q0 41 -19.5 59t-66.5 18q-57 0 -127 -12t-121 -31q-31 59 -31 131q0 20 8 41t21 31q27 20 110.5 39.5t194.5 19.5q141 0 199.5 -56t58.5 -193v-97q0 -502 -10 -653q-111 -66 -295 -65q-88 0 -150.5 22.5 t-101.5 93t-39 203.5zM102 1282q0 70 29.5 111t89.5 41q59 0 81.5 -31t22.5 -111t-30.5 -123t-88.5 -43q-51 0 -77.5 35t-26.5 121zM281 305q0 -76 14 -107.5t53 -31.5q40 0 58 20q4 47 4 267q-20 18 -56 18q-37 0 -55 -36t-18 -130zM366 1282q0 70 31 111t90 41 q57 0 78.5 -31t21.5 -111t-29.5 -123t-84.5 -43q-54 0 -80.5 35t-26.5 121z" />
<glyph unicode="&#xe5;" horiz-adv-x="694" d="M41 299q0 193 65.5 265.5t172.5 72.5q31 0 68.5 -7t62.5 -24v142q0 41 -19.5 59t-66.5 18q-57 0 -127 -12t-121 -31q-31 59 -31 131q0 20 8 41t21 31q27 20 110.5 39.5t194.5 19.5q141 0 199.5 -56t58.5 -193v-97q0 -502 -10 -653q-111 -66 -295 -65q-88 0 -150.5 22.5 t-101.5 93t-39 203.5zM133 1296q0 215 221 215q111 0 159 -46t48 -165q0 -217 -219 -217q-109 0 -159 46.5t-50 166.5zM281 305q0 -76 14 -107.5t53 -31.5q40 0 58 20q4 47 4 267q-20 18 -56 18q-37 0 -55 -36t-18 -130zM288 1296q0 -66 58 -65q61 -1 61 67q0 66 -53 66 q-66 0 -66 -68z" />
<glyph unicode="&#xe6;" horiz-adv-x="1099" d="M41 319q0 193 65.5 276t163.5 83q92 0 140 -31v119q0 39 -27 58.5t-72 19.5q-137 0 -235 -53q-18 31 -24.5 70.5t-6.5 66.5q0 16 8 34.5t17 24.5q29 23 111.5 40t211.5 17q70 0 112 -18t62 -59q39 45 91.5 61t123.5 16q262 0 262 -333q0 -178 -28 -291q-80 -10 -170 -10 q-106 0 -189 14q2 -98 12.5 -145.5t33 -62.5t67.5 -15q70 0 126 14t116 43q8 -29 13 -87t5 -114q0 -16 -40 -33.5t-107.5 -29.5t-143.5 -12q-115 0 -172 43q-88 -45 -235 -45q-92 0 -152.5 20t-99.5 95t-39 224zM281 326q0 -70 5 -104t18 -45t40 -11q16 0 36.5 5t29.5 15 v310q-23 14 -56 14q-74 0 -73 -184zM659 600q61 -14 115 -14q27 0 39 2q10 31 10 106q0 94 -15 124t-56 30q-43 0 -64.5 -59.5t-28.5 -188.5z" />
<glyph unicode="&#xe7;" horiz-adv-x="598" d="M41 489q0 229 52 352.5t131 163t182 39.5q76 0 122.5 -27.5t46.5 -76.5q0 -61 -20 -121q-27 10 -62.5 18.5t-66.5 8.5q-68 0 -107.5 -69.5t-39.5 -282.5q0 -123 12 -189.5t41.5 -95.5t85.5 -29q33 0 69.5 8.5t61.5 20.5q18 -74 18 -119q0 -51 -62.5 -80.5t-160.5 -29.5 h-8l-19 -97h33q43 0 74 -36.5t31 -108.5q0 -80 -50.5 -135.5t-134.5 -55.5q-31 0 -58.5 7.5t-43.5 14.5t-21 9q2 14 13.5 55t19.5 50q6 6 24.5 -3.5t34 -16.5t35.5 -7q57 0 58 65q0 33 -12.5 49.5t-40.5 16.5q-39 0 -62.5 -5t-30.5 -7l37 219q-96 31 -139 141.5t-43 353.5z " />
<glyph unicode="&#xe8;" horiz-adv-x="706" d="M41 463q0 233 48 362t126 174t186 45q262 0 263 -333q0 -178 -29 -291q-117 -25 -356 -29q6 -104 34.5 -147t100.5 -43q98 0 217 57q18 -61 18 -152q0 -59 -83 -92.5t-208 -33.5q-154 0 -235.5 105t-81.5 378zM188 1305q10 61 40 113t65 52q18 0 118.5 -87t149.5 -154 q-2 -10 -12 -40t-29.5 -57.5t-46.5 -27.5q-20 2 -134 81t-151 120zM279 569q115 0 153 19q10 31 10 106q0 94 -14 124t-55 30q-47 0 -68.5 -67.5t-25.5 -211.5z" />
<glyph unicode="&#xe9;" horiz-adv-x="706" d="M41 463q0 233 48 362t126 174t186 45q262 0 263 -333q0 -178 -29 -291q-117 -25 -356 -29q6 -104 34.5 -147t100.5 -43q98 0 217 57q18 -61 18 -152q0 -59 -83 -92.5t-208 -33.5q-154 0 -235.5 105t-81.5 378zM189 1249q33 45 91 101.5t111.5 98.5t65.5 42 q35 0 64.5 -52.5t40.5 -115.5q-35 -41 -151 -119t-134 -80q-27 0 -46.5 28t-29.5 57.5t-12 39.5zM279 569q115 0 153 19q10 31 10 106q0 94 -14 124t-55 30q-47 0 -68.5 -67.5t-25.5 -211.5z" />
<glyph unicode="&#xea;" horiz-adv-x="706" d="M41 463q0 233 48 362t126 174t186 45q262 0 263 -333q0 -178 -29 -291q-117 -25 -356 -29q6 -104 34.5 -147t100.5 -43q98 0 217 57q18 -61 18 -152q0 -59 -83 -92.5t-208 -33.5q-154 0 -235.5 105t-81.5 378zM80 1188l239 274q20 6 46 6q37 0 63 -28q14 -14 62.5 -66.5 t93.5 -110t45 -81.5q0 -55 -158 -56q-6 4 -24.5 23.5t-42 51.5t-42.5 67q-6 -10 -27.5 -44t-50 -65t-51.5 -31q-106 0 -153 60zM279 569q115 0 153 19q10 31 10 106q0 94 -14 124t-55 30q-47 0 -68.5 -67.5t-25.5 -211.5z" />
<glyph unicode="&#xeb;" horiz-adv-x="706" d="M41 463q0 233 48 362t126 174t186 45q262 0 263 -333q0 -178 -29 -291q-117 -25 -356 -29q6 -104 34.5 -147t100.5 -43q98 0 217 57q18 -61 18 -152q0 -59 -83 -92.5t-208 -33.5q-154 0 -235.5 105t-81.5 378zM111 1282q0 70 29.5 111t89.5 41q59 0 81.5 -31t22.5 -111 t-30.5 -123t-88.5 -43q-51 0 -77.5 35t-26.5 121zM279 569q115 0 153 19q10 31 10 106q0 94 -14 124t-55 30q-47 0 -68.5 -67.5t-25.5 -211.5zM375 1282q0 70 31 111t90 41q57 0 78.5 -31t21.5 -111t-29.5 -123t-84.5 -43q-54 0 -80.5 35t-26.5 121z" />
<glyph unicode="&#xec;" horiz-adv-x="368" d="M18 1305q10 61 40 113t65 52q18 0 118.5 -87t149.5 -154q-2 -10 -12 -40t-29.5 -57.5t-46.5 -27.5q-20 2 -134 81t-151 120zM68 0v924q0 51 18 70.5t61 24.5t152 5v-983q0 -23 -10 -30t-67.5 -9t-153.5 -2z" />
<glyph unicode="&#xed;" horiz-adv-x="368" d="M19 1249q33 45 91 101.5t111.5 98.5t65.5 42q35 0 64.5 -52.5t40.5 -115.5q-35 -41 -151 -119t-134 -80q-27 0 -46.5 28t-29.5 57.5t-12 39.5zM68 0v924q0 51 18 70.5t61 24.5t152 5v-983q0 -23 -10 -30t-67.5 -9t-153.5 -2z" />
<glyph unicode="&#xee;" horiz-adv-x="368" d="M-90 1188l239 274q20 6 46 6q37 0 63 -28q14 -14 62.5 -66.5t93.5 -110t45 -81.5q0 -55 -158 -56q-6 4 -24.5 23.5t-42 51.5t-42.5 67q-6 -10 -27.5 -44t-50 -65t-51.5 -31q-106 0 -153 60zM68 0v924q0 51 18 70.5t61 24.5t152 5v-983q0 -23 -10 -30t-67.5 -9t-153.5 -2z " />
<glyph unicode="&#xef;" horiz-adv-x="368" d="M-59 1282q0 70 29.5 111t89.5 41q59 0 81.5 -31t22.5 -111t-30.5 -123t-88.5 -43q-51 0 -77.5 35t-26.5 121zM68 0v924q0 51 18 70.5t61 24.5t152 5v-983q0 -23 -10 -30t-67.5 -9t-153.5 -2zM205 1282q0 70 31 111t90 41q57 0 78.5 -31t21.5 -111t-29.5 -123t-84.5 -43 q-54 0 -80.5 35t-26.5 121z" />
<glyph unicode="&#xf0;" horiz-adv-x="790" d="M41 528q0 162 39 279t107.5 177t156.5 60q82 0 129 -32q-31 100 -65 166l-185 -72q-23 55 -38 98t-15 66q0 25 20 33l101 38l-82 82q27 45 74 74t94 29q53 0 82 -35q41 -41 59 -64l121 48q23 -55 38 -99.5t15 -64.5q0 -25 -20 -31l-47 -18q123 -262 123 -670 q0 -291 -72 -451.5t-270 -160.5q-129 0 -209 52t-118 172t-38 324zM274 485q0 -319 125 -319q74 0 95.5 96t21.5 307q0 133 -8 222q-39 53 -98 53q-70 0 -103 -105.5t-33 -253.5z" />
<glyph unicode="&#xf1;" horiz-adv-x="741" d="M59 1251q51 84 124 127t134 43q29 0 47.5 -11t40.5 -34q23 -23 39 -33t41 -10q35 0 52.5 10.5t35.5 30.5q6 8 15.5 15.5t19.5 7.5q18 0 34.5 -29t27 -58.5t12.5 -39.5q0 -4 -39 -44t-92.5 -74t-110.5 -34q-37 0 -56.5 12.5t-37.5 34.5q-16 20 -29.5 29.5t-38.5 9.5 q-39 0 -76 -41q-20 -25 -34 -24q-29 0 -52.5 24.5t-38 52t-18.5 35.5zM68 0v977q53 25 148 46t169 21q160 0 227.5 -57t67.5 -207v-739q0 -23 -11.5 -30t-69.5 -9t-155 -2v709q0 84 -13 112.5t-54 28.5q-45 0 -82 -25v-784q0 -23 -11.5 -30t-66.5 -9t-149 -2z" />
<glyph unicode="&#xf2;" horiz-adv-x="741" d="M41 514q0 530 340 530q115 0 183.5 -46t102 -158.5t33.5 -317.5q0 -289 -82.5 -415.5t-252.5 -126.5q-121 0 -188.5 39.5t-101.5 154.5t-34 340zM204 1305q10 61 40 113t65 52q18 0 118.5 -87t149.5 -154q-2 -10 -12 -40t-29.5 -57.5t-46.5 -27.5q-20 2 -134 81t-151 120 zM291 516q0 -154 9 -228.5t25.5 -97t45.5 -22.5q24 0 40.5 23.5t28 100.5t11.5 224q0 150 -6.5 220.5t-22.5 95t-49 24.5q-39 0 -60.5 -69.5t-21.5 -270.5z" />
<glyph unicode="&#xf3;" horiz-adv-x="741" d="M41 514q0 530 340 530q115 0 183.5 -46t102 -158.5t33.5 -317.5q0 -289 -82.5 -415.5t-252.5 -126.5q-121 0 -188.5 39.5t-101.5 154.5t-34 340zM205 1249q33 45 91 101.5t111.5 98.5t65.5 42q35 0 64.5 -52.5t40.5 -115.5q-35 -41 -151 -119t-134 -80q-27 0 -46.5 28 t-29.5 57.5t-12 39.5zM291 516q0 -154 9 -228.5t25.5 -97t45.5 -22.5q24 0 40.5 23.5t28 100.5t11.5 224q0 150 -6.5 220.5t-22.5 95t-49 24.5q-39 0 -60.5 -69.5t-21.5 -270.5z" />
<glyph unicode="&#xf4;" horiz-adv-x="741" d="M41 514q0 530 340 530q115 0 183.5 -46t102 -158.5t33.5 -317.5q0 -289 -82.5 -415.5t-252.5 -126.5q-121 0 -188.5 39.5t-101.5 154.5t-34 340zM96 1188l239 274q20 6 46 6q37 0 63 -28q14 -14 62.5 -66.5t93.5 -110t45 -81.5q0 -55 -158 -56q-6 4 -24.5 23.5t-42 51.5 t-42.5 67q-6 -10 -27.5 -44t-50 -65t-51.5 -31q-106 0 -153 60zM291 516q0 -154 9 -228.5t25.5 -97t45.5 -22.5q24 0 40.5 23.5t28 100.5t11.5 224q0 150 -6.5 220.5t-22.5 95t-49 24.5q-39 0 -60.5 -69.5t-21.5 -270.5z" />
<glyph unicode="&#xf5;" horiz-adv-x="741" d="M41 514q0 530 340 530q115 0 183.5 -46t102 -158.5t33.5 -317.5q0 -289 -82.5 -415.5t-252.5 -126.5q-121 0 -188.5 39.5t-101.5 154.5t-34 340zM59 1251q51 84 124 127t134 43q29 0 47.5 -11t40.5 -34q23 -23 39 -33t41 -10q35 0 52.5 10.5t35.5 30.5q6 8 15.5 15.5 t19.5 7.5q18 0 34.5 -29t27 -58.5t12.5 -39.5q0 -4 -39 -44t-92.5 -74t-110.5 -34q-37 0 -56.5 12.5t-37.5 34.5q-16 20 -29.5 29.5t-38.5 9.5q-39 0 -76 -41q-20 -25 -34 -24q-29 0 -52.5 24.5t-38 52t-18.5 35.5zM291 516q0 -154 9 -228.5t25.5 -97t45.5 -22.5 q24 0 40.5 23.5t28 100.5t11.5 224q0 150 -6.5 220.5t-22.5 95t-49 24.5q-39 0 -60.5 -69.5t-21.5 -270.5z" />
<glyph unicode="&#xf6;" horiz-adv-x="741" d="M41 514q0 530 340 530q115 0 183.5 -46t102 -158.5t33.5 -317.5q0 -289 -82.5 -415.5t-252.5 -126.5q-121 0 -188.5 39.5t-101.5 154.5t-34 340zM127 1282q0 70 29.5 111t89.5 41q59 0 81.5 -31t22.5 -111t-30.5 -123t-88.5 -43q-51 0 -77.5 35t-26.5 121zM291 516 q0 -154 9 -228.5t25.5 -97t45.5 -22.5q24 0 40.5 23.5t28 100.5t11.5 224q0 150 -6.5 220.5t-22.5 95t-49 24.5q-39 0 -60.5 -69.5t-21.5 -270.5zM391 1282q0 70 31 111t90 41q57 0 78.5 -31t21.5 -111t-29.5 -123t-84.5 -43q-54 0 -80.5 35t-26.5 121z" />
<glyph unicode="&#xf7;" d="M51 479q0 117 6 157t35 40h676q0 -117 -6 -157t-35 -40h-676zM287 248q0 55 32.5 92t90.5 37q70 0 98.5 -34t28.5 -95q0 -53 -35 -89t-92 -36q-68 0 -95.5 31.5t-27.5 93.5zM287 897q0 53 32.5 90t90.5 37q68 0 97.5 -33t29.5 -94q0 -53 -35 -90t-92 -37q-68 0 -95.5 32 t-27.5 95z" />
<glyph unicode="&#xf8;" horiz-adv-x="815" d="M6 31q0 23 96 182q-25 115 -24 301q0 530 340 530q76 0 130 -18t91 -61q41 70 66 104q10 -2 39.5 -14.5t58 -31.5t28.5 -44q1 -28 -108 -227q14 -88 14 -230q0 -289 -83 -415.5t-253 -126.5q-74 0 -126 13t-89 48q-39 -76 -57 -102q-41 6 -82 33.5t-41 58.5zM328 500 l147 278q-8 43 -23.5 57.5t-41.5 14.5q-39 0 -60.5 -67.5t-21.5 -266.5v-16zM342 252q8 -51 23.5 -67.5t42.5 -16.5q24 0 40.5 23.5t27.5 100.5t11 224v8q-92 -174 -145 -272z" />
<glyph unicode="&#xf9;" horiz-adv-x="735" d="M59 289v694q0 23 10.5 30t69 9t156.5 2v-750q0 -53 14.5 -76.5t57.5 -23.5q49 0 77 27v782q0 23 9.5 30t65.5 9t153 2v-967q-55 -33 -136 -55t-167 -22q-174 0 -242 76.5t-68 232.5zM200 1305q10 61 40 113t65 52q18 0 118.5 -87t149.5 -154q-2 -10 -12 -40t-29.5 -57.5 t-46.5 -27.5q-20 2 -134 81t-151 120z" />
<glyph unicode="&#xfa;" horiz-adv-x="735" d="M59 289v694q0 23 10.5 30t69 9t156.5 2v-750q0 -53 14.5 -76.5t57.5 -23.5q49 0 77 27v782q0 23 9.5 30t65.5 9t153 2v-967q-55 -33 -136 -55t-167 -22q-174 0 -242 76.5t-68 232.5zM201 1249q33 45 91 101.5t111.5 98.5t65.5 42q35 0 64.5 -52.5t40.5 -115.5 q-35 -41 -151 -119t-134 -80q-27 0 -46.5 28t-29.5 57.5t-12 39.5z" />
<glyph unicode="&#xfb;" horiz-adv-x="735" d="M59 289v694q0 23 10.5 30t69 9t156.5 2v-750q0 -53 14.5 -76.5t57.5 -23.5q49 0 77 27v782q0 23 9.5 30t65.5 9t153 2v-967q-55 -33 -136 -55t-167 -22q-174 0 -242 76.5t-68 232.5zM92 1188l239 274q20 6 46 6q37 0 63 -28q14 -14 62.5 -66.5t93.5 -110t45 -81.5 q0 -55 -158 -56q-6 4 -24.5 23.5t-42 51.5t-42.5 67q-6 -10 -27.5 -44t-50 -65t-51.5 -31q-106 0 -153 60z" />
<glyph unicode="&#xfc;" horiz-adv-x="735" d="M59 289v694q0 23 10.5 30t69 9t156.5 2v-750q0 -53 14.5 -76.5t57.5 -23.5q49 0 77 27v782q0 23 9.5 30t65.5 9t153 2v-967q-55 -33 -136 -55t-167 -22q-174 0 -242 76.5t-68 232.5zM123 1282q0 70 29.5 111t89.5 41q59 0 81.5 -31t22.5 -111t-30.5 -123t-88.5 -43 q-51 0 -77.5 35t-26.5 121zM387 1282q0 70 31 111t90 41q57 0 78.5 -31t21.5 -111t-29.5 -123t-84.5 -43q-54 0 -80.5 35t-26.5 121z" />
<glyph unicode="&#xfd;" horiz-adv-x="698" d="M-23 -293q0 31 8.5 65.5t20.5 57.5q18 -14 57 -24.5t82 -10.5q41 0 67 38t38 134l-225 998q-4 25 -5 28q0 16 17.5 22.5t72 7.5t138.5 1l61 -358q18 -111 32.5 -242t18.5 -170q2 39 15.5 169t27.5 243l41 295q4 35 17.5 46t55.5 14t169 3l-229 -1071q-29 -137 -65 -211 t-89 -105.5t-137 -31.5q-107 0 -148 26.5t-41 75.5zM182 1249q33 45 91 101.5t111.5 98.5t65.5 42q35 0 64.5 -52.5t40.5 -115.5q-35 -41 -151 -119t-134 -80q-27 0 -46.5 28t-29.5 57.5t-12 39.5z" />
<glyph unicode="&#xfe;" horiz-adv-x="747" d="M68 -309v1714q0 51 18 70.5t60 24.5t149 5v-467q49 4 76 4q161 0 245 -89t84 -324q0 -369 -78.5 -509t-189.5 -140q-90 0 -137 38v-409q-49 -18 -135 -19q-59 0 -75.5 19.5t-16.5 81.5zM295 209q10 -25 24.5 -32t34.5 -7q41 0 66.5 90t25.5 354q0 106 -9 155.5t-27.5 64 t-55.5 14.5q-29 0 -59 -31v-608z" />
<glyph unicode="&#xff;" horiz-adv-x="698" d="M-23 -293q0 31 8.5 65.5t20.5 57.5q18 -14 57 -24.5t82 -10.5q41 0 67 38t38 134l-225 998q-4 25 -5 28q0 16 17.5 22.5t72 7.5t138.5 1l61 -358q18 -111 32.5 -242t18.5 -170q2 39 15.5 169t27.5 243l41 295q4 35 17.5 46t55.5 14t169 3l-229 -1071q-29 -137 -65 -211 t-89 -105.5t-137 -31.5q-107 0 -148 26.5t-41 75.5zM104 1282q0 70 29.5 111t89.5 41q59 0 81.5 -31t22.5 -111t-30.5 -123t-88.5 -43q-51 0 -77.5 35t-26.5 121zM368 1282q0 70 31 111t90 41q57 0 78.5 -31t21.5 -111t-29.5 -123t-84.5 -43q-54 0 -80.5 35t-26.5 121z" />
<glyph unicode="&#x152;" horiz-adv-x="1124" d="M31 721q0 272 41 432t125 229.5t219 69.5q125 0 198 -51q6 33 39 33h451q0 -78 -2 -127.5t-10.5 -62.5t-28.5 -13h-264v-350h250q0 -76 -2.5 -126t-9.5 -66.5t-27 -16.5h-211v-469h291q0 -82 -2.5 -131t-9.5 -60.5t-29 -11.5h-437v47q-78 -63 -213 -63q-139 0 -218 62.5 t-114.5 221t-35.5 453.5zM291 674q0 -174 9 -272.5t34.5 -147.5t77.5 -49q51 0 77.5 53t37 163.5t10.5 303.5q0 201 -8.5 305.5t-34 155.5t-80.5 51q-47 0 -74 -56.5t-38 -178t-11 -328.5z" />
<glyph unicode="&#x153;" horiz-adv-x="1132" d="M41 514q0 272 86 400t254 128q74 0 127 -17t90 -56q45 43 102.5 59t128.5 16q262 0 263 -333q0 -178 -29 -291q-117 -25 -356 -29q2 -84 12 -124t32.5 -53t65.5 -13q70 0 126 14t116 43q8 -29 13 -87t5 -114q0 -16 -40 -34.5t-107.5 -30.5t-143.5 -12q-70 0 -123 15 t-92 54q-78 -70 -206 -69q-121 0 -188.5 39.5t-101.5 154.5t-34 340zM291 516q0 -154 9 -228.5t25.5 -97t45.5 -22.5q24 0 40.5 23.5t28 100.5t11.5 224q0 150 -6.5 218.5t-22.5 91t-49 22.5q-39 0 -60.5 -66.5t-21.5 -265.5zM707 569q115 0 153 19q10 31 10 106 q0 94 -15 124t-56 30q-45 0 -66.5 -67.5t-25.5 -211.5z" />
<glyph unicode="&#x178;" horiz-adv-x="753" d="M12 1399q-6 18 5.5 24.5t77 8.5t177.5 2l60 -269q16 -72 34.5 -196.5t24.5 -198.5q6 72 25.5 198t36.5 199l49 226q6 23 19.5 30t69.5 9t154 2l-249 -836v-557q0 -23 -9.5 -30t-65.5 -9t-153 -2v590zM133 1692q0 70 29.5 111t89.5 41q59 0 81.5 -31t22.5 -111t-30.5 -123 t-88.5 -43q-51 0 -77.5 35t-26.5 121zM397 1692q0 70 31 111t90 41q57 0 78.5 -31t21.5 -111t-29.5 -123t-84.5 -43q-54 0 -80.5 35t-26.5 121z" />
<glyph unicode="&#x2c6;" horiz-adv-x="753" d="M103 1188l239 274q20 6 46 6q37 0 63 -28q14 -14 62.5 -66.5t93.5 -110t45 -81.5q0 -55 -158 -56q-6 4 -24.5 23.5t-42 51.5t-42.5 67q-6 -10 -27.5 -44t-50 -65t-51.5 -31q-106 0 -153 60z" />
<glyph unicode="&#x2dc;" horiz-adv-x="827" d="M102 1251q51 84 124 127t134 43q29 0 47.5 -11t40.5 -34q23 -23 39 -33t41 -10q35 0 52.5 10.5t35.5 30.5q6 8 15.5 15.5t19.5 7.5q18 0 34.5 -29t27 -58.5t12.5 -39.5q0 -4 -39 -44t-92.5 -74t-110.5 -34q-37 0 -56.5 12.5t-37.5 34.5q-16 20 -29.5 29.5t-38.5 9.5 q-39 0 -76 -41q-20 -25 -34 -24q-29 0 -52.5 24.5t-38 52t-18.5 35.5z" />
<glyph unicode="&#x2000;" horiz-adv-x="960" />
<glyph unicode="&#x2001;" horiz-adv-x="1921" />
<glyph unicode="&#x2002;" horiz-adv-x="960" />
<glyph unicode="&#x2003;" horiz-adv-x="1921" />
<glyph unicode="&#x2004;" horiz-adv-x="640" />
<glyph unicode="&#x2005;" horiz-adv-x="480" />
<glyph unicode="&#x2006;" horiz-adv-x="320" />
<glyph unicode="&#x2007;" horiz-adv-x="320" />
<glyph unicode="&#x2008;" horiz-adv-x="240" />
<glyph unicode="&#x2009;" horiz-adv-x="384" />
<glyph unicode="&#x200a;" horiz-adv-x="106" />
<glyph unicode="&#x2010;" horiz-adv-x="540" d="M61 479q0 117 6.5 157t34.5 40h377q0 -117 -6 -157t-35 -40h-377z" />
<glyph unicode="&#x2011;" horiz-adv-x="540" d="M61 479q0 117 6.5 157t34.5 40h377q0 -117 -6 -157t-35 -40h-377z" />
<glyph unicode="&#x2012;" horiz-adv-x="540" d="M61 479q0 117 6.5 157t34.5 40h377q0 -117 -6 -157t-35 -40h-377z" />
<glyph unicode="&#x2013;" horiz-adv-x="839" d="M61 479q0 117 6.5 157t34.5 40h676q0 -117 -6 -157t-35 -40h-676z" />
<glyph unicode="&#x2014;" horiz-adv-x="1433" d="M12 479q0 117 6.5 157t34.5 40h1368q0 -117 -6 -157t-35 -40h-1368z" />
<glyph unicode="&#x2018;" horiz-adv-x="393" d="M59 1317q0 78 36 151.5t82 120.5t71 47q33 0 54.5 -12t29.5 -47q-31 -53 -39 -78.5t-17 -77.5q33 -18 45.5 -46.5t12.5 -74.5q0 -55 -37 -94t-92 -39q-70 0 -108 39t-38 111z" />
<glyph unicode="&#x2019;" horiz-adv-x="393" d="M59 1505q0 55 38 94t93 39q70 0 107 -38.5t37 -110.5q0 -78 -36 -151.5t-81 -121t-70 -47.5q-34 0 -55.5 12.5t-30.5 47.5q33 53 40.5 78.5t15.5 76.5q-33 18 -45.5 47t-12.5 74z" />
<glyph unicode="&#x201a;" horiz-adv-x="380" d="M59 98q0 55 38 94t93 39q70 0 107 -38.5t37 -110.5q0 -78 -36 -151.5t-81 -121t-70 -47.5q-34 0 -55.5 12.5t-30.5 47.5q33 53 40.5 78.5t15.5 76.5q-33 18 -45.5 47t-12.5 74z" />
<glyph unicode="&#x201c;" horiz-adv-x="729" d="M59 1317q0 78 36 151.5t82 120.5t71 47q33 0 54.5 -12t29.5 -47q-31 -53 -39 -78.5t-17 -77.5q33 -18 45.5 -46.5t12.5 -74.5q0 -55 -37 -94t-92 -39q-70 0 -108 39t-38 111zM395 1317q0 78 36 151.5t81 120.5t70 47q35 0 56 -12t30 -47q-31 -53 -39 -78.5t-17 -77.5 q33 -18 45.5 -46.5t12.5 -74.5q0 -55 -38 -94t-93 -39q-70 0 -107 39t-37 111z" />
<glyph unicode="&#x201d;" horiz-adv-x="729" d="M59 1505q0 55 38 94t93 39q70 0 107 -38.5t37 -110.5q0 -78 -36 -151.5t-81 -121t-70 -47.5q-34 0 -55.5 12.5t-30.5 47.5q33 53 40.5 78.5t15.5 76.5q-33 18 -45.5 47t-12.5 74zM395 1505q0 55 37 94t92 39q70 0 108 -38.5t38 -110.5q0 -78 -36 -151.5t-82 -121 t-71 -47.5q-32 0 -53.5 12.5t-30.5 47.5q33 53 40 78.5t16 76.5q-33 18 -45.5 47t-12.5 74z" />
<glyph unicode="&#x201e;" horiz-adv-x="718" d="M59 98q0 55 38 94t93 39q70 0 107 -38.5t37 -110.5q0 -78 -36 -151.5t-81 -121t-70 -47.5q-34 0 -55.5 12.5t-30.5 47.5q33 53 40.5 78.5t15.5 76.5q-33 18 -45.5 47t-12.5 74zM395 98q0 55 37 94t92 39q70 0 108 -38.5t38 -110.5q0 -78 -36 -151.5t-82 -121t-71 -47.5 q-32 0 -53.5 12.5t-30.5 47.5q33 53 40 78.5t16 76.5q-33 18 -45.5 47t-12.5 74z" />
<glyph unicode="&#x2022;" horiz-adv-x="481" d="M59 586q0 78 49.5 132t133.5 54q98 0 139 -47t41 -139q0 -78 -48 -130.5t-132 -52.5q-101 0 -142 45.5t-41 137.5z" />
<glyph unicode="&#x2026;" horiz-adv-x="1148" d="M53 131q0 61 40 104.5t106 43.5q78 0 110.5 -38t32.5 -110q0 -61 -38 -103t-105 -42q-80 0 -113 35.5t-33 109.5zM430 131q0 61 40 104.5t106 43.5q78 0 110.5 -38t32.5 -110q0 -61 -38 -103t-105 -42q-80 0 -113 35.5t-33 109.5zM809 131q0 61 40 104.5t106 43.5 q78 0 110.5 -38t32.5 -110q0 -61 -38 -103t-105 -42q-80 0 -113 35.5t-33 109.5z" />
<glyph unicode="&#x202f;" horiz-adv-x="384" />
<glyph unicode="&#x2039;" horiz-adv-x="481" d="M12 512q0 41 64.5 154.5t134.5 220t92 137.5q39 0 68.5 -25.5t48 -55.5t18.5 -34q0 -47 -48 -135t-99 -163.5t-68 -98.5q16 -20 68.5 -93t100.5 -158t48 -134q0 -4 -18.5 -37t-48 -61.5t-68.5 -28.5q-22 31 -92 136.5t-135.5 220t-65.5 155.5z" />
<glyph unicode="&#x203a;" horiz-adv-x="481" d="M41 127q0 49 48 134t100.5 158t68.5 93q-16 23 -67.5 98.5t-99.5 163.5t-48 135q0 35 29.5 60.5t62.5 39t43 15.5q23 -31 92.5 -137.5t134 -220t64.5 -154.5t-64.5 -155.5t-134 -220t-92.5 -136.5q0 -2 -38 14.5t-68.5 44t-30.5 68.5z" />
<glyph unicode="&#x205f;" horiz-adv-x="480" />
<glyph unicode="&#x20ac;" d="M20 377q0 109 15.5 148.5t68.5 39.5h84v4q0 63 2 95h-170q0 109 15.5 148.5t68.5 39.5h107q74 391 381 391q115 0 162 -26.5t47 -61.5q0 -47 -9.5 -87t-23.5 -62q-16 12 -51 21t-68 9q-55 0 -105 -41t-81 -143h242q0 -109 -15.5 -148.5t-68.5 -39.5h-187q-2 -25 -2 -80 v-19h215q0 -109 -15.5 -148.5t-68.5 -39.5h-123q12 -104 44 -139t100 -35q104 -1 159 26q29 -57 29 -139q0 -41 -66.5 -74.5t-168.5 -33.5q-106 0 -174 31.5t-110 117.5t-56 246h-177z" />
<glyph unicode="&#x2122;" horiz-adv-x="970" d="M49 1337v78q0 12 8.5 15.5t10.5 3.5h360v-78q0 -12 -8 -15.5t-10 -3.5h-115v-538q0 -10 -4 -13.5t-29.5 -4.5t-68.5 -1v557h-144zM481 780v635q0 4 4 11.5t17 7.5h76l75 -230l27 -96q0 6 5 32.5t17 61.5l64 213q4 12 7 15.5t11 3.5h86v-635q0 -10 -5 -13.5t-30.5 -4.5 t-70.5 -1l4 221q2 70 12.5 143t14.5 93l-2 2q-27 -121 -48 -172l-43 -125q-2 -6 -10 -6h-43l-45 131l-47 172l-2 -2q4 -20 14.5 -93t12.5 -140l2 -205q0 -10 -6.5 -13.5t-31 -4.5t-65.5 -1z" />
<glyph unicode="&#x25fc;" horiz-adv-x="1024" d="M0 0v1024h1024v-1024h-1024z" />
<glyph unicode="&#xfb03;" horiz-adv-x="1216" d="M10 836q0 98 2 133t13.5 45t40.5 10h67v131q0 203 96.5 275.5t227.5 72.5q113 0 200 -51q92 59 261 59q268 0 268 -129q0 -27 -6 -65.5t-17 -65.5q-45 27 -109.5 42.5t-125.5 15.5q-92 0 -134 -32t-42 -128v-125h106q0 -92 -3 -129t-10 -48t-28 -11h-65v-795 q0 -10 -7.5 -25.5t-33.5 -15.5h-187v836h-164v-795q0 -10 -7 -25.5t-31 -15.5h-189v836h-123zM360 1024h164v117q0 92 23 159q-33 12 -80 13q-106 0 -107 -127v-162zM920 0v924q0 51 18 70.5t61 24.5t152 5v-983q0 -23 -10.5 -30t-67.5 -9t-153 -2z" />
<glyph unicode="&#xfb04;" horiz-adv-x="1239" d="M10 836q0 98 2 133t13.5 45t40.5 10h67v131q0 203 96.5 275.5t227.5 72.5q104 0 198 -49q82 59 209 59q172 0 307 -83l-2 -3h2v-1386q0 -23 -10 -30t-65.5 -9t-151.5 -2v1303q-33 8 -63 8q-129 0 -129 -137v-150h104q0 -92 -3 -129t-10 -48t-28 -11h-63v-795 q0 -10 -7.5 -25.5t-33.5 -15.5h-187v836h-164v-795q0 -10 -7 -25.5t-31 -15.5h-189v836h-123zM360 1024h164v117q0 88 23 159q-33 12 -80 13q-106 0 -107 -127v-162z" />
</font>
</defs>
</svg>
