<?xml version="1.0" standalone="no"?>
<!DOCTYPE svg PUBLIC "-//W3C//DTD SVG 1.1//EN" "http://www.w3.org/Graphics/SVG/1.1/DTD/svg11.dtd" >
<svg xmlns="http://www.w3.org/2000/svg" xmlns:xlink="http://www.w3.org/1999/xlink" version="1.1">
<metadata></metadata>
<defs>
<font id="yanone_kaffeesatzlight" horiz-adv-x="897" >
<font-face units-per-em="2048" ascent="1638" descent="-410" />
<missing-glyph horiz-adv-x="364" />
<glyph unicode="&#xfb01;" horiz-adv-x="806" d="M23 942q0 33 1 52.5t7 24.5t20 5h133v133q0 154 50.5 232.5t122 102.5t165.5 24q90 0 143.5 -18.5t53.5 -47.5t-10 -55q-90 35 -187 35q-72 0 -124 -17.5t-87 -79t-35 -180.5v-129h185q0 -57 -4 -69.5t-23 -12.5h-158v-917q0 -6 -5 -15.5t-21 -9.5h-66v942h-161zM592 0 v977q0 33 16.5 40t75.5 7v-999q0 -14 -4 -18.5t-26.5 -5.5t-61.5 -1z" />
<glyph unicode="&#xfb02;" horiz-adv-x="827" d="M20 942q0 33 1.5 52.5t7.5 24.5t20 5h133v133q0 217 88 285.5t211 68.5q129 0 221 -51v-1435q0 -6 -4 -15.5t-20 -9.5h-68v1409q-55 20 -125 21q-57 0 -101 -14.5t-77 -74t-33 -180.5v-137h220q0 -57 -4.5 -69.5t-22.5 -12.5h-193v-917q0 -6 -4 -15.5t-20 -9.5h-68v942 h-162z" />
<glyph horiz-adv-x="0" />
<glyph unicode="&#xd;" horiz-adv-x="364" />
<glyph horiz-adv-x="0" />
<glyph horiz-adv-x="0" />
<glyph unicode=" "  horiz-adv-x="364" />
<glyph unicode="&#x09;" horiz-adv-x="364" />
<glyph unicode="&#xa0;" horiz-adv-x="364" />
<glyph unicode="!" horiz-adv-x="382" d="M113 72q0 35 21.5 59.5t55.5 24.5q37 0 58.5 -23.5t21.5 -60.5q0 -35 -22.5 -58.5t-57.5 -23.5q-38 0 -57.5 21.5t-19.5 60.5zM137 1421q0 18 22.5 22.5t92.5 4.5l-12 -1032q-2 -27 -21.5 -35t-71.5 -8z" />
<glyph unicode="&#x22;" horiz-adv-x="481" d="M76 1530q0 72 6 74q6 4 41 4q45 0 51 -2q4 -74 -8 -237t-21 -171q-2 -2 -23.5 -2h-29.5q-6 47 -11 153.5t-5 180.5zM305 1530q0 72 6 74q6 4 41 4q45 0 54 -2q2 -76 -10.5 -238t-20.5 -170q-2 -2 -23.5 -2h-29.5q-7 47 -12 153.5t-5 180.5z" />
<glyph unicode="#" d="M86 414q0 53 3 66.5t22 13.5h116l15 268h-156q0 53 3 66.5t22 13.5h135l8 155q2 18 16.5 21.5t69.5 3.5l-10 -180h245l9 155q2 16 17 20.5t69 4.5l-11 -180h152q0 -53 -3 -66.5t-22 -13.5h-131l-14 -268h170q0 -53 -3 -66.5t-22 -13.5h-149l-8 -170q-2 -18 -16.5 -21.5 t-69.5 -3.5l10 195h-246l-8 -170q-2 -16 -17.5 -20.5t-68.5 -4.5l10 195h-137zM311 494h246l14 268h-245z" />
<glyph unicode="$" d="M145 70q0 12 10.5 35.5t24.5 33.5q76 -63 230 -63q129 0 189 63.5t60 175.5q0 70 -31.5 128.5t-113.5 134.5l-229 208q-68 63 -100.5 120t-32.5 118q0 100 72.5 163.5t201.5 74.5v202q0 27 18.5 35t65.5 8v-243q72 -2 122 -15.5t75.5 -29t25.5 -21.5q0 -14 -7 -35.5 t-19 -34.5q-29 20 -87.5 36t-134.5 16q-113 0 -175 -39t-62 -119q0 -43 29.5 -88t82.5 -98l254 -230q78 -72 110 -139.5t32 -153.5q0 -135 -65.5 -220t-211.5 -103v-195q0 -27 -17.5 -35t-64.5 -8v234q-82 0 -138 16t-85 35.5t-29 32.5z" />
<glyph unicode="%" horiz-adv-x="1474" d="M137 1073q0 193 75 285t214 92q141 0 206.5 -83t65.5 -294q0 -188 -72.5 -282.5t-207.5 -94.5q-96 0 -156.5 29t-92.5 111t-32 237zM227 1063q0 -168 45 -229.5t142 -61.5q92 0 145 75t53 226q0 170 -45 234.5t-139 64.5q-98 0 -149.5 -71.5t-51.5 -237.5zM262 20 l877 1430q4 -2 17 -6t25.5 -14.5t12.5 -22.5q0 -4 -368.5 -603t-506.5 -820q-4 0 -18 4t-26.5 12t-12.5 20zM774 360q0 190 76 283.5t215 93.5q141 0 206.5 -83t65.5 -294q0 -186 -72.5 -281t-207.5 -95q-96 0 -156.5 28.5t-93.5 110.5t-33 237zM864 348q0 -168 45 -229.5 t142 -61.5q94 0 146 76t52 227q0 170 -45 233.5t-139 63.5q-98 0 -149.5 -71.5t-51.5 -237.5z" />
<glyph unicode="&#x26;" horiz-adv-x="1058" d="M80 352q0 121 69.5 221.5t172.5 157.5q-172 276 -172 432q0 147 94 215t248 68q82 0 148.5 -14.5t104 -35t37.5 -36.5q0 -35 -20 -66q-109 70 -264 70q-115 0 -184.5 -45t-69.5 -166q0 -129 158.5 -376t361.5 -480q43 113 43 268q0 158 -54.5 277t-138.5 176 q100 12 211 12q133 0 189 -4q2 -8 2 -41q0 -20 -16.5 -28.5t-65.5 -8.5l-168 2q47 -45 88 -142t41 -255q0 -195 -61 -334q121 -131 174 -164q-4 -23 -22.5 -48t-39.5 -25q-12 0 -57 40.5t-107 108.5q-113 -152 -327 -151q-209 0 -292 106.5t-83 265.5zM176 346 q0 -115 60.5 -196.5t212.5 -81.5q176 0 268 135q-199 227 -352 459q-82 -45 -135.5 -127t-53.5 -189z" />
<glyph unicode="'" horiz-adv-x="251" d="M76 1530q0 72 6 74q6 4 41 4q45 0 51 -2q4 -74 -8 -237t-21 -171q-2 -2 -23.5 -2h-29.5q-6 47 -11 153.5t-5 180.5z" />
<glyph unicode="(" horiz-adv-x="604" d="M145 662q0 299 77 519t169 344t115 124q18 0 28.5 -13.5t20.5 -48.5q-123 -135 -219 -365.5t-96 -566.5q0 -248 54 -451.5t126 -338.5t135 -207q-6 -29 -20.5 -46.5t-32.5 -17.5q-29 0 -119 138.5t-164 378t-74 551.5z" />
<glyph unicode=")" horiz-adv-x="604" d="M49 -342q113 137 214.5 392t101.5 614q0 328 -97.5 560t-218.5 363q8 33 18.5 47.5t30.5 14.5q23 0 114 -123t168 -343t77 -521q0 -305 -74 -545t-164 -381.5t-117 -141.5q-20 0 -34.5 17.5t-18.5 46.5z" />
<glyph unicode="*" horiz-adv-x="966" d="M45 1061q-2 39 24.5 66.5t49.5 17.5l293 -156v-10q0 -39 -31 -29zM160 596l243 281q10 10 19 10q16 0 31 -21l-205 -319q-11 -12 -21 -12q-16 0 -36.5 19t-30.5 42zM432 1374q-2 12 10.5 18.5t30.5 6.5q33 0 59 -15l-26 -344q-4 -25 -25 -24q-6 0 -22 4zM506 864 q0 16 31 27l229 -301q16 -20 -10.5 -44t-63.5 -28l-184 334q-2 4 -2 12zM543 975q0 18 20 26l324 146q14 -8 24.5 -28.5t10.5 -39.5q0 -25 -19 -30l-346 -105q-14 15 -14 31z" />
<glyph unicode="+" d="M92 535q0 53 4 68t21 15h291v293q0 16 16 20.5t70 4.5v-318h315q0 -53 -4 -68t-21 -15h-290v-291q0 -16 -15.5 -20.5t-70.5 -4.5v316h-316z" />
<glyph unicode="," horiz-adv-x="364" d="M98 -195q33 55 46.5 102.5t15.5 98.5q-37 23 -37 74q0 33 19.5 54.5t52.5 21.5q37 0 54 -20.5t17 -69.5q0 -57 -24.5 -126t-56 -118t-48.5 -49q-12 0 -24.5 9t-14.5 23z" />
<glyph unicode="-" horiz-adv-x="604" d="M92 535q0 53 4 68t23 15h391q0 -53 -4 -68t-21 -15h-393z" />
<glyph unicode="." horiz-adv-x="364" d="M111 74q0 35 20.5 58.5t54.5 23.5q39 0 59.5 -23.5t20.5 -58.5q0 -37 -21.5 -60.5t-58.5 -23.5q-75 0 -75 84z" />
<glyph unicode="/" horiz-adv-x="606" d="M20 -41l463 1579q6 20 22.5 24.5t80.5 4.5l-461 -1581q-6 -18 -23.5 -22.5t-81.5 -4.5z" />
<glyph unicode="0" d="M80 606q0 309 91 466t290 157q195 0 275.5 -144.5t80.5 -459.5q0 -324 -87 -482.5t-286 -158.5q-194 0 -279 149.5t-85 472.5zM176 590q0 -274 64.5 -397t201.5 -123q152 0 216.5 137t64.5 424q0 270 -57.5 392t-200.5 122q-154 0 -221.5 -140.5t-67.5 -414.5z" />
<glyph unicode="1" d="M80 74q0 8 132 11t204 3l28 1042q-14 0 -125.5 -21.5t-152.5 -29.5q-4 8 -9 31t-5 39q0 8 167.5 45t190.5 37q14 0 31 -8l-27 -1135h193q39 0 70.5 2t39.5 4q0 -94 -12 -94h-723q-2 13 -2 74z" />
<glyph unicode="2" d="M80 39q0 18 5 31.5t18.5 32t23.5 36.5q45 72 100.5 138.5t143.5 162.5q102 111 161.5 185.5t99.5 159.5t40 176q0 88 -42 133t-157 45q-111 0 -197 -23.5t-139 -58.5q-12 33 -12 71q0 18 46 42t127 41.5t181 17.5q117 0 180.5 -31t88 -87t24.5 -148q0 -102 -43 -196.5 t-108.5 -176.5t-174.5 -201q-82 -90 -139 -158.5t-106 -142.5h420q47 0 108.5 3t85.5 3q0 -33 -2 -63.5t-10 -30.5h-717q-6 19 -6 39z" />
<glyph unicode="3" d="M102 -117q0 33 15 72q45 -37 96 -53.5t127 -16.5q106 0 187 56.5t125 156t44 219.5q0 96 -46 148.5t-117.5 71t-176.5 22.5l-4 68q139 78 217 167t78 183q0 63 -43 112.5t-153 49.5q-113 0 -191 -21.5t-139 -62.5q-10 20 -10 69q0 23 43 47.5t122.5 41t184.5 16.5 q160 0 222 -65.5t62 -172.5q0 -190 -251 -368q133 -12 216 -85t83 -225t-56.5 -269.5t-161 -183t-241.5 -65.5q-74 0 -126 14.5t-79 35t-27 38.5z" />
<glyph unicode="4" d="M86 397q0 68 71.5 229.5t179 330.5t214.5 264q18 16 45 16q29 0 49 -14l-6 -801q68 0 118 1t66 1q0 -2 2 -10t2 -27q0 -53 -30 -53h-158v-297q0 -20 -3 -26.5t-25.5 -8.5t-63.5 -2v334h-438q-23 23 -23 63zM170 422h377l16 688q-117 -125 -233.5 -317.5t-159.5 -370.5z " />
<glyph unicode="5" d="M84 -123q0 47 12 76q80 -70 230 -70q201 0 288.5 136.5t87.5 369.5q0 184 -112.5 252t-265.5 68q-96 0 -155.5 -16.5t-64.5 -16.5l56 553h626q0 -57 -9 -71.5t-46 -14.5l-491 4l-39 -373q8 4 48 9t105 5q172 6 307.5 -75.5t135.5 -315.5q0 -289 -109.5 -445.5 t-361.5 -156.5q-76 0 -130.5 13.5t-83 33t-28.5 35.5z" />
<glyph unicode="6" d="M84 598q0 434 130 636t341 202q94 0 159.5 -15.5t65.5 -42.5q0 -37 -8 -65q-47 18 -94 26.5t-127 8.5q-102 0 -184 -71t-134.5 -218.5t-60.5 -368.5q51 100 135 152.5t199 52.5q145 0 230 -98.5t85 -298.5q0 -252 -96 -384t-295 -132q-143 0 -219 74.5t-101.5 205.5 t-25.5 336zM172 580q0 -246 54.5 -379t205.5 -133q143 0 221 109.5t78 297.5q0 168 -64.5 251t-185.5 83q-96 0 -176 -59.5t-133 -169.5z" />
<glyph unicode="7" d="M111 1229h737q-434 -674 -580 -1401q-94 0 -94 25q84 397 232.5 740t298.5 552h-56l-508 -2q-31 0 -30 86z" />
<glyph unicode="8" d="M88 371q0 133 78 241.5t194 161.5q-90 47 -135 82q-61 43 -92 108.5t-31 137.5q0 168 101.5 256t251.5 88q147 0 250.5 -70.5t103.5 -259.5q0 -121 -71.5 -205t-182.5 -147q76 -43 131 -92q68 -60 103.5 -130.5t35.5 -170.5q0 -180 -91 -284.5t-265 -104.5 q-190 0 -285.5 105.5t-95.5 283.5zM176 373q0 -135 75 -219t214 -84q129 0 200.5 81.5t71.5 219.5q0 88 -34.5 147.5t-96.5 110.5q-47 43 -151 98q-119 -43 -199 -139t-80 -215zM193 1108q0 -66 29.5 -118t94.5 -97q20 -16 61.5 -37.5t86.5 -44.5q113 51 185.5 128t72.5 173 q0 139 -77 192.5t-183 53.5q-115 0 -192.5 -62.5t-77.5 -187.5z" />
<glyph unicode="9" d="M80 729q0 260 96 390t295 130q141 0 216 -65.5t101.5 -196.5t28.5 -356q-2 -428 -131 -635t-387 -207q-72 0 -120 10.5t-48 32.5q0 23 8 64q61 -18 154 -19q401 0 434 651q-106 -201 -326 -200q-143 0 -232 102t-89 299zM170 745q0 -164 68.5 -246.5t185.5 -82.5 q90 0 168 57t137 164v2q0 170 -17.5 280.5t-73.5 177t-167 66.5q-147 0 -224 -105.5t-77 -312.5z" />
<glyph unicode=":" horiz-adv-x="364" d="M109 74q0 33 20.5 57.5t54.5 24.5q39 0 59.5 -23.5t20.5 -58.5q0 -37 -21.5 -60.5t-58.5 -23.5q-75 0 -75 84zM109 793q0 33 20.5 57t54.5 24q39 0 59.5 -23.5t20.5 -57.5q0 -37 -21.5 -60.5t-58.5 -23.5q-75 0 -75 84z" />
<glyph unicode=";" horiz-adv-x="364" d="M92 -195q35 57 48.5 103.5t13.5 97.5q-37 23 -37 74q0 33 19.5 54.5t51.5 21.5q37 0 55.5 -20.5t18.5 -69.5q0 -57 -24.5 -126t-56 -118t-48.5 -49q-12 0 -24.5 9t-16.5 23zM113 793q0 33 20.5 57t54.5 24q39 0 59.5 -23.5t20.5 -57.5q0 -37 -21.5 -60.5t-58.5 -23.5 q-75 0 -75 84z" />
<glyph unicode="&#x3c;" horiz-adv-x="819" d="M94 535q0 33 33 51l553 272q29 -29 33 -61q0 -20 -19 -31l-479 -236l504 -217q0 -33 -14.5 -54t-28.5 -21q-16 0 -45 14l-520 227q-16 23 -17 56z" />
<glyph unicode="=" d="M92 360q0 56 4 71t21 15h692q0 -55 -4 -70.5t-21 -15.5h-692zM92 707q0 55 4 70.5t21 15.5h692q0 -53 -4 -69.5t-21 -16.5h-692z" />
<glyph unicode="&#x3e;" horiz-adv-x="819" d="M100 772q2 33 15.5 54.5t27.5 21.5q16 0 47 -14l521 -228q16 -27 16 -55q0 -33 -33 -51l-555 -275q-30 37 -30 64q0 23 18 30l477 236z" />
<glyph unicode="?" horiz-adv-x="606" d="M55 1370q0 18 35 37.5t89 33t114 13.5q123 0 204 -66.5t81 -224.5q0 -115 -45.5 -200.5t-126.5 -190.5l-36 -48t-36 -52q-43 -72 -43 -158q0 -35 7 -71.5t5 -39.5q-12 -12 -45 -12q-14 0 -39 4q-2 4 -6 18.5t-9 41t-5 57.5q0 100 51 190q31 49 86 121q72 94 108.5 165 t36.5 161q0 213 -209 213q-123 0 -206 -64q-10 27 -11 72zM186 74q0 35 21.5 58.5t56.5 23.5q37 0 58.5 -23.5t21.5 -58.5t-22.5 -59.5t-57.5 -24.5q-39 0 -58.5 22.5t-19.5 61.5z" />
<glyph unicode="@" horiz-adv-x="1556" d="M113 543q0 451 192.5 655.5t532.5 204.5q315 0 462.5 -161t147.5 -519q0 -438 -106.5 -577.5t-221.5 -139.5q-76 0 -129 53q-31 -23 -94 -40t-154 -17q-115 0 -178 60.5t-63 226.5q0 193 87 269.5t238 76.5q84 0 125 -14l6 131q4 100 -42 138t-136 38q-133 0 -227 -51 q-10 20 -10 53q2 20 18 33q86 47 250 47q121 0 179.5 -56.5t53.5 -187.5l-14 -453q-6 -160 -10 -192q41 -35 92 -35q45 0 101.5 48t100.5 186.5t44 390.5q0 219 -53.5 352t-167 195.5t-303.5 62.5q-303 0 -466 -183.5t-163 -607.5q0 -352 73.5 -533t197.5 -238.5t321 -57.5 q161 0 271 31.5t208 83.5q25 -43 24 -76q0 -18 -65.5 -49t-179 -54.5t-250.5 -23.5q-225 0 -369.5 58.5t-233.5 261t-89 610.5zM588 291q0 -129 48 -172t138 -43q59 0 111.5 24.5t54.5 57.5l12 397q-51 10 -112 10q-119 0 -185.5 -60.5t-66.5 -213.5z" />
<glyph unicode="A" horiz-adv-x="892" d="M16 0l394 1430q4 12 30 12q23 0 39 -4l395 -1413l3 -9q0 -18 -39 -18q-35 0 -56 2l-110 408h-451l-102 -390q-2 -14 -11.5 -17t-33.5 -3q-33 0 -58 2zM244 496h405l-110 409q-84 309 -93 404q-12 -94 -94 -404z" />
<glyph unicode="B" horiz-adv-x="815" d="M121 0v1399q0 35 51 35h205q143 0 242.5 -68t99.5 -244q0 -166 -62.5 -242.5t-142.5 -88.5q94 -4 171 -69t77 -233q0 -285 -123 -387t-272 -102h-246zM213 84h154q129 0 210.5 91t81.5 306q0 115 -36.5 171.5t-96 71.5t-159.5 15h-154v-655zM213 823h174q233 0 234 287 q0 240 -246 240h-162v-527z" />
<glyph unicode="C" horiz-adv-x="735" d="M84 645q0 340 57.5 518t142.5 233.5t197 55.5q59 0 102.5 -16.5t65 -40t21.5 -43.5q0 -14 -5.5 -30.5t-13.5 -27.5q-20 20 -64 45t-98 25q-90 0 -155.5 -50t-109.5 -210t-44 -463q0 -229 36 -353t92.5 -166t129.5 -42q68 0 130.5 31.5t93.5 70.5q18 -37 18 -61 q0 -29 -35 -61.5t-93 -55t-128 -22.5q-98 0 -170 40.5t-121 186t-49 436.5z" />
<glyph unicode="D" horiz-adv-x="858" d="M125 0v1399q0 16 10 25.5t41 9.5h203q203 0 301 -150.5t98 -490.5q0 -313 -53 -488.5t-142 -240t-214 -64.5h-244zM215 88h154q92 0 158.5 52.5t108.5 209t42 449.5q0 295 -71.5 422t-231.5 127h-160v-1260z" />
<glyph unicode="E" horiz-adv-x="704" d="M125 0v1409q0 6 6 15.5t21 9.5h489q0 -59 -2 -72.5t-16 -13.5h-406v-521h379q0 -57 -3 -71.5t-18 -14.5h-358v-655h424q0 -59 -3 -72.5t-20 -13.5h-493z" />
<glyph unicode="F" horiz-adv-x="679" d="M125 0v1409q0 6 6 15.5t21 9.5h489q0 -59 -2 -71.5t-16 -12.5h-406v-521h379q0 -57 -3 -72.5t-18 -15.5h-358v-716q0 -8 -4 -16.5t-20 -8.5h-68z" />
<glyph unicode="G" horiz-adv-x="827" d="M84 700q0 299 52 464t144.5 227.5t231.5 62.5q90 0 151.5 -26.5t61.5 -61.5q0 -33 -14 -61q-74 59 -183 59q-115 0 -190.5 -56.5t-116.5 -200.5t-41 -402q0 -268 37 -407.5t98.5 -183.5t155.5 -44q72 0 121 29.5t63 58.5v567h-219v55q0 27 29 27h278v-703 q-95 -124 -273 -124h-3q-127 0 -209 56t-128 214t-46 450z" />
<glyph unicode="H" horiz-adv-x="903" d="M121 0v1409q0 14 4 18.5t26.5 5.5t61.5 1v-607h477v582q0 12 4 17.5t26.5 6.5t61.5 1v-1409q0 -14 -4 -18.5t-26.5 -5.5t-61.5 -1v737h-477v-712q0 -14 -4 -18.5t-26.5 -5.5t-61.5 -1z" />
<glyph unicode="I" horiz-adv-x="335" d="M121 0v1384q0 27 4 36.5t21.5 11.5t68.5 2v-1409q0 -12 -5 -17.5t-27.5 -6.5t-61.5 -1z" />
<glyph unicode="J" horiz-adv-x="610" d="M37 82q0 29 20 59q67 -75 171 -75h3q74 0 110 40.5t46 104t10 166.5v1009q0 27 4.5 35.5t20.5 10.5t67 2v-1088q0 -166 -49 -266t-200 -100q-93 0 -148 31.5t-55 70.5z" />
<glyph unicode="K" horiz-adv-x="800" d="M121 0v1409q0 14 4 18.5t26.5 5.5t61.5 1v-621l444 617q20 4 58 4q41 0 41 -19q0 -2 -8 -18l-443 -590q135 -82 251 -274.5t200 -501.5q2 -5 2 -13q0 -20 -37 -20q-39 0 -57 2q-90 283 -171 434.5t-174 243.5q-43 43 -106 70v-723q0 -14 -4 -18.5t-26.5 -5.5t-61.5 -1z " />
<glyph unicode="L" horiz-adv-x="679" d="M121 0v1397q0 20 4 26.5t27.5 8.5t62.5 2v-1348h428v-61q0 -14 -6 -19.5t-21 -5.5h-495z" />
<glyph unicode="M" horiz-adv-x="1028" d="M121 0v1409q0 25 24 25h60l233 -756l76 -252l72 244l229 739q8 25 25 25h67v-1409q0 -14 -4 -18.5t-26.5 -5.5t-61.5 -1l2 627l12 567l-161 -532l-121 -361q-6 -18 -23 -18h-47l-117 379l-163 526l10 -387l4 -158l2 -618q0 -12 -5 -17.5t-27.5 -6.5t-59.5 -1z" />
<glyph unicode="N" horiz-adv-x="944" d="M121 0v1409q0 25 24 25h64l250 -570q47 -119 122.5 -302t129.5 -312l24 -57q-4 295 -4 727v489q0 14 4 18.5t26.5 5.5t61.5 1v-1409q0 -25 -26 -25h-62l-256 580q-2 4 -172 421l-100 246l6 -719v-503q0 -14 -4 -18.5t-26.5 -5.5t-61.5 -1z" />
<glyph unicode="O" horiz-adv-x="927" d="M84 727q0 389 95 558t300 169q135 0 213 -69.5t114 -226.5t36 -429q0 -274 -40 -438t-124 -237.5t-221 -73.5q-135 0 -216 68.5t-119 230t-38 448.5zM184 696q0 -229 28 -364t87 -196.5t160 -61.5q102 0 164.5 64.5t92 207.5t29.5 385q0 236 -26.5 373t-85 196.5 t-156.5 59.5q-102 0 -165.5 -64.5t-95.5 -210t-32 -389.5z" />
<glyph unicode="P" horiz-adv-x="763" d="M121 0v1409q0 25 24 25h217q185 0 268 -102.5t83 -282.5q0 -217 -95.5 -325t-265.5 -108h-139v-591q0 -14 -4 -18.5t-26.5 -5.5t-61.5 -1zM213 702h143q258 1 258 355q0 293 -247 293h-154v-648z" />
<glyph unicode="Q" horiz-adv-x="927" d="M84 727q0 389 95 558t300 169q135 0 213 -69.5t114 -226.5t36 -429q0 -367 -72 -540t-231 -201q18 -102 46.5 -141.5t84.5 -39.5q78 0 133 35q16 -16 16 -51q0 -27 -51 -44t-115 -17q-86 0 -137 58t-80 192q-127 4 -203.5 74.5t-112.5 232.5t-36 440zM184 696 q0 -229 28 -364t87 -196.5t160 -61.5q102 0 164.5 64.5t92 207.5t29.5 385q0 236 -26.5 373t-85 196.5t-156.5 59.5q-102 0 -165.5 -64.5t-95.5 -210t-32 -389.5z" />
<glyph unicode="R" horiz-adv-x="778" d="M121 0v1409q0 6 5 15.5t19 9.5h217q184 0 267.5 -102.5t83.5 -282.5q0 -170 -58.5 -271.5t-165.5 -140.5q66 -90 130.5 -242.5t85.5 -365.5q0 -18 -8.5 -23.5t-37.5 -7.5l-51 2q-29 246 -91 397.5t-120 220.5q-14 -2 -45 -2h-139v-591q0 -14 -4 -18.5t-26.5 -5.5 t-61.5 -1zM213 702h143q129 0 193.5 90.5t64.5 260.5q0 137 -56 217t-191 80h-154v-648z" />
<glyph unicode="S" horiz-adv-x="765" d="M74 84q0 16 8 33.5t22 29.5q83 -75 232 -75h4q133 0 197.5 71.5t64.5 196.5q0 92 -32.5 165t-118.5 161l-228 229q-74 80 -108.5 146.5t-34.5 142.5q0 121 90 195.5t248 74.5q125 0 190.5 -26.5t65.5 -59.5q0 -31 -27 -57q-29 23 -89 41t-138 18q-111 0 -177.5 -50 t-66.5 -134q0 -61 30 -112.5t89 -115.5l252 -251q86 -92 118.5 -172t32.5 -187q0 -168 -87 -268t-267 -100q-88 0 -149.5 17t-91 40.5t-29.5 46.5z" />
<glyph unicode="T" horiz-adv-x="747" d="M12 1346v63q0 25 27 25h696v-64q0 -25 -26 -24h-293v-1321q0 -14 -4 -18.5t-27 -5.5t-61 -1v1346h-312z" />
<glyph unicode="U" horiz-adv-x="956" d="M121 449v958q0 14 4 19.5t27.5 6.5t62.5 1v-988q0 -121 18.5 -200.5t79 -128.5t179.5 -49q72 0 143.5 14t107.5 33v1294q0 12 5.5 17.5t28 6.5t59.5 1v-1385q-45 -29 -141.5 -49t-202.5 -20q-158 0 -240 61t-106.5 160.5t-24.5 247.5z" />
<glyph unicode="V" horiz-adv-x="862" d="M10 1419q0 14 23 15h69l250 -938q41 -160 78 -355q2 -18 10 -55q47 258 82 410l228 901q4 20 9 28.5t19 8.5h76l-367 -1448q-33 -4 -67 -4q-19 0 -34 29.5t-30 88.5q-92 348 -196.5 745.5t-145.5 551.5q-4 16 -4 22z" />
<glyph unicode="W" horiz-adv-x="1306" d="M10 1413q0 20 21 21h71l205 -940q25 -125 47 -273l17 -102h6q16 178 57 375l168 827q6 20 10 27.5t19 7.5h67l191 -862q20 -90 31.5 -166t15.5 -99q4 -29 16 -106h6q2 18 11 70q29 211 45 301l184 903q4 20 9 28.5t20 8.5h73l-296 -1448q-10 0 -28 -3t-40 -3 q-31 0 -51 100l-174 741q-12 57 -24.5 136t-22.5 145l-13 82q-33 -227 -55 -359l-178 -839q-37 -4 -74 -4q-29 0 -51 124l-281 1291z" />
<glyph unicode="X" horiz-adv-x="874" d="M23 0l356 745l-301 672q-4 8 -1 11.5t30.5 4.5t74.5 1l113 -252q92 -209 151 -359q74 176 154 359l107 235q4 10 9 12.5t29.5 3.5t67.5 1l-309 -691l344 -720l4 -11q0 -12 -16 -12h-95l-149 319q-90 195 -129 289q-10 18 -27 58q-113 -250 -157 -344l-150 -310 q-8 -12 -25 -12h-81z" />
<glyph unicode="Y" horiz-adv-x="737" d="M12 1417q-4 8 1 11.5t31 4.5t71 1l106 -297q43 -115 97.5 -282t56.5 -185q2 14 52 169.5t99 297.5l99 278q4 10 9 13.5t29.5 4.5t63.5 1l-309 -846v-563q0 -14 -4 -18.5t-26.5 -5.5t-61.5 -1v588z" />
<glyph unicode="Z" horiz-adv-x="811" d="M55 39q0 20 11 47l571 1262h-453q-76 0 -84 -2v61q0 27 27 27h610q10 -16 11 -35q0 -16 -11 -47l-577 -1266h485q78 0 103 8v-69q0 -25 -25 -25h-649q-19 10 -19 39z" />
<glyph unicode="[" horiz-adv-x="872" d="M328 -406v2053q0 23 13 28.5t60 5.5h451q0 -55 -6 -68.5t-37 -13.5h-389v-1916h430q0 -59 -9.5 -74t-35.5 -15h-477z" />
<glyph unicode="\" horiz-adv-x="602" d="M23 1538q-6 20 9 24.5t79 4.5l467 -1602q6 -18 -9.5 -22t-79.5 -4z" />
<glyph unicode="]" horiz-adv-x="872" d="M20 -410q0 56 7.5 69t38.5 13h389v1925h-430q0 43 4 60.5t12 21.5t29 4h475v-2058q0 -23 -12.5 -29t-61.5 -6h-451z" />
<glyph unicode="^" horiz-adv-x="880" d="M125 487l321 295l287 -266q16 -14 17 -33q0 -16 -13.5 -29.5t-34.5 -15.5l-264 226l-229 -203q-27 -23 -41 -23q-18 0 -29.5 14.5t-13.5 34.5z" />
<glyph unicode="_" horiz-adv-x="788" d="M37 -180q0 53 4 69.5t20 16.5h693q0 -55 -4.5 -70.5t-22.5 -15.5h-690z" />
<glyph unicode="`" horiz-adv-x="526" d="M100 1384q2 20 15.5 48t29.5 28q8 0 105.5 -81t175.5 -158q-4 -8 -16.5 -31t-20.5 -23q-80 54 -177 128.5t-112 88.5z" />
<glyph unicode="a" horiz-adv-x="761" d="M80 283q0 197 86 264t231 67q111 0 172 -22v186q0 102 -44 139t-130 37q-96 0 -177 -15t-126 -36q-12 25 -12 53q0 29 14 37q35 20 126 35.5t196 15.5q125 0 185.5 -56t60.5 -191v-127q0 -375 -13 -615q-115 -75 -270 -75h-4h-21q-121 0 -194 54q-80 60 -80 249zM174 285 q0 -98 28.5 -147.5t74 -63t114.5 -13.5q51 0 99.5 16.5t68.5 35.5q10 115 10 407q-59 20 -145 21q-78 0 -130 -17.5t-86 -73t-34 -165.5z" />
<glyph unicode="b" horiz-adv-x="837" d="M127 41v1417q0 33 16.5 40t75.5 7v-549q53 43 117.5 65.5t150.5 22.5q133 -2 204 -92t71 -297q0 -401 -116 -538t-284 -137q-159 0 -235 61zM219 104q45 -41 154 -41q116 0 202.5 116t86.5 446q0 186 -50.5 259.5t-162.5 73.5q-137 0 -230 -90v-764z" />
<glyph unicode="c" horiz-adv-x="692" d="M88 489q0 330 104.5 442.5t266.5 112.5q68 0 120 -23.5t52 -53.5q0 -29 -15 -58q-68 51 -163 52q-117 0 -194 -95.5t-77 -382.5q0 -170 29 -261t80 -125t129 -34q63 0 115.5 20.5t82.5 49.5q12 -31 13 -57q0 -20 -31 -43t-85 -38t-120 -15q-100 0 -165.5 37.5 t-103.5 149.5t-38 322z" />
<glyph unicode="d" horiz-adv-x="833" d="M88 487q0 186 47 311.5t126 185.5t179 60q113 0 176 -47v461q0 33 16.5 40t76.5 7v-1464q-51 -27 -126 -44t-161 -17q-107 0 -177.5 34.5t-113.5 146t-43 326.5zM186 494q0 -182 30 -275.5t81 -123t135 -29.5q114 0 186 43l-2 804q-33 27 -65.5 37.5t-87.5 10.5 q-121 0 -199 -116t-78 -351z" />
<glyph unicode="e" horiz-adv-x="776" d="M84 455q0 248 53 378t132 170.5t182 40.5q131 0 193.5 -85t62.5 -238q0 -150 -17 -238q-120 -23 -268 -30q-103 -5 -183 -5q-34 0 -63 1q0 -160 31 -242t86 -109.5t141 -27.5q72 0 138.5 19.5t113.5 51.5q12 -33 12 -65q0 -20 -38.5 -44t-102 -38t-135.5 -14 q-111 0 -182.5 34.5t-113.5 139t-42 301.5zM178 528h66q246 0 364 29q8 68 8 141q-2 135 -38.5 199t-133.5 64q-108 0 -182 -85t-84 -348z" />
<glyph unicode="f" horiz-adv-x="503" d="M31 942q0 33 1 52.5t7 24.5t20 5h134v133q0 211 94 285t235 74q86 0 129 -16.5t43 -41.5q0 -27 -10 -53q-74 25 -154 25q-111 0 -178 -53.5t-67 -221.5v-131h225q0 -57 -3 -69.5t-22 -12.5h-200v-917q0 -25 -25 -25h-67v942h-162z" />
<glyph unicode="g" horiz-adv-x="831" d="M76 -188q0 70 51 141.5t123 122.5q-141 37 -141 104q0 39 37.5 88t93.5 92q-131 78 -131 316q0 180 94 274t241 94q45 0 97 -12h250q10 -14 10 -41q0 -39 -43 -39q-41 0 -127 13q61 -33 95 -99.5t34 -165.5q0 -170 -82 -277.5t-250 -107.5q-70 0 -125 17 q-39 -31 -68.5 -67t-29.5 -62q0 -51 317 -88q131 -19 203 -65t72 -156q0 -78 -44 -147t-134.5 -111t-219.5 -42q-184 0 -253.5 60.5t-69.5 157.5zM168 -174q0 -68 50 -105.5t188 -37.5q94 0 161.5 28.5t102.5 74.5t35 97q0 82 -57.5 113t-174.5 41q-96 12 -145 20 q-63 -43 -111.5 -108.5t-48.5 -122.5zM203 676q0 -133 47 -208t184 -75q115 0 174.5 92.5t59.5 229.5q0 127 -59.5 190.5t-168.5 63.5q-102 0 -169.5 -75t-67.5 -218z" />
<glyph unicode="h" horiz-adv-x="823" d="M119 0v1458q0 33 16.5 40t75.5 7v-551q59 45 130 67.5t140 22.5q141 0 192.5 -68.5t51.5 -207.5v-743q0 -14 -4 -18.5t-27.5 -5.5t-62.5 -1v752q0 100 -38 152t-140 52q-61 0 -127 -22.5t-115 -69.5v-839q0 -14 -4 -18.5t-26.5 -5.5t-61.5 -1z" />
<glyph unicode="i" horiz-adv-x="346" d="M117 1307q4 82 59 82q31 0 43.5 -19.5t12.5 -62.5q-4 -82 -62 -82q-29 0 -41 19.5t-12 62.5zM127 0v977q0 33 16.5 40t75.5 7v-999q0 -14 -4 -18.5t-26.5 -5.5t-61.5 -1z" />
<glyph unicode="j" horiz-adv-x="370" d="M-240 -309q0 31 17 55q88 -57 205 -57q68 0 102.5 27.5t45.5 82t11 148.5v1030q0 33 15.5 40t74.5 7v-1100q0 -158 -51 -240.5t-194 -82.5q-103 0 -164.5 27.5t-61.5 62.5zM129 1307q4 82 59 82q31 0 43.5 -19.5t12.5 -62.5q-4 -82 -62 -82q-29 0 -41 19.5t-12 62.5z" />
<glyph unicode="k" horiz-adv-x="806" d="M125 0v1458q0 33 16.5 40t75.5 7v-598q61 63 146.5 100t156.5 37q94 0 137 -46t43 -134q0 -123 -76.5 -203.5t-154.5 -121.5q49 -2 105.5 -34t101.5 -97.5t61 -165.5q6 -45 6 -105q0 -49 -6 -108q-2 -16 -7 -21.5t-29.5 -6.5t-65.5 -1q8 63 8 129q0 104 -25 174 q-31 96 -91 137t-128 41q-27 0 -49 -6q-39 -12 -79 -27.5t-54 -21.5v-401q0 -14 -3 -18.5t-25.5 -5.5t-63.5 -1zM217 502q174 57 279.5 142t105.5 200q0 114 -115 114h-2q-66 0 -135 -35.5t-133 -109.5v-311z" />
<glyph unicode="l" horiz-adv-x="344" d="M125 0v1458q0 33 16.5 40t75.5 7v-1480q0 -14 -4 -18.5t-26.5 -5.5t-61.5 -1z" />
<glyph unicode="m" horiz-adv-x="1234" d="M125 0v977q152 67 297 67h4q150 0 203 -75q53 35 124.5 55t137.5 20q98 0 147 -33.5t65.5 -96t16.5 -171.5v-718q0 -14 -4 -18.5t-26.5 -5.5t-61.5 -1v754q0 115 -28.5 161t-118.5 46q-117 0 -209 -64v-872q0 -14 -4 -18.5t-27 -5.5t-61 -1v756q0 82 -8.5 122t-40 61.5 t-105.5 21.5q-104 0 -209 -48v-888q0 -12 -5 -17.5t-27.5 -6.5t-59.5 -1z" />
<glyph unicode="n" horiz-adv-x="835" d="M121 0v973q174 71 330 71h4q160 0 219 -66.5t59 -217.5v-735q0 -14 -4 -18.5t-27.5 -5.5t-62.5 -1v737q0 123 -38 173.5t-148 50.5q-55 0 -123 -13.5t-117 -38.5v-884q0 -14 -4 -18.5t-26.5 -5.5t-61.5 -1z" />
<glyph unicode="o" horiz-adv-x="802" d="M72 510q0 534 341 534h1q111 0 179.5 -47t103 -163.5t34.5 -321.5q0 -268 -87 -400t-253 -132q-110 0 -178 37.5t-104.5 153.5t-36.5 339zM170 500q0 -176 25.5 -271.5t72.5 -131.5t125 -36q115 0 177.5 111t62.5 344q0 176 -25.5 274.5t-74 135.5t-123.5 37 q-117 0 -178.5 -105.5t-61.5 -357.5z" />
<glyph unicode="p" horiz-adv-x="831" d="M125 -367v1328q127 83 291 83h4q168 0 253 -98t85 -338q0 -367 -105.5 -497.5t-242.5 -130.5q-63 0 -115.5 24.5t-77.5 54.5v-454q-23 -8 -49 -8h-2q-41 0 -41 36zM217 170q29 -51 75 -77.5t97 -26.5q103 0 186.5 105t83.5 413q0 147 -27.5 229t-79.5 115t-136 33 q-111 0 -199 -56v-735z" />
<glyph unicode="q" horiz-adv-x="847" d="M86 455q0 297 110.5 443t301.5 146q72 0 125 -15t100 -50v-1346q0 -27 -9 -33t-48 -6q-25 1 -35 3v497q-81 -114 -241 -114h-3q-301 0 -301 475zM186 451q0 -233 69 -310.5t169 -77.5q61 0 118.5 36t88.5 106v717q-23 16 -64 27.5t-88 11.5q-293 0 -293 -510z" />
<glyph unicode="r" horiz-adv-x="573" d="M121 0v954q127 90 272 90q72 0 111 -18t39 -47q0 -14 -4 -30.5t-11 -26.5q-53 32 -118 32h-4q-113 0 -193 -61v-868q0 -12 -5 -17.5t-27.5 -6.5t-59.5 -1z" />
<glyph unicode="s" horiz-adv-x="772" d="M88 63q0 35 21 58q47 -29 101 -42t132 -13q113 0 176.5 43t63.5 129q0 63 -30 114t-95 99l-224 149q-84 55 -111.5 103.5t-27.5 111.5q0 106 90 167.5t240 61.5q86 0 146.5 -17t89 -39.5t28.5 -41.5q0 -23 -24 -53q-55 35 -109.5 51.5t-122.5 16.5q-104 0 -170.5 -38 t-66.5 -106q0 -43 22.5 -76.5t85.5 -76.5l234 -156q76 -59 110.5 -119.5t34.5 -136.5q0 -133 -88 -202.5t-246 -69.5q-117 0 -188.5 24.5t-71.5 58.5z" />
<glyph unicode="t" horiz-adv-x="614" d="M61 940q0 55 4.5 69.5t18.5 14.5h135v328q0 29 15.5 35t76.5 6v-369h260q0 -57 -3 -70.5t-17 -13.5h-240v-641q0 -84 5.5 -131t28 -76t69.5 -29q41 0 68.5 8.5t66.5 26.5q8 -23 8 -51q0 -33 -48 -50t-114 -17q-80 0 -117.5 39.5t-48 105t-10.5 178.5v637h-158z" />
<glyph unicode="u" horiz-adv-x="868" d="M129 356v643q0 14 4 18.5t26.5 5.5t61.5 1v-682q0 -111 18.5 -169t64.5 -84t136 -26q47 0 105.5 11.5t103.5 38.5v886q0 12 5 17.5t28 6.5t59 1v-975q-68 -35 -150.5 -52t-160.5 -17q-119 0 -184.5 36.5t-91 117.5t-25.5 222z" />
<glyph unicode="v" horiz-adv-x="739" d="M57 993q-4 16 1 22.5t29 7.5t63 1l98 -367q43 -160 81 -330.5t48 -220.5h2l45 220.5t76 332.5l88 338q4 14 9 19.5t27.5 6.5t59.5 1l-272 -1038q-12 -2 -60 -2q-16 0 -45 100z" />
<glyph unicode="w" horiz-adv-x="1140" d="M55 997q-4 14 1 19.5t30 6.5t64 1l90 -389q37 -166 66.5 -317.5t37.5 -194.5h6q4 23 72 340l29 131l73 369q2 14 9.5 19t23.5 5h59l91 -399q37 -145 67.5 -284.5t38.5 -180.5h6q10 76 37 224.5t57 287.5l78 362q2 15 7.5 20t28 6t60.5 1q-37 -162 -137 -600t-102 -438 l-55 -2q-8 0 -24.5 31.5t-29.5 80.5l-34 142q-72 291 -117 522l-17 71q-51 -285 -125 -593l-59 -252l-68 -2q-18 0 -43 100q-59 252 -126.5 529.5t-94.5 383.5z" />
<glyph unicode="x" horiz-adv-x="915" d="M51 0l350 541l-299 467q-6 8 -3 11t29 4t69 1l114 -172q117 -184 154 -248q59 102 156 250l100 154q6 10 12 12t30.5 3t67.5 1l-311 -477l338 -520q6 -9 6 -17t-27.5 -9t-78.5 -1l-117 176q-76 115 -186 299q-141 -231 -189 -301l-102 -154q-8 -14 -24.5 -17t-88.5 -3z " />
<glyph unicode="y" horiz-adv-x="768" d="M8 -342q0 14 5 30.5t14 26.5q23 -12 57.5 -19t62.5 -7q137 0 203 278l-274 1028q-4 16 -1 21.5t26.5 6.5t62.5 1l170 -645q23 -90 40 -184.5t21 -120.5q4 27 19.5 120t38.5 187l151 612q4 16 9 22.5t29 7.5t65 1l-279 -1090q-47 -180 -112.5 -254.5t-165.5 -74.5 q-68 0 -105 14t-37 39z" />
<glyph unicode="z" horiz-adv-x="768" d="M68 47q0 23 8 39l514 856h-262q-160 0 -248 -10q-2 23 -2 47q0 45 31 45h579q2 -2 7 -10t5 -21q0 -27 -12 -51l-512 -854h260q176 0 258 14q2 -10 2 -45q0 -33 -7 -45t-30 -12h-577q-2 2 -8 15.5t-6 31.5z" />
<glyph unicode="{" horiz-adv-x="591" d="M115 608q0 37 28 56q39 23 59.5 40t33 54t12.5 104q0 66 -6 136.5t-9 88.5q-14 119 -14 199q0 127 84 182.5t234 55.5q18 -25 18 -56q0 -14 -8 -24t-19 -12q-106 -4 -160.5 -43t-54.5 -140q0 -59 11 -151q14 -172 14 -254q0 -100 -32 -150.5t-93 -77.5q63 -20 94 -63 t31 -127q0 -78 -14 -254q-10 -106 -11 -176q0 -94 26 -139t70 -58.5t134 -21.5q4 -33 4 -37q0 -49 -35 -49q-156 0 -224.5 62.5t-68.5 211.5q0 84 14 203q2 18 8.5 89t6.5 142q0 80 -32 117t-93 49q-8 18 -8 43z" />
<glyph unicode="|" horiz-adv-x="747" d="M328 -410v2050q0 14 5 20.5t27.5 7.5t59.5 1v-2052q0 -18 -14.5 -22.5t-77.5 -4.5z" />
<glyph unicode="}" horiz-adv-x="591" d="M39 -252q0 31 24 35q106 4 161 44t55 138q0 59 -11 156q-14 172 -14 250q0 100 32.5 151t92.5 76q-61 20 -93 63.5t-32 129.5q0 80 14 251q10 106 11 177q0 94 -26 139t-70 59.5t-134 22.5q-4 29 -4 35q0 23 9 36t26 13q156 0 224.5 -62.5t68.5 -212.5q0 -86 -15 -200 q-2 -16 -8 -89t-6 -145q0 -80 32 -116.5t93 -49.5q8 -18 8 -41q0 -39 -28 -55q-41 -25 -60.5 -42t-32 -54t-12.5 -103q0 -68 6 -138.5t8 -88.5q14 -119 15 -199q0 -238 -318 -237q-16 22 -16 57z" />
<glyph unicode="~" horiz-adv-x="819" d="M27 528q27 47 91 88t148 41q47 0 79 -13t73 -40q39 -27 69.5 -40t73.5 -13q51 0 94 23.5t72 64.5q10 10 25 10q14 0 26.5 -14t16.5 -37q-88 -133 -242 -133q-55 0 -92 15.5t-80 43.5q-35 25 -61.5 36t-61.5 11q-49 0 -86 -20.5t-59.5 -41t-30.5 -26.5q-16 -10 -33.5 4.5 t-21.5 40.5z" />
<glyph unicode="&#xa1;" horiz-adv-x="382" d="M117 958q0 37 21.5 60.5t58.5 23.5q39 0 57 -22.5t18 -61.5q0 -33 -20.5 -57t-54.5 -24q-39 0 -59.5 22.5t-20.5 58.5zM135 -406l12 1031q0 27 20.5 35t70.5 8l10 -1047q2 -18 -21.5 -22.5t-91.5 -4.5z" />
<glyph unicode="&#xa2;" d="M193 459q0 303 82.5 430t216.5 149v232q0 27 18 36t65 9v-273q59 -2 109.5 -24.5t50.5 -38.5q0 -14 -4 -35.5t-10 -36.5q-37 25 -68.5 37t-81.5 12q-80 0 -141 -35.5t-102 -146t-41 -319.5q0 -174 28.5 -258t79.5 -107.5t144 -23.5q94 0 184 69q14 -33 14 -61 q0 -17 -28.5 -38.5t-75.5 -38.5t-98 -17v-228q0 -27 -17.5 -36t-64.5 -9v275q-88 6 -142.5 43.5t-86 140t-31.5 293.5z" />
<glyph unicode="&#xa3;" horiz-adv-x="798" d="M31 571q0 55 4 70.5t20 15.5h133v13q0 309 84 429t238 120q84 0 144.5 -27t60.5 -64q0 -31 -19 -61q-41 31 -81 45t-95 14q-76 0 -128 -35.5t-81.5 -133t-29.5 -277.5v-23h313q0 -55 -4 -70.5t-21 -15.5h-288q4 -324 14 -477l395 -8q8 -23 8 -45q0 -27 -30.5 -34 t-83.5 -7h-377q-18 279 -19 571h-157z" />
<glyph unicode="&#xa4;" horiz-adv-x="1103" d="M35 1038q39 39 52 47.5t26 -4.5l151 -149q104 109 301 108q182 0 279 -104l166 164q49 -49 49 -64q0 -8 -8 -16l-156 -156q55 -104 55 -268q0 -176 -65 -285l184 -184q-23 -23 -39 -37t-24 -14t-17 8l-155 158q-104 -100 -285 -101q-180 0 -279 99l-174 -174 q-6 6 -22.5 22t-22.5 25.5t-6 15.5q0 8 8 16l164 162q-63 111 -63 281q0 166 59 274zM242 573q0 -168 79.5 -259t227.5 -91q151 0 233 97.5t82 281.5q0 174 -76.5 266.5t-218.5 92.5q-158 0 -242.5 -100.5t-84.5 -287.5z" />
<glyph unicode="&#xa5;" d="M84 1417q-4 8 0 11.5t30.5 4.5t71.5 1l107 -297q45 -125 97 -281t54 -172q2 14 52.5 163.5t99.5 289.5l100 278q4 10 9.5 13.5t30 4.5t63.5 1l-240 -658h207q0 -47 -7 -63.5t-34 -16.5h-197l-39 -108v-137h279q0 -47 -8 -63.5t-33 -16.5h-238v-346q0 -14 -4 -18.5 t-26.5 -5.5t-61.5 -1v371h-282q0 47 8 63.5t33 16.5h241v131l-43 114h-239q0 47 8 63.5t33 16.5h168z" />
<glyph unicode="&#xa6;" horiz-adv-x="460" d="M184 -397v815q0 20 10.5 28.5t36.5 8.5q29 0 45 -6v-822q0 -18 -9 -24t-38 -6t-45 6zM184 684v799q0 20 10.5 28.5t36.5 8.5q29 0 45 -7v-804q0 -18 -9 -24.5t-38 -6.5t-45 6z" />
<glyph unicode="&#xa7;" horiz-adv-x="768" d="M104 811q0 59 33 115.5t101 93.5l-21 20q-51 55 -71.5 93t-20.5 94q0 96 81 155.5t216 59.5q90 0 153.5 -29t73.5 -57q4 -8 4 -21q0 -33 -22 -55q-86 66 -207 66q-92 0 -145.5 -36t-53.5 -96q0 -39 16.5 -67.5t57.5 -69.5q25 -25 111 -98q125 -106 159 -148 q51 -55 73 -100t22 -108q0 -57 -34 -113.5t-100 -95.5l23 -23q51 -53 70.5 -92t19.5 -92q0 -98 -81 -156.5t-216 -58.5q-88 0 -151.5 28.5t-75.5 57.5q-2 8 -2 18q0 31 22 58q43 -33 91.5 -49.5t115.5 -16.5q92 0 144.5 36t52.5 95q0 37 -16.5 65.5t-57.5 71.5 q-25 25 -111 99q-125 109 -159 145q-51 55 -73 101.5t-22 109.5zM193 807q0 -49 17 -85t58 -79q31 -39 144 -129l51 -41q49 18 82 66.5t33 87.5q0 47 -18.5 82.5t-57.5 81.5q-33 37 -144 127l-53 43q-49 -18 -80.5 -65.5t-31.5 -88.5z" />
<glyph unicode="&#xa8;" horiz-adv-x="526" d="M100 1307q0 80 58 79q29 0 41 -19t10 -60q0 -80 -57 -80q-54 0 -52 80zM317 1307q4 80 60 79q29 0 41 -19t10 -60q0 -80 -57 -80q-27 0 -40.5 19.5t-13.5 60.5z" />
<glyph unicode="&#xa9;" horiz-adv-x="946" d="M82 1106q0 229 105.5 341t297.5 112q195 0 288 -101.5t93 -351.5q0 -217 -102 -333t-291 -116q-133 0 -217 38t-129 135.5t-45 275.5zM158 1098q0 -203 75.5 -285t229.5 -82q151 0 239.5 96.5t88.5 284.5q0 203 -77 288t-227 85q-330 0 -329 -387zM307 1079 q0 184 54.5 244.5t138.5 60.5q31 0 62.5 -12t31.5 -20q-2 -10 -6 -25.5t-8 -26.5q-4 2 -23.5 12.5t-46.5 10.5q-61 0 -98 -49t-37 -195q0 -80 13 -119.5t37 -52t64 -12.5q41 0 91 27q6 -8 10 -21.5t4 -21.5q0 -12 -37 -28.5t-76 -16.5q-61 0 -97 15t-56.5 68.5t-20.5 161.5z " />
<glyph unicode="&#xaa;" horiz-adv-x="694" d="M109 836q0 143 64.5 194t182.5 51q80 0 148 -22v176q0 82 -43 108.5t-113 26.5q-109 0 -211 -53q-18 12 -18 47q0 18 8 27q37 27 99.5 45t150.5 18q92 0 150.5 -44t58.5 -148v-613q-33 -20 -102.5 -38.5t-143.5 -18.5q-111 0 -171 48t-60 196zM186 829q0 -96 45 -129.5 t125 -33.5q41 0 84 10t64 22v287q-27 10 -62.5 16.5t-62.5 6.5q-66 0 -104.5 -10.5t-63.5 -49.5t-25 -119z" />
<glyph unicode="&#xab;" horiz-adv-x="856" d="M66 522q0 20 68.5 132t142 223.5t96.5 146.5q16 0 28.5 -10t18.5 -21.5t8 -15.5q0 -20 -60.5 -120.5t-126 -202t-85.5 -132.5q20 -31 87.5 -136t130 -207.5t62.5 -119.5q0 -6 -16.5 -32.5t-34.5 -26.5q-25 35 -101.5 151.5t-147 232.5t-70.5 138zM391 512 q0 20 67.5 124.5t141.5 209t96 135.5q23 0 39.5 -19.5t16.5 -25.5q0 -20 -60.5 -114.5t-125 -187.5t-85.5 -122q20 -29 88 -121t129.5 -183t61.5 -108q0 -6 -16.5 -30.5t-34.5 -24.5q-25 31 -101 134.5t-146.5 206.5t-70.5 126z" />
<glyph unicode="&#xac;" horiz-adv-x="819" d="M68 555q0 18 10 31.5t24 13.5h627v-373q-29 -8 -45 -8q-18 0 -31.5 10.5t-13.5 26.5v254h-563q-8 25 -8 45z" />
<glyph unicode="&#xad;" horiz-adv-x="604" d="M92 535q0 53 4 68t23 15h391q0 -53 -4 -68t-21 -15h-393z" />
<glyph unicode="&#xae;" horiz-adv-x="946" d="M82 1106q0 229 105.5 341t297.5 112q195 0 288 -101.5t93 -351.5q0 -217 -102 -333t-291 -116q-133 0 -217 38t-129 135.5t-45 275.5zM158 1098q0 -203 75.5 -285t229.5 -82q151 0 239.5 96.5t88.5 284.5q0 203 -77 288t-227 85q-330 0 -329 -387zM348 840v540q0 2 2 5.5 t8 3.5h107q90 0 131 -40t41 -108q0 -110 -90 -151q86 -92 102 -234q0 -16 -20 -16h-41q-16 100 -47 157.5t-58 77.5h-22h-53v-219q0 -12 -10.5 -14t-49.5 -2zM408 1128q20 -2 51 -2q116 0 116 115q0 94 -112 94h-55v-207z" />
<glyph unicode="&#xaf;" horiz-adv-x="526" d="M6 1294q4 45 39 45h469q6 -16 6 -43q-4 -47 -37 -47h-473q-4 16 -4 45z" />
<glyph unicode="&#xb0;" horiz-adv-x="770" d="M209 1337q0 90 49 136.5t137 46.5t130 -41t42 -140q0 -88 -48 -135t-136 -47t-131 38t-43 142zM281 1333q0 -55 25.5 -79.5t76.5 -24.5q113 -1 113 110q0 61 -25 86t-74 25q-57 0 -86.5 -26.5t-29.5 -90.5z" />
<glyph unicode="&#xb1;" horiz-adv-x="899" d="M92 25q0 53 4 68t21 15h692q0 -53 -4 -68t-21 -15h-692zM92 568q0 53 4 68t21 15h291v293q0 16 16 20.5t70 4.5v-318h315q0 -53 -4 -68t-21 -15h-290v-291q0 -16 -15.5 -20.5t-70.5 -4.5v316h-316z" />
<glyph unicode="&#xb2;" horiz-adv-x="835" d="M115 629q0 37 18 57q61 66 189 176q131 115 194.5 190.5t63.5 159.5q0 68 -37 109t-133 41q-80 0 -137.5 -27.5t-106.5 -70.5q-14 18 -19.5 30.5t-5.5 28.5q0 23 44 54.5t113 54t140 22.5q137 0 191.5 -59.5t54.5 -163.5q0 -72 -38 -139.5t-94 -126t-151 -142.5 q-100 -86 -153 -143h465q8 -23 8 -41q0 -47 -33 -47h-567q-6 23 -6 37z" />
<glyph unicode="&#xb3;" horiz-adv-x="870" d="M137 666q0 14 7.5 29.5t21.5 23.5q39 -31 90 -46.5t131 -15.5q115 0 183.5 50.5t68.5 136.5q0 61 -41 101t-106 50q-66 8 -177 9q-4 6 -7 19t-3 24q0 14 8.5 24t24.5 10q88 0 145 -8q63 41 90 82t27 92q0 47 -41 84t-133 37q-76 0 -140.5 -22.5t-111.5 -61.5 q-20 20 -20 47q0 25 14 35q35 35 108.5 61.5t172.5 26.5q131 0 190 -53t59 -133q0 -61 -30.5 -116.5t-89.5 -96.5q73 -25 114 -78t41 -123q0 -137 -94 -210t-258 -73q-82 0 -143.5 18.5t-85.5 43.5q-14 12 -15 33z" />
<glyph unicode="&#xb4;" horiz-adv-x="530" d="M102 1227q78 78 176 158.5t105 80.5q16 0 29.5 -27.5t15.5 -47.5q-12 -14 -109.5 -89t-179.5 -131q-8 0 -20.5 24t-16.5 32z" />
<glyph unicode="&#xb5;" horiz-adv-x="876" d="M129 -391v1384q0 20 10.5 29.5t34.5 9.5q31 0 45 -6v-762q0 -102 57.5 -149t157.5 -47q123 0 219 43v882q0 20 9.5 29.5t35.5 9.5q31 0 47 -6v-979q-68 -29 -150.5 -48t-160.5 -19q-152 0 -215 81v-426q0 -33 -51 -32q-25 0 -39 6z" />
<glyph unicode="&#xb6;" horiz-adv-x="1124" d="M94 866q0 283 107.5 434.5t300.5 151.5q76 0 130 -13.5t105 -39.5v-1370q0 -20 -12 -27.5t-37 -7.5q-12 0 -43 6v426q-33 -18 -89 -28.5t-103 -10.5q-156 0 -257.5 109.5t-101.5 369.5zM188 872q0 -223 80 -313t203 -90q39 -2 90 8t84 31v831q-53 31 -156 31 q-145 0 -223 -129t-78 -369zM899 2v1372q0 20 10.5 28.5t36.5 8.5q31 0 45 -6v-1376q0 -20 -9 -26.5t-38 -6.5q-20 0 -45 6z" />
<glyph unicode="&#xb7;" horiz-adv-x="417" d="M125 553q0 33 20.5 57.5t55.5 24.5q39 0 59.5 -23.5t20.5 -58.5q0 -37 -21.5 -60.5t-58.5 -23.5q-76 0 -76 84z" />
<glyph unicode="&#xb8;" horiz-adv-x="526" d="M156 -367q0 8 6 30t14 30q4 6 14.5 4t33 -10.5t40.5 -8.5q72 0 72 74q0 43 -18.5 57.5t-51.5 14.5q-25 0 -48 -4t-30 -6l39 192h68l-29 -129q2 0 10.5 1t28.5 1q41 0 69.5 -27.5t28.5 -84.5q0 -78 -42 -115t-99 -37q-35 0 -66.5 7t-39.5 11z" />
<glyph unicode="&#xb9;" horiz-adv-x="854" d="M137 631q0 25 7.5 37t25.5 12h248v672l-262 -56q-12 18 -13 45q0 33 35 45q82 23 179.5 45.5t117.5 22.5q27 0 35 -4v-770h205q2 -16 2 -43q0 -25 -6 -35t-23 -10h-545q-6 19 -6 39z" />
<glyph unicode="&#xba;" horiz-adv-x="720" d="M92 1020q0 223 75 328.5t206 105.5q90 0 145 -38t83 -132t28 -262q0 -213 -72 -320.5t-205 -107.5q-86 0 -142 35t-87 128t-31 263zM174 1010q0 -193 43 -264.5t135 -71.5q94 0 145.5 87t51.5 265q0 197 -43 270.5t-131 73.5q-98 0 -149.5 -84t-51.5 -276z" />
<glyph unicode="&#xbb;" horiz-adv-x="849" d="M96 100q0 16 61.5 107.5t129 183.5t88.5 121q-2 6 -14.5 23.5t-30.5 44.5q-225 319 -226 356q0 14 12.5 24.5t25 15.5t16.5 7q23 -31 96.5 -136.5t142 -210t68.5 -124.5q0 -23 -70.5 -127t-146.5 -207.5t-101 -134.5q-4 0 -16 6t-23.5 18.5t-11.5 32.5zM412 57 q0 16 62.5 120t131 208t88.5 137q-20 31 -85.5 132.5t-127 201.5t-61.5 121q0 14 12 24.5t26.5 15.5t18.5 7q23 -35 96.5 -146.5t142 -223t68.5 -132.5q0 -23 -70.5 -138.5t-146 -232t-100.5 -151.5q-4 2 -17.5 7t-25.5 18.5t-12 31.5z" />
<glyph unicode="&#xbc;" horiz-adv-x="2043" d="M121 631q0 49 35 49h245v672l-262 -56q-12 18 -12 45q0 33 35 45q84 23 181 45.5t118 22.5q25 0 33 -4v-770h204l4 -43q0 -23 -7 -34t-23 -11h-545q-6 19 -6 39zM585 20l865 1414q8 20 30 20q35 0 60 -39l-869 -1419q-4 -14 -26 -14q-17 0 -34 10t-26 28zM1323 195 q0 18 17 63q41 129 153.5 303t216.5 273q27 29 72 28q25 0 37 -6v-612h154q6 -14 6 -45q0 -18 -6.5 -30.5t-18.5 -12.5h-135v-131q0 -35 -51 -35q-8 0 -37 4v162h-393q-14 23 -15 39zM1420 240h313l4 499q-84 -78 -181.5 -224t-135.5 -275z" />
<glyph unicode="&#xbd;" horiz-adv-x="2029" d="M121 631q0 49 35 49h245v672l-262 -56q-12 18 -12 45q0 33 35 45q84 23 181 45.5t118 22.5q25 0 33 -4v-770h204l4 -43q0 -23 -7 -34t-23 -11h-545q-6 19 -6 39zM585 20l865 1414q8 20 30 20q35 0 60 -39l-869 -1419q-4 -14 -26 -14q-17 0 -34 10t-26 28zM1323 37 q0 37 19 57q47 49 106.5 102.5t79.5 71.5q135 119 197.5 194t62.5 159q0 68 -37 108.5t-133 40.5q-80 0 -135 -26.5t-108 -71.5q-14 16 -18.5 29.5t-4.5 29.5q0 23 44 54.5t112.5 54t138.5 22.5q137 0 191.5 -59.5t54.5 -163.5q0 -72 -39 -140.5t-95.5 -127t-152.5 -142.5 q-119 -111 -150 -141h467q6 -25 7 -41q0 -47 -31 -47h-568q-8 19 -8 37z" />
<glyph unicode="&#xbe;" horiz-adv-x="2060" d="M121 666q0 14 8 28.5t21 24.5q41 -31 91 -46.5t130 -15.5q115 0 184.5 50.5t69.5 136.5q0 61 -41 101t-107 50q-66 8 -178 9q-8 16 -8 43q0 14 8 24t25 10q88 0 143 -8q63 41 90 82t27 92q0 47 -40 84t-134 37q-147 0 -252 -84q-18 18 -19 47q0 27 13 35 q37 37 109.5 62.5t172.5 25.5q131 0 189.5 -53t58.5 -133q0 -61 -30.5 -116.5t-88.5 -96.5q74 -25 115 -78t41 -123q0 -137 -95.5 -210t-258.5 -73q-82 0 -143.5 18.5t-86.5 43.5q-14 14 -14 33zM602 20l865 1414q8 20 30 20q35 0 60 -39l-869 -1419q-4 -14 -26 -14 q-17 0 -34 10t-26 28zM1339 195q0 18 17 63q41 129 153.5 303t216.5 273q27 29 72 28q25 0 37 -6v-612h154q6 -14 6 -45q0 -18 -6.5 -30.5t-18.5 -12.5h-135v-131q0 -35 -51 -35q-8 0 -37 4v162h-393q-14 23 -15 39zM1436 240h313l4 499q-84 -78 -181.5 -224t-135.5 -275z " />
<glyph unicode="&#xbf;" horiz-adv-x="614" d="M29 -106q0 113 45 200.5t125 188.5q57 76 73 102q45 74 45 158q0 33 -7 69.5t-5 38.5q8 12 45 13q27 0 37 -2q2 -4 7 -19.5t10.5 -41.5t5.5 -58q0 -98 -54 -189q-25 -43 -86 -125q-72 -96 -108.5 -165.5t-36.5 -157.5q0 -211 211 -211q121 0 207 61q10 -25 10 -71 q0 -16 -35 -36t-89 -33t-114 -13q-122 0 -204 66.5t-82 224.5zM264 954q0 37 21.5 60.5t58.5 23.5q76 0 76 -84q0 -33 -20.5 -57.5t-55.5 -24.5q-39 0 -59.5 24t-20.5 58z" />
<glyph unicode="&#xc0;" horiz-adv-x="892" d="M16 0l394 1430q4 12 30 12q23 0 39 -4l395 -1413l3 -9q0 -18 -39 -18q-35 0 -56 2l-110 408h-451l-102 -390q-2 -14 -11.5 -17t-33.5 -3q-33 0 -58 2zM244 496h405l-110 409q-84 309 -93 404q-12 -94 -94 -404zM288 1794q2 20 15.5 48t29.5 28q8 0 105.5 -81t175.5 -158 q-4 -8 -16.5 -31t-20.5 -23q-80 54 -177 128.5t-112 88.5z" />
<glyph unicode="&#xc1;" horiz-adv-x="892" d="M16 0l394 1430q4 12 30 12q23 0 39 -4l395 -1413l3 -9q0 -18 -39 -18q-35 0 -56 2l-110 408h-451l-102 -390q-2 -14 -11.5 -17t-33.5 -3q-33 0 -58 2zM244 496h405l-110 409q-84 309 -93 404q-12 -94 -94 -404zM289 1637q78 78 176 158.5t105 80.5q16 0 29.5 -27.5 t15.5 -47.5q-12 -14 -109.5 -89t-179.5 -131q-8 0 -20.5 24t-16.5 32z" />
<glyph unicode="&#xc2;" horiz-adv-x="892" d="M16 0l394 1430q4 12 30 12q23 0 39 -4l395 -1413l3 -9q0 -18 -39 -18q-35 0 -56 2l-110 408h-451l-102 -390q-2 -14 -11.5 -17t-33.5 -3q-33 0 -58 2zM203 1620l227 226q12 4 25 4q20 0 37 -17q31 -31 114 -116.5t83 -94.5q0 -10 -24 -24t-48 -14q-25 26 -91.5 97.5 t-72.5 84.5q-25 -29 -97.5 -104.5t-86.5 -75.5q-37 0 -66 34zM244 496h405l-110 409q-84 309 -93 404q-12 -94 -94 -404z" />
<glyph unicode="&#xc3;" horiz-adv-x="892" d="M16 0l394 1430q4 12 30 12q23 0 39 -4l395 -1413l3 -9q0 -18 -39 -18q-35 0 -56 2l-110 408h-451l-102 -390q-2 -14 -11.5 -17t-33.5 -3q-33 0 -58 2zM156 1665q47 76 95 106t108 30q33 0 54.5 -14.5t43.5 -41.5q23 -25 42.5 -38t47.5 -13q49 0 76 20.5t46.5 48 t25.5 27.5q16 0 28.5 -23.5t12.5 -29.5q-27 -51 -74 -93t-125 -42q-45 0 -71.5 17.5t-53.5 50.5q-4 4 -17.5 17t-26.5 20.5t-28 7.5q-35 0 -59.5 -19.5t-46 -48.5t-27.5 -29q-16 0 -33.5 21.5t-17.5 25.5zM244 496h405l-110 409q-84 309 -93 404q-12 -94 -94 -404z" />
<glyph unicode="&#xc4;" horiz-adv-x="892" d="M16 0l394 1430q4 12 30 12q23 0 39 -4l395 -1413l3 -9q0 -18 -39 -18q-35 0 -56 2l-110 408h-451l-102 -390q-2 -14 -11.5 -17t-33.5 -3q-33 0 -58 2zM244 496h405l-110 409q-84 309 -93 404q-12 -94 -94 -404zM282 1717q0 80 58 79q29 0 41 -19t10 -60q0 -80 -57 -80 q-54 0 -52 80zM499 1717q4 80 60 79q29 0 41 -19t10 -60q0 -80 -57 -80q-27 0 -40.5 19.5t-13.5 60.5z" />
<glyph unicode="&#xc5;" horiz-adv-x="892" d="M16 0l394 1430q4 12 30 12q23 0 39 -4l395 -1413l3 -9q0 -18 -39 -18q-35 0 -56 2l-110 408h-451l-102 -390q-2 -14 -11.5 -17t-33.5 -3q-33 0 -58 2zM244 496h405l-110 409q-84 309 -93 404q-12 -94 -94 -404zM266 1733q0 92 50 137t138 45t129 -41t41 -141 q0 -88 -48 -134t-136 -46q-84 0 -129 42t-45 138zM342 1729q0 -49 24.5 -77t73.5 -28q111 0 111 111q0 57 -23.5 82t-73.5 25q-57 0 -84.5 -26t-27.5 -87z" />
<glyph unicode="&#xc6;" horiz-adv-x="1337" d="M37 0l700 1415q4 8 12.5 13.5t16.5 5.5h508q0 -59 -2 -72.5t-17 -13.5h-403v-521h379q0 -57 -3 -71.5t-20 -14.5h-356v-655h422q0 -59 -3 -72.5t-20 -13.5h-491v408h-426l-195 -390q-4 -12 -13 -16t-32 -4q-33 0 -57 2zM377 496h383v823q-94 -240 -182 -420z" />
<glyph unicode="&#xc7;" horiz-adv-x="735" d="M84 645q0 340 57.5 518t142.5 233.5t197 55.5q59 0 102.5 -16.5t65 -40t21.5 -43.5q0 -14 -5.5 -30.5t-13.5 -27.5q-20 20 -64 45t-98 25q-90 0 -155.5 -50t-109.5 -210t-44 -463q0 -229 36 -353t92.5 -166t129.5 -42q68 0 130.5 31.5t93.5 70.5q18 -37 18 -61 q0 -27 -28.5 -56.5t-78 -52t-108.5 -28.5l-25 -107q2 0 10.5 1t28.5 1q41 0 70 -27.5t29 -84.5q0 -78 -42 -115t-100 -37q-35 0 -66.5 7t-39.5 11q0 8 6 30t14 30q4 6 14.5 4t33 -10.5t40.5 -8.5q72 0 72 74q0 43 -18.5 57.5t-51.5 14.5q-27 0 -49 -4t-29 -6l35 168 q-90 4 -156.5 51t-111.5 192.5t-45 419.5z" />
<glyph unicode="&#xc8;" horiz-adv-x="704" d="M125 0v1409q0 6 6 15.5t21 9.5h489q0 -59 -2 -72.5t-16 -13.5h-406v-521h379q0 -57 -3 -71.5t-18 -14.5h-358v-655h424q0 -59 -3 -72.5t-20 -13.5h-493zM225 1794q2 20 15.5 48t29.5 28q8 0 105.5 -81t175.5 -158q-4 -8 -16.5 -31t-20.5 -23q-80 54 -177 128.5t-112 88.5 z" />
<glyph unicode="&#xc9;" horiz-adv-x="704" d="M125 0v1409q0 6 6 15.5t21 9.5h489q0 -59 -2 -72.5t-16 -13.5h-406v-521h379q0 -57 -3 -71.5t-18 -14.5h-358v-655h424q0 -59 -3 -72.5t-20 -13.5h-493zM225 1637q78 78 176 158.5t105 80.5q16 0 29.5 -27.5t15.5 -47.5q-12 -14 -109.5 -89t-179.5 -131q-8 0 -20.5 24 t-16.5 32z" />
<glyph unicode="&#xca;" horiz-adv-x="704" d="M125 0v1409q0 6 6 15.5t21 9.5h489q0 -59 -2 -72.5t-16 -13.5h-406v-521h379q0 -57 -3 -71.5t-18 -14.5h-358v-655h424q0 -59 -3 -72.5t-20 -13.5h-493zM139 1620l227 226q12 4 25 4q20 0 37 -17q31 -31 114 -116.5t83 -94.5q0 -10 -24 -24t-48 -14q-25 26 -91.5 97.5 t-72.5 84.5q-25 -29 -97.5 -104.5t-86.5 -75.5q-37 0 -66 34z" />
<glyph unicode="&#xcb;" horiz-adv-x="704" d="M125 0v1409q0 6 6 15.5t21 9.5h489q0 -59 -2 -72.5t-16 -13.5h-406v-521h379q0 -57 -3 -71.5t-18 -14.5h-358v-655h424q0 -59 -3 -72.5t-20 -13.5h-493zM219 1717q0 80 58 79q29 0 41 -19t10 -60q0 -80 -57 -80q-54 0 -52 80zM436 1717q4 80 60 79q29 0 41 -19t10 -60 q0 -80 -57 -80q-27 0 -40.5 19.5t-13.5 60.5z" />
<glyph unicode="&#xcc;" horiz-adv-x="335" d="M10 1794q2 20 15.5 48t29.5 28q8 0 105.5 -81t175.5 -158q-4 -8 -16.5 -31t-20.5 -23q-80 54 -177 128.5t-112 88.5zM121 0v1384q0 27 4 36.5t21.5 11.5t68.5 2v-1409q0 -12 -5 -17.5t-27.5 -6.5t-61.5 -1z" />
<glyph unicode="&#xcd;" horiz-adv-x="335" d="M10 1637q78 78 176 158.5t105 80.5q16 0 29.5 -27.5t15.5 -47.5q-12 -14 -109.5 -89t-179.5 -131q-8 0 -20.5 24t-16.5 32zM121 0v1384q0 27 4 36.5t21.5 11.5t68.5 2v-1409q0 -12 -5 -17.5t-27.5 -6.5t-61.5 -1z" />
<glyph unicode="&#xce;" horiz-adv-x="335" d="M-76 1620l227 226q12 4 25 4q20 0 37 -17q31 -31 114 -116.5t83 -94.5q0 -10 -24 -24t-48 -14q-25 26 -91.5 97.5t-72.5 84.5q-25 -29 -97.5 -104.5t-86.5 -75.5q-37 0 -66 34zM121 0v1384q0 27 4 36.5t21.5 11.5t68.5 2v-1409q0 -12 -5 -17.5t-27.5 -6.5t-61.5 -1z" />
<glyph unicode="&#xcf;" horiz-adv-x="335" d="M4 1717q0 80 58 79q29 0 41 -19t10 -60q0 -80 -57 -80q-54 0 -52 80zM121 0v1384q0 27 4 36.5t21.5 11.5t68.5 2v-1409q0 -12 -5 -17.5t-27.5 -6.5t-61.5 -1zM221 1717q4 80 60 79q29 0 41 -19t10 -60q0 -80 -57 -80q-27 0 -40.5 19.5t-13.5 60.5z" />
<glyph unicode="&#xd0;" horiz-adv-x="858" d="M29 715q0 53 4 68.5t22 15.5h70v600q0 16 10 25.5t41 9.5h203q203 0 301 -149.5t98 -485.5q0 -317 -53 -493.5t-142 -241t-214 -64.5h-244v715h-96zM215 90l154 -2q92 0 158.5 52.5t108.5 209t42 449.5q0 295 -71.5 422t-231.5 127h-160v-549h234q0 -53 -4.5 -68.5 t-22.5 -15.5h-207v-625z" />
<glyph unicode="&#xd1;" horiz-adv-x="944" d="M121 0v1409q0 25 24 25h64l250 -570q47 -119 122.5 -302t129.5 -312l24 -57q-4 295 -4 727v489q0 14 4 18.5t26.5 5.5t61.5 1v-1409q0 -25 -26 -25h-62l-256 580q-2 4 -172 421l-100 246l6 -719v-503q0 -14 -4 -18.5t-26.5 -5.5t-61.5 -1zM180 1665q47 76 95 106t108 30 q33 0 54.5 -14.5t43.5 -41.5q23 -25 42.5 -38t47.5 -13q49 0 76 20.5t46.5 48t25.5 27.5q16 0 28.5 -23.5t12.5 -29.5q-27 -51 -74 -93t-125 -42q-45 0 -71.5 17.5t-53.5 50.5q-4 4 -17.5 17t-26.5 20.5t-28 7.5q-35 0 -59.5 -19.5t-46 -48.5t-27.5 -29q-16 0 -33.5 21.5 t-17.5 25.5z" />
<glyph unicode="&#xd2;" horiz-adv-x="927" d="M84 727q0 389 95 558t300 169q135 0 213 -69.5t114 -226.5t36 -429q0 -274 -40 -438t-124 -237.5t-221 -73.5q-135 0 -216 68.5t-119 230t-38 448.5zM184 696q0 -229 28 -364t87 -196.5t160 -61.5q102 0 164.5 64.5t92 207.5t29.5 385q0 236 -26.5 373t-85 196.5 t-156.5 59.5q-102 0 -165.5 -64.5t-95.5 -210t-32 -389.5zM305 1794q2 20 15.5 48t29.5 28q8 0 105.5 -81t175.5 -158q-4 -8 -16.5 -31t-20.5 -23q-80 54 -177 128.5t-112 88.5z" />
<glyph unicode="&#xd3;" horiz-adv-x="927" d="M84 727q0 389 95 558t300 169q135 0 213 -69.5t114 -226.5t36 -429q0 -274 -40 -438t-124 -237.5t-221 -73.5q-135 0 -216 68.5t-119 230t-38 448.5zM184 696q0 -229 28 -364t87 -196.5t160 -61.5q102 0 164.5 64.5t92 207.5t29.5 385q0 236 -26.5 373t-85 196.5 t-156.5 59.5q-102 0 -165.5 -64.5t-95.5 -210t-32 -389.5zM305 1637q78 78 176 158.5t105 80.5q16 0 29.5 -27.5t15.5 -47.5q-12 -14 -109.5 -89t-179.5 -131q-8 0 -20.5 24t-16.5 32z" />
<glyph unicode="&#xd4;" horiz-adv-x="927" d="M84 727q0 389 95 558t300 169q135 0 213 -69.5t114 -226.5t36 -429q0 -274 -40 -438t-124 -237.5t-221 -73.5q-135 0 -216 68.5t-119 230t-38 448.5zM184 696q0 -229 28 -364t87 -196.5t160 -61.5q102 0 164.5 64.5t92 207.5t29.5 385q0 236 -26.5 373t-85 196.5 t-156.5 59.5q-102 0 -165.5 -64.5t-95.5 -210t-32 -389.5zM219 1620l227 226q12 4 25 4q20 0 37 -17q31 -31 114 -116.5t83 -94.5q0 -10 -24 -24t-48 -14q-25 26 -91.5 97.5t-72.5 84.5q-25 -29 -97.5 -104.5t-86.5 -75.5q-37 0 -66 34z" />
<glyph unicode="&#xd5;" horiz-adv-x="927" d="M84 727q0 389 95 558t300 169q135 0 213 -69.5t114 -226.5t36 -429q0 -274 -40 -438t-124 -237.5t-221 -73.5q-135 0 -216 68.5t-119 230t-38 448.5zM172 1665q47 76 95 106t108 30q33 0 54.5 -14.5t43.5 -41.5q23 -25 42.5 -38t47.5 -13q49 0 76 20.5t46.5 48t25.5 27.5 q16 0 28.5 -23.5t12.5 -29.5q-27 -51 -74 -93t-125 -42q-45 0 -71.5 17.5t-53.5 50.5q-4 4 -17.5 17t-26.5 20.5t-28 7.5q-35 0 -59.5 -19.5t-46 -48.5t-27.5 -29q-16 0 -33.5 21.5t-17.5 25.5zM184 696q0 -229 28 -364t87 -196.5t160 -61.5q102 0 164.5 64.5t92 207.5 t29.5 385q0 236 -26.5 373t-85 196.5t-156.5 59.5q-102 0 -165.5 -64.5t-95.5 -210t-32 -389.5z" />
<glyph unicode="&#xd6;" horiz-adv-x="927" d="M84 727q0 389 95 558t300 169q135 0 213 -69.5t114 -226.5t36 -429q0 -274 -40 -438t-124 -237.5t-221 -73.5q-135 0 -216 68.5t-119 230t-38 448.5zM184 696q0 -229 28 -364t87 -196.5t160 -61.5q102 0 164.5 64.5t92 207.5t29.5 385q0 236 -26.5 373t-85 196.5 t-156.5 59.5q-102 0 -165.5 -64.5t-95.5 -210t-32 -389.5zM299 1717q0 80 58 79q29 0 41 -19t10 -60q0 -80 -57 -80q-54 0 -52 80zM516 1717q4 80 60 79q29 0 41 -19t10 -60q0 -80 -57 -80q-27 0 -40.5 19.5t-13.5 60.5z" />
<glyph unicode="&#xd7;" d="M190 801q23 23 39.5 36t26.5 13q6 0 14 -8l179 -201l176 201q8 8 14 8q10 0 26.5 -13.5t36.5 -35.5l-196 -223l196 -224q-6 -6 -22 -22.5t-25.5 -22.5t-15.5 -6q-8 0 -16 8l-177 199l-176 -199q-8 -8 -14 -8q-8 0 -21.5 11.5t-24.5 22.5l-17 17l196 221z" />
<glyph unicode="&#xd8;" horiz-adv-x="931" d="M88 727q0 264 42 423t127 231.5t220 72.5q152 0 234 -90q37 100 43 109q4 0 18 -3.5t28.5 -9.5t16.5 -18q2 -4 -39 -117l-14 -39q80 -166 80 -557q0 -274 -40 -438t-124 -237.5t-221 -73.5q-160 0 -240 94q-33 -84 -45 -109q-18 0 -38.5 7.5t-22.5 25.5q-2 2 14 42t25 60 l18 47q-82 170 -82 580zM186 696q0 -330 56 -469l407 1059q-57 76 -172 76q-151 0 -221 -152.5t-70 -513.5zM283 152q59 -78 172 -78q102 0 165.5 59.5t95.5 202.5t32 395q0 338 -58 479q-70 -182 -146.5 -380.5t-137.5 -358.5z" />
<glyph unicode="&#xd9;" horiz-adv-x="956" d="M121 449v958q0 14 4 19.5t27.5 6.5t62.5 1v-988q0 -121 18.5 -200.5t79 -128.5t179.5 -49q72 0 143.5 14t107.5 33v1294q0 12 5.5 17.5t28 6.5t59.5 1v-1385q-45 -29 -141.5 -49t-202.5 -20q-158 0 -240 61t-106.5 160.5t-24.5 247.5zM321 1794q2 20 15.5 48t29.5 28 q8 0 105.5 -81t175.5 -158q-4 -8 -16.5 -31t-20.5 -23q-80 54 -177 128.5t-112 88.5z" />
<glyph unicode="&#xda;" horiz-adv-x="956" d="M121 449v958q0 14 4 19.5t27.5 6.5t62.5 1v-988q0 -121 18.5 -200.5t79 -128.5t179.5 -49q72 0 143.5 14t107.5 33v1294q0 12 5.5 17.5t28 6.5t59.5 1v-1385q-45 -29 -141.5 -49t-202.5 -20q-158 0 -240 61t-106.5 160.5t-24.5 247.5zM322 1637q78 78 176 158.5t105 80.5 q16 0 29.5 -27.5t15.5 -47.5q-12 -14 -109.5 -89t-179.5 -131q-8 0 -20.5 24t-16.5 32z" />
<glyph unicode="&#xdb;" horiz-adv-x="956" d="M121 449v958q0 14 4 19.5t27.5 6.5t62.5 1v-988q0 -121 18.5 -200.5t79 -128.5t179.5 -49q72 0 143.5 14t107.5 33v1294q0 12 5.5 17.5t28 6.5t59.5 1v-1385q-45 -29 -141.5 -49t-202.5 -20q-158 0 -240 61t-106.5 160.5t-24.5 247.5zM235 1620l227 226q12 4 25 4 q20 0 37 -17q31 -31 114 -116.5t83 -94.5q0 -10 -24 -24t-48 -14q-25 26 -91.5 97.5t-72.5 84.5q-25 -29 -97.5 -104.5t-86.5 -75.5q-37 0 -66 34z" />
<glyph unicode="&#xdc;" horiz-adv-x="956" d="M121 449v958q0 14 4 19.5t27.5 6.5t62.5 1v-988q0 -121 18.5 -200.5t79 -128.5t179.5 -49q72 0 143.5 14t107.5 33v1294q0 12 5.5 17.5t28 6.5t59.5 1v-1385q-45 -29 -141.5 -49t-202.5 -20q-158 0 -240 61t-106.5 160.5t-24.5 247.5zM315 1717q0 80 58 79q29 0 41 -19 t10 -60q0 -80 -57 -80q-54 0 -52 80zM532 1717q4 80 60 79q29 0 41 -19t10 -60q0 -80 -57 -80q-27 0 -40.5 19.5t-13.5 60.5z" />
<glyph unicode="&#xdd;" horiz-adv-x="737" d="M12 1417q-4 8 1 11.5t31 4.5t71 1l106 -297q43 -115 97.5 -282t56.5 -185q2 14 52 169.5t99 297.5l99 278q4 10 9 13.5t29.5 4.5t63.5 1l-309 -846v-563q0 -14 -4 -18.5t-26.5 -5.5t-61.5 -1v588zM211 1637q78 78 176 158.5t105 80.5q16 0 29.5 -27.5t15.5 -47.5 q-12 -14 -109.5 -89t-179.5 -131q-8 0 -20.5 24t-16.5 32z" />
<glyph unicode="&#xde;" horiz-adv-x="763" d="M121 0v1409q0 16 13 20.5t50 4.5h29v-283h149q184 0 267.5 -102.5t83.5 -282.5q0 -217 -95.5 -325.5t-265.5 -108.5h-139v-307q0 -12 -5 -17.5t-27.5 -6.5t-59.5 -1zM213 422l143 -2q131 0 194.5 90t63.5 262q0 135 -56 214t-191 79h-154v-643z" />
<glyph unicode="&#xdf;" horiz-adv-x="968" d="M111 0q2 6 8 31.5t6 62.5l-2 1030q0 317 319 318q137 0 225.5 -45t128.5 -111.5t40 -132.5t-39 -107.5t-115 -93.5q-63 -41 -94 -71.5t-31 -75.5q0 -43 34 -79t107 -91q113 -82 175.5 -161t62.5 -198q0 -141 -84 -217.5t-227 -76.5q-70 0 -125.5 14t-85 34.5t-29.5 37.5 q0 37 29 65q72 -68 198 -67q100 0 163 52t63 154q0 90 -53.5 155t-153.5 142q-86 68 -129 118t-43 114q0 66 39 107.5t114 90.5q63 39 95 72t32 80q0 49 -30.5 96t-96 78t-161.5 31q-123 0 -179.5 -66.5t-56.5 -220.5l2 -1026q0 -33 -10 -46t-43 -13q-23 0 -38 7t-15 9z" />
<glyph unicode="&#xe0;" horiz-adv-x="761" d="M80 283q0 197 86 264t231 67q111 0 172 -22v186q0 102 -44 139t-130 37q-96 0 -177 -15t-126 -36q-12 25 -12 53q0 29 14 37q35 20 126 35.5t196 15.5q125 0 185.5 -56t60.5 -191v-127q0 -375 -13 -615q-117 -76 -274 -75q-135 -5 -215 54.5t-80 248.5zM174 285 q0 -98 28.5 -147.5t74 -63t114.5 -13.5q51 0 99.5 16.5t68.5 35.5q10 115 10 407q-59 20 -145 21q-78 0 -130 -17.5t-86 -73t-34 -165.5zM213 1384q2 20 15.5 48t29.5 28q8 0 105.5 -81t175.5 -158q-4 -8 -16.5 -31t-20.5 -23q-80 54 -177 128.5t-112 88.5z" />
<glyph unicode="&#xe1;" horiz-adv-x="761" d="M80 283q0 197 86 264t231 67q111 0 172 -22v186q0 102 -44 139t-130 37q-96 0 -177 -15t-126 -36q-12 25 -12 53q0 29 14 37q35 20 126 35.5t196 15.5q125 0 185.5 -56t60.5 -191v-127q0 -375 -13 -615q-117 -76 -274 -75q-135 -5 -215 54.5t-80 248.5zM174 285 q0 -98 28.5 -147.5t74 -63t114.5 -13.5q51 0 99.5 16.5t68.5 35.5q10 115 10 407q-59 20 -145 21q-78 0 -130 -17.5t-86 -73t-34 -165.5zM213 1227q78 78 176 158.5t105 80.5q16 0 29.5 -27.5t15.5 -47.5q-12 -14 -109.5 -89t-179.5 -131q-8 0 -20.5 24t-16.5 32z" />
<glyph unicode="&#xe2;" horiz-adv-x="761" d="M80 283q0 197 86 264t231 67q111 0 172 -22v186q0 102 -44 139t-130 37q-96 0 -177 -15t-126 -36q-12 25 -12 53q0 29 14 37q35 20 126 35.5t196 15.5q125 0 185.5 -56t60.5 -191v-127q0 -375 -13 -615q-117 -76 -274 -75q-135 -5 -215 54.5t-80 248.5zM127 1210l227 226 q12 4 25 4q20 0 37 -17q31 -31 114 -116.5t83 -94.5q0 -10 -24 -24t-48 -14q-25 26 -91.5 97.5t-72.5 84.5q-25 -29 -97.5 -104.5t-86.5 -75.5q-37 0 -66 34zM174 285q0 -98 28.5 -147.5t74 -63t114.5 -13.5q51 0 99.5 16.5t68.5 35.5q10 115 10 407q-59 20 -145 21 q-78 0 -130 -17.5t-86 -73t-34 -165.5z" />
<glyph unicode="&#xe3;" horiz-adv-x="761" d="M80 283q0 197 86 264t231 67q111 0 172 -22v186q0 102 -44 139t-130 37q-96 0 -177 -15t-126 -36q-12 25 -12 53q0 29 14 37q35 20 126 35.5t196 15.5q125 0 185.5 -56t60.5 -191v-127q0 -375 -13 -615q-117 -76 -274 -75q-135 -5 -215 54.5t-80 248.5zM80 1255 q47 76 95 106t108 30q33 0 54.5 -14.5t43.5 -41.5q23 -25 42.5 -38t47.5 -13q49 0 76 20.5t46.5 48t25.5 27.5q16 0 28.5 -23.5t12.5 -29.5q-27 -51 -74 -93t-125 -42q-45 0 -71.5 17.5t-53.5 50.5q-4 4 -17.5 17t-26.5 20.5t-28 7.5q-35 0 -59.5 -19.5t-46 -48.5t-27.5 -29 q-16 0 -33.5 21.5t-17.5 25.5zM174 285q0 -98 28.5 -147.5t74 -63t114.5 -13.5q51 0 99.5 16.5t68.5 35.5q10 115 10 407q-59 20 -145 21q-78 0 -130 -17.5t-86 -73t-34 -165.5z" />
<glyph unicode="&#xe4;" horiz-adv-x="761" d="M80 283q0 197 86 264t231 67q111 0 172 -22v186q0 102 -44 139t-130 37q-96 0 -177 -15t-126 -36q-12 25 -12 53q0 29 14 37q35 20 126 35.5t196 15.5q125 0 185.5 -56t60.5 -191v-127q0 -375 -13 -615q-117 -76 -274 -75q-135 -5 -215 54.5t-80 248.5zM174 285 q0 -98 28.5 -147.5t74 -63t114.5 -13.5q51 0 99.5 16.5t68.5 35.5q10 115 10 407q-59 20 -145 21q-78 0 -130 -17.5t-86 -73t-34 -165.5zM206 1307q0 80 58 79q29 0 41 -19t10 -60q0 -80 -57 -80q-54 0 -52 80zM423 1307q4 80 60 79q29 0 41 -19t10 -60q0 -80 -57 -80 q-27 0 -40.5 19.5t-13.5 60.5z" />
<glyph unicode="&#xe5;" horiz-adv-x="761" d="M80 283q0 197 86 264t231 67q111 0 172 -22v186q0 102 -44 139t-130 37q-96 0 -177 -15t-126 -36q-12 25 -12 53q0 29 14 37q35 20 126 35.5t196 15.5q125 0 185.5 -56t60.5 -191v-127q0 -375 -13 -615q-117 -76 -274 -75q-135 -5 -215 54.5t-80 248.5zM174 285 q0 -98 28.5 -147.5t74 -63t114.5 -13.5q51 0 99.5 16.5t68.5 35.5q10 115 10 407q-59 20 -145 21q-78 0 -130 -17.5t-86 -73t-34 -165.5zM190 1323q0 92 50 137t138 45t129 -41t41 -141q0 -88 -48 -134t-136 -46q-84 0 -129 42t-45 138zM266 1319q0 -49 24.5 -77t73.5 -28 q111 0 111 111q0 57 -23.5 82t-73.5 25q-57 0 -84.5 -26t-27.5 -87z" />
<glyph unicode="&#xe6;" horiz-adv-x="1300" d="M80 287q0 199 86 268.5t229 69.5q113 0 174 -23v180q0 102 -47 139t-139 37q-88 0 -163 -16t-122 -43q-10 23 -10 55q0 10 5 21.5t13 15.5q37 23 116 38t194 15q104 0 161.5 -40.5t71.5 -135.5q45 106 119 141t174 35q258 0 258 -315q0 -158 -16 -246q-86 -14 -187 -14 q-170 0 -327 33v-49q0 -166 30.5 -248t83 -106.5t138.5 -24.5q158 -1 258 69q10 -25 10 -84q0 -12 -40 -30.5t-102.5 -31.5t-132.5 -13q-96 0 -159.5 22.5t-102.5 87.5v-49q-98 -61 -278 -61q-88 -2 -150.5 16t-103.5 85t-41 202zM174 283q0 -96 28.5 -145.5t72.5 -63 t114 -13.5q55 0 108.5 13.5t71.5 34.5v421q-72 20 -145 21q-119 0 -184.5 -53.5t-65.5 -214.5zM674 584q184 -37 313 -37q57 0 115 10q8 68 8 150q-2 133 -39 193.5t-133 60.5q-102 0 -174 -74t-90 -303z" />
<glyph unicode="&#xe7;" horiz-adv-x="692" d="M88 489q0 330 104.5 442.5t266.5 112.5q68 0 120 -23.5t52 -53.5q0 -29 -15 -58q-68 51 -163 52q-117 0 -194 -95.5t-77 -382.5q0 -170 29 -261t80 -125t129 -34q63 0 115.5 20.5t82.5 49.5q12 -31 13 -57q0 -31 -59.5 -60.5t-147.5 -35.5l-23 -103q2 0 10.5 1t28.5 1 q41 0 70 -27.5t29 -84.5q0 -78 -42 -115t-100 -37q-35 0 -66.5 7t-39.5 11q0 8 6 30t14 30q4 6 14.5 4t33 -10.5t40.5 -8.5q72 0 72 74q0 43 -18.5 57.5t-51.5 14.5q-27 0 -49 -4t-28 -6l32 168q-86 6 -144 49t-91 152.5t-33 305.5z" />
<glyph unicode="&#xe8;" horiz-adv-x="776" d="M84 455q0 248 53 378t132 170.5t182 40.5q131 0 193.5 -85t62.5 -238q0 -150 -17 -238q-121 -23 -268.5 -30t-245.5 -4q0 -160 31 -242t86 -109.5t141 -27.5q72 0 138.5 19.5t113.5 51.5q12 -33 12 -65q0 -20 -38.5 -44t-102 -38t-135.5 -14q-111 0 -182.5 34.5 t-113.5 139t-42 301.5zM178 528h66q246 0 364 29q8 68 8 141q-2 135 -38.5 199t-133.5 64q-108 0 -182 -85t-84 -348zM270 1384q2 20 15.5 48t29.5 28q8 0 105.5 -81t175.5 -158q-4 -8 -16.5 -31t-20.5 -23q-80 54 -177 128.5t-112 88.5z" />
<glyph unicode="&#xe9;" horiz-adv-x="776" d="M84 455q0 248 53 378t132 170.5t182 40.5q131 0 193.5 -85t62.5 -238q0 -150 -17 -238q-121 -23 -268.5 -30t-245.5 -4q0 -160 31 -242t86 -109.5t141 -27.5q72 0 138.5 19.5t113.5 51.5q12 -33 12 -65q0 -20 -38.5 -44t-102 -38t-135.5 -14q-111 0 -182.5 34.5 t-113.5 139t-42 301.5zM178 528h66q246 0 364 29q8 68 8 141q-2 135 -38.5 199t-133.5 64q-108 0 -182 -85t-84 -348zM270 1227q78 78 176 158.5t105 80.5q16 0 29.5 -27.5t15.5 -47.5q-12 -14 -109.5 -89t-179.5 -131q-8 0 -20.5 24t-16.5 32z" />
<glyph unicode="&#xea;" horiz-adv-x="776" d="M84 455q0 248 53 378t132 170.5t182 40.5q131 0 193.5 -85t62.5 -238q0 -150 -17 -238q-121 -23 -268.5 -30t-245.5 -4q0 -160 31 -242t86 -109.5t141 -27.5q72 0 138.5 19.5t113.5 51.5q12 -33 12 -65q0 -20 -38.5 -44t-102 -38t-135.5 -14q-111 0 -182.5 34.5 t-113.5 139t-42 301.5zM178 528h66q246 0 364 29q8 68 8 141q-2 135 -38.5 199t-133.5 64q-108 0 -182 -85t-84 -348zM184 1210l227 226q12 4 25 4q20 0 37 -17q31 -31 114 -116.5t83 -94.5q0 -10 -24 -24t-48 -14q-25 26 -91.5 97.5t-72.5 84.5q-25 -29 -97.5 -104.5 t-86.5 -75.5q-37 0 -66 34z" />
<glyph unicode="&#xeb;" horiz-adv-x="776" d="M84 455q0 248 53 378t132 170.5t182 40.5q131 0 193.5 -85t62.5 -238q0 -150 -17 -238q-121 -23 -268.5 -30t-245.5 -4q0 -160 31 -242t86 -109.5t141 -27.5q72 0 138.5 19.5t113.5 51.5q12 -33 12 -65q0 -20 -38.5 -44t-102 -38t-135.5 -14q-111 0 -182.5 34.5 t-113.5 139t-42 301.5zM178 528h66q246 0 364 29q8 68 8 141q-2 135 -38.5 199t-133.5 64q-108 0 -182 -85t-84 -348zM264 1307q0 80 58 79q29 0 41 -19t10 -60q0 -80 -57 -80q-54 0 -52 80zM481 1307q4 80 60 79q29 0 41 -19t10 -60q0 -80 -57 -80q-27 0 -40.5 19.5 t-13.5 60.5z" />
<glyph unicode="&#xec;" horiz-adv-x="346" d="M16 1384q2 20 15.5 48t29.5 28q8 0 105.5 -81t175.5 -158q-4 -8 -16.5 -31t-20.5 -23q-80 54 -177 128.5t-112 88.5zM127 0v977q0 33 16.5 40t75.5 7v-999q0 -14 -4 -18.5t-26.5 -5.5t-61.5 -1z" />
<glyph unicode="&#xed;" horiz-adv-x="346" d="M16 1227q78 78 176 158.5t105 80.5q16 0 29.5 -27.5t15.5 -47.5q-12 -14 -109.5 -89t-179.5 -131q-8 0 -20.5 24t-16.5 32zM127 0v977q0 33 16.5 40t75.5 7v-999q0 -14 -4 -18.5t-26.5 -5.5t-61.5 -1z" />
<glyph unicode="&#xee;" horiz-adv-x="346" d="M-70 1210l227 226q12 4 25 4q20 0 37 -17q31 -31 114 -116.5t83 -94.5q0 -10 -24 -24t-48 -14q-25 26 -91.5 97.5t-72.5 84.5q-25 -29 -97.5 -104.5t-86.5 -75.5q-37 0 -66 34zM127 0v977q0 33 16.5 40t75.5 7v-999q0 -14 -4 -18.5t-26.5 -5.5t-61.5 -1z" />
<glyph unicode="&#xef;" horiz-adv-x="346" d="M10 1307q0 80 58 79q29 0 41 -19t10 -60q0 -80 -57 -80q-54 0 -52 80zM127 0v977q0 33 16.5 40t75.5 7v-999q0 -14 -4 -18.5t-26.5 -5.5t-61.5 -1zM227 1307q4 80 60 79q29 0 41 -19t10 -60q0 -80 -57 -80q-27 0 -40.5 19.5t-13.5 60.5z" />
<glyph unicode="&#xf0;" horiz-adv-x="890" d="M84 524q0 252 93 384t265 132q158 0 244 -100q-49 203 -176 354l-197 -77q-23 55 -22 69q0 14 14 21l141 55q-57 57 -137 115q8 20 26.5 32.5t37.5 12.5q20 0 39 -15q70 -51 127 -108l159 63q23 -57 23 -69t-14 -19l-109 -43q111 -137 163 -318.5t52 -420.5 q0 -285 -74.5 -448.5t-283.5 -163.5q-186 0 -278.5 130t-92.5 414zM176 516q0 -455 277 -455q112 0 171.5 74t78 189.5t18.5 279.5q0 90 -10 193q-90 160 -252 159q-135 0 -209 -114.5t-74 -325.5z" />
<glyph unicode="&#xf1;" horiz-adv-x="835" d="M121 0v973q176 72 334 71q160 0 219 -66.5t59 -217.5v-735q0 -14 -4 -18.5t-27.5 -5.5t-62.5 -1v737q0 123 -38 173.5t-148 50.5q-55 0 -123 -13.5t-117 -38.5v-884q0 -14 -4 -18.5t-26.5 -5.5t-61.5 -1zM127 1255q47 76 95 106t108 30q33 0 54.5 -14.5t43.5 -41.5 q23 -25 42.5 -38t47.5 -13q49 0 76 20.5t46.5 48t25.5 27.5q16 0 28.5 -23.5t12.5 -29.5q-27 -51 -74 -93t-125 -42q-45 0 -71.5 17.5t-53.5 50.5q-4 4 -17.5 17t-26.5 20.5t-28 7.5q-35 0 -59.5 -19.5t-46 -48.5t-27.5 -29q-16 0 -33.5 21.5t-17.5 25.5z" />
<glyph unicode="&#xf2;" horiz-adv-x="802" d="M72 510q0 535 342 534q111 0 179.5 -47t103 -163.5t34.5 -321.5q0 -268 -87 -400t-253 -132q-110 0 -178 37.5t-104.5 153.5t-36.5 339zM170 500q0 -176 25.5 -271.5t72.5 -131.5t125 -36q115 0 177.5 111t62.5 344q0 176 -25.5 274.5t-74 135.5t-123.5 37 q-117 0 -178.5 -105.5t-61.5 -357.5zM252 1384q2 20 15.5 48t29.5 28q8 0 105.5 -81t175.5 -158q-4 -8 -16.5 -31t-20.5 -23q-80 54 -177 128.5t-112 88.5z" />
<glyph unicode="&#xf3;" horiz-adv-x="802" d="M72 510q0 535 342 534q111 0 179.5 -47t103 -163.5t34.5 -321.5q0 -268 -87 -400t-253 -132q-110 0 -178 37.5t-104.5 153.5t-36.5 339zM170 500q0 -176 25.5 -271.5t72.5 -131.5t125 -36q115 0 177.5 111t62.5 344q0 176 -25.5 274.5t-74 135.5t-123.5 37 q-117 0 -178.5 -105.5t-61.5 -357.5zM252 1227q78 78 176 158.5t105 80.5q16 0 29.5 -27.5t15.5 -47.5q-12 -14 -109.5 -89t-179.5 -131q-8 0 -20.5 24t-16.5 32z" />
<glyph unicode="&#xf4;" horiz-adv-x="802" d="M72 510q0 535 342 534q111 0 179.5 -47t103 -163.5t34.5 -321.5q0 -268 -87 -400t-253 -132q-110 0 -178 37.5t-104.5 153.5t-36.5 339zM166 1210l227 226q12 4 25 4q20 0 37 -17q31 -31 114 -116.5t83 -94.5q0 -10 -24 -24t-48 -14q-25 26 -91.5 97.5t-72.5 84.5 q-25 -29 -97.5 -104.5t-86.5 -75.5q-37 0 -66 34zM170 500q0 -176 25.5 -271.5t72.5 -131.5t125 -36q115 0 177.5 111t62.5 344q0 176 -25.5 274.5t-74 135.5t-123.5 37q-117 0 -178.5 -105.5t-61.5 -357.5z" />
<glyph unicode="&#xf5;" horiz-adv-x="802" d="M72 510q0 535 342 534q111 0 179.5 -47t103 -163.5t34.5 -321.5q0 -268 -87 -400t-253 -132q-110 0 -178 37.5t-104.5 153.5t-36.5 339zM119 1255q47 76 95 106t108 30q33 0 54.5 -14.5t43.5 -41.5q23 -25 42.5 -38t47.5 -13q49 0 76 20.5t46.5 48t25.5 27.5 q16 0 28.5 -23.5t12.5 -29.5q-27 -51 -74 -93t-125 -42q-45 0 -71.5 17.5t-53.5 50.5q-4 4 -17.5 17t-26.5 20.5t-28 7.5q-35 0 -59.5 -19.5t-46 -48.5t-27.5 -29q-16 0 -33.5 21.5t-17.5 25.5zM170 500q0 -176 25.5 -271.5t72.5 -131.5t125 -36q115 0 177.5 111t62.5 344 q0 176 -25.5 274.5t-74 135.5t-123.5 37q-117 0 -178.5 -105.5t-61.5 -357.5z" />
<glyph unicode="&#xf6;" horiz-adv-x="802" d="M72 510q0 535 342 534q111 0 179.5 -47t103 -163.5t34.5 -321.5q0 -268 -87 -400t-253 -132q-110 0 -178 37.5t-104.5 153.5t-36.5 339zM170 500q0 -176 25.5 -271.5t72.5 -131.5t125 -36q115 0 177.5 111t62.5 344q0 176 -25.5 274.5t-74 135.5t-123.5 37 q-117 0 -178.5 -105.5t-61.5 -357.5zM245 1307q0 80 58 79q29 0 41 -19t10 -60q0 -80 -57 -80q-54 0 -52 80zM462 1307q4 80 60 79q29 0 41 -19t10 -60q0 -80 -57 -80q-27 0 -40.5 19.5t-13.5 60.5z" />
<glyph unicode="&#xf7;" d="M92 535q0 53 4 68t21 15h692q0 -53 -4 -68t-21 -15h-692zM371 295q0 33 19.5 55.5t51.5 22.5q35 0 55.5 -22.5t20.5 -55.5q0 -35 -21.5 -56.5t-54.5 -21.5q-34 0 -52.5 20.5t-18.5 57.5zM371 848q0 33 19.5 55.5t51.5 22.5q37 0 56.5 -21.5t19.5 -56.5q0 -33 -21.5 -55.5 t-54.5 -22.5q-34 0 -52.5 20.5t-18.5 57.5z" />
<glyph unicode="&#xf8;" horiz-adv-x="878" d="M68 0q0 2 94 162q-41 119 -41 348q0 535 338 534q78 0 134 -22.5t95 -73.5l74 121q4 -2 18.5 -6t26.5 -13.5t12 -21.5q0 -11 -90 -158q49 -123 49 -358q0 -268 -85 -400t-242 -132q-90 0 -150.5 22.5t-101.5 81.5q-33 -59 -52.5 -90t-23.5 -37q-23 2 -39 12.5t-16 30.5z M217 500q0 -162 23 -258l383 635q-29 45 -69 64.5t-95 19.5q-117 0 -179.5 -105.5t-62.5 -355.5zM266 162q29 -55 72 -78t104 -23q115 0 177.5 111t62.5 344q0 188 -31 287q-47 -80 -336 -559z" />
<glyph unicode="&#xf9;" horiz-adv-x="868" d="M129 356v643q0 14 4 18.5t26.5 5.5t61.5 1v-682q0 -111 18.5 -169t64.5 -84t136 -26q47 0 105.5 11.5t103.5 38.5v886q0 12 5 17.5t28 6.5t59 1v-975q-68 -35 -150.5 -52t-160.5 -17q-119 0 -184.5 36.5t-91 117.5t-25.5 222zM278 1384q2 20 15.5 48t29.5 28 q8 0 105.5 -81t175.5 -158q-4 -8 -16.5 -31t-20.5 -23q-80 54 -177 128.5t-112 88.5z" />
<glyph unicode="&#xfa;" horiz-adv-x="868" d="M129 356v643q0 14 4 18.5t26.5 5.5t61.5 1v-682q0 -111 18.5 -169t64.5 -84t136 -26q47 0 105.5 11.5t103.5 38.5v886q0 12 5 17.5t28 6.5t59 1v-975q-68 -35 -150.5 -52t-160.5 -17q-119 0 -184.5 36.5t-91 117.5t-25.5 222zM279 1227q78 78 176 158.5t105 80.5 q16 0 29.5 -27.5t15.5 -47.5q-12 -14 -109.5 -89t-179.5 -131q-8 0 -20.5 24t-16.5 32z" />
<glyph unicode="&#xfb;" horiz-adv-x="868" d="M129 356v643q0 14 4 18.5t26.5 5.5t61.5 1v-682q0 -111 18.5 -169t64.5 -84t136 -26q47 0 105.5 11.5t103.5 38.5v886q0 12 5 17.5t28 6.5t59 1v-975q-68 -35 -150.5 -52t-160.5 -17q-119 0 -184.5 36.5t-91 117.5t-25.5 222zM192 1210l227 226q12 4 25 4q20 0 37 -17 q31 -31 114 -116.5t83 -94.5q0 -10 -24 -24t-48 -14q-25 26 -91.5 97.5t-72.5 84.5q-25 -29 -97.5 -104.5t-86.5 -75.5q-37 0 -66 34z" />
<glyph unicode="&#xfc;" horiz-adv-x="868" d="M129 356v643q0 14 4 18.5t26.5 5.5t61.5 1v-682q0 -111 18.5 -169t64.5 -84t136 -26q47 0 105.5 11.5t103.5 38.5v886q0 12 5 17.5t28 6.5t59 1v-975q-68 -35 -150.5 -52t-160.5 -17q-119 0 -184.5 36.5t-91 117.5t-25.5 222zM272 1307q0 80 58 79q29 0 41 -19t10 -60 q0 -80 -57 -80q-54 0 -52 80zM489 1307q4 80 60 79q29 0 41 -19t10 -60q0 -80 -57 -80q-27 0 -40.5 19.5t-13.5 60.5z" />
<glyph unicode="&#xfd;" horiz-adv-x="768" d="M8 -342q0 14 5 30.5t14 26.5q23 -12 57.5 -19t62.5 -7q137 0 203 278l-274 1028q-4 16 -1 21.5t26.5 6.5t62.5 1l170 -645q23 -90 40 -184.5t21 -120.5q4 27 19.5 120t38.5 187l151 612q4 16 9 22.5t29 7.5t65 1l-279 -1090q-47 -180 -112.5 -254.5t-165.5 -74.5 q-68 0 -105 14t-37 39zM227 1227q78 78 176 158.5t105 80.5q16 0 29.5 -27.5t15.5 -47.5q-12 -14 -109.5 -89t-179.5 -131q-8 0 -20.5 24t-16.5 32z" />
<glyph unicode="&#xfe;" horiz-adv-x="831" d="M125 -375v1833q0 33 16.5 40t75.5 7v-497q86 35 203 34q168 0 253 -98t85 -346q0 -358 -113 -487t-248 -129q-121 0 -180 67v-452q-25 -6 -53 -7q-23 0 -31 6.5t-8 28.5zM217 147q53 -84 160 -84q104 3 193 113.5t89 407.5q0 215 -60 294.5t-181 79.5q-115 0 -201 -57 v-754z" />
<glyph unicode="&#xff;" horiz-adv-x="768" d="M8 -342q0 14 5 30.5t14 26.5q23 -12 57.5 -19t62.5 -7q137 0 203 278l-274 1028q-4 16 -1 21.5t26.5 6.5t62.5 1l170 -645q23 -90 40 -184.5t21 -120.5q4 27 19.5 120t38.5 187l151 612q4 16 9 22.5t29 7.5t65 1l-279 -1090q-47 -180 -112.5 -254.5t-165.5 -74.5 q-68 0 -105 14t-37 39zM221 1307q0 80 58 79q29 0 41 -19t10 -60q0 -80 -57 -80q-54 0 -52 80zM438 1307q4 80 60 79q29 0 41 -19t10 -60q0 -80 -57 -80q-27 0 -40.5 19.5t-13.5 60.5z" />
<glyph unicode="&#x152;" horiz-adv-x="1312" d="M82 725q0 389 94 559t297 170q98 0 165 -38t107 -120v113q0 6 5.5 15.5t19.5 9.5h481q0 -59 -3 -72.5t-17 -13.5h-404v-521h379q0 -57 -3 -71.5t-19 -14.5h-357v-655h422q0 -59 -3 -72.5t-17 -13.5h-484v160q-43 -94 -113.5 -137t-176.5 -43q-135 0 -216 68.5t-119 230 t-38 446.5zM182 696q0 -229 28 -365t87 -197.5t158 -61.5q102 0 161.5 64.5t85 206.5t25.5 388q0 242 -23.5 377t-78 195.5t-152.5 60.5q-152 0 -221.5 -153.5t-69.5 -514.5z" />
<glyph unicode="&#x153;" horiz-adv-x="1331" d="M72 510q0 535 340 534q106 0 175.5 -45t104.5 -151q47 121 125 158.5t187 37.5q258 0 258 -315q0 -162 -19 -246q-119 -23 -265.5 -30t-246.5 -4q0 -164 31 -246t83 -107.5t138 -25.5q74 0 141.5 18t114.5 53q12 -27 12 -86q0 -12 -40 -30.5t-103.5 -31.5t-130.5 -13 q-117 0 -190.5 37.5t-112.5 148.5q-82 -186 -273 -186q-115 0 -184.5 37.5t-107 153.5t-37.5 339zM170 500q0 -176 25.5 -271.5t72.5 -131.5t125 -36q115 0 177.5 111t62.5 344q0 176 -25.5 273.5t-74 134.5t-123.5 37q-117 0 -178.5 -104.5t-61.5 -356.5zM733 528h66 q244 0 364 29q8 68 8 150q-4 133 -39.5 193.5t-132.5 60.5q-71 0 -125.5 -27t-94.5 -122t-46 -284z" />
<glyph unicode="&#x178;" horiz-adv-x="737" d="M12 1417q-4 8 1 11.5t31 4.5t71 1l106 -297q43 -115 97.5 -282t56.5 -185q2 14 52 169.5t99 297.5l99 278q4 10 9 13.5t29.5 4.5t63.5 1l-309 -846v-563q0 -14 -4 -18.5t-26.5 -5.5t-61.5 -1v588zM204 1717q0 80 58 79q29 0 41 -19t10 -60q0 -80 -57 -80q-54 0 -52 80z M421 1717q4 80 60 79q29 0 41 -19t10 -60q0 -80 -57 -80q-27 0 -40.5 19.5t-13.5 60.5z" />
<glyph unicode="&#x2c6;" horiz-adv-x="690" d="M102 1210l227 226q12 4 25 4q20 0 37 -17q31 -31 114 -116.5t83 -94.5q0 -10 -24 -24t-48 -14q-25 26 -91.5 97.5t-72.5 84.5q-25 -29 -97.5 -104.5t-86.5 -75.5q-37 0 -66 34z" />
<glyph unicode="&#x2dc;" horiz-adv-x="784" d="M102 1255q47 76 95 106t108 30q33 0 54.5 -14.5t43.5 -41.5q23 -25 42.5 -38t47.5 -13q49 0 76 20.5t46.5 48t25.5 27.5q16 0 28.5 -23.5t12.5 -29.5q-27 -51 -74 -93t-125 -42q-45 0 -71.5 17.5t-53.5 50.5q-4 4 -17.5 17t-26.5 20.5t-28 7.5q-35 0 -59.5 -19.5 t-46 -48.5t-27.5 -29q-16 0 -33.5 21.5t-17.5 25.5z" />
<glyph unicode="&#x2000;" horiz-adv-x="957" />
<glyph unicode="&#x2001;" horiz-adv-x="1915" />
<glyph unicode="&#x2002;" horiz-adv-x="957" />
<glyph unicode="&#x2003;" horiz-adv-x="1915" />
<glyph unicode="&#x2004;" horiz-adv-x="638" />
<glyph unicode="&#x2005;" horiz-adv-x="478" />
<glyph unicode="&#x2006;" horiz-adv-x="319" />
<glyph unicode="&#x2007;" horiz-adv-x="319" />
<glyph unicode="&#x2008;" horiz-adv-x="239" />
<glyph unicode="&#x2009;" horiz-adv-x="383" />
<glyph unicode="&#x200a;" horiz-adv-x="106" />
<glyph unicode="&#x2010;" horiz-adv-x="604" d="M92 535q0 53 4 68t23 15h391q0 -53 -4 -68t-21 -15h-393z" />
<glyph unicode="&#x2011;" horiz-adv-x="604" d="M92 535q0 53 4 68t23 15h391q0 -53 -4 -68t-21 -15h-393z" />
<glyph unicode="&#x2012;" horiz-adv-x="604" d="M92 535q0 53 4 68t23 15h391q0 -53 -4 -68t-21 -15h-393z" />
<glyph unicode="&#x2013;" horiz-adv-x="903" d="M92 535q0 53 4 68t23 15h690q0 -53 -4 -68t-21 -15h-692z" />
<glyph unicode="&#x2014;" horiz-adv-x="1433" d="M12 535q0 53 4 68t21 15h1384q0 -53 -4 -68t-20 -15h-1385z" />
<glyph unicode="&#x2018;" horiz-adv-x="313" d="M80 1278q0 57 21.5 138t49 141.5t42.5 60.5q14 0 26 -9.5t14 -23.5q-45 -94 -45 -246q37 -23 37 -75q0 -33 -19.5 -53.5t-51.5 -20.5q-37 0 -55.5 19.5t-18.5 68.5z" />
<glyph unicode="&#x2019;" horiz-adv-x="313" d="M80 1208q43 88 47 246q-37 23 -37 74q0 33 19.5 54.5t50.5 21.5q37 0 55 -19.5t18 -68.5q0 -57 -20 -138.5t-48 -141.5t-44 -60q-15 0 -27 9t-14 23z" />
<glyph unicode="&#x201a;" horiz-adv-x="311" d="M80 -195q43 86 47 246q-37 23 -37 74q0 33 19.5 54.5t50.5 21.5q37 0 55 -19.5t18 -68.5q0 -59 -20 -140.5t-48 -140.5t-44 -59q-15 0 -27 9t-14 23z" />
<glyph unicode="&#x201c;" horiz-adv-x="587" d="M80 1278q0 57 21.5 138t49 141.5t42.5 60.5q14 0 26 -9.5t14 -23.5q-45 -94 -45 -246q37 -23 37 -75q0 -33 -19.5 -53.5t-51.5 -20.5q-37 0 -55.5 19.5t-18.5 68.5zM354 1278q0 57 21.5 138t49.5 141.5t42 60.5t26.5 -9.5t14.5 -23.5q-25 -53 -35 -120.5t-10 -125.5 q37 -23 37 -75q0 -33 -19.5 -53.5t-52.5 -20.5q-37 0 -55.5 19.5t-18.5 68.5z" />
<glyph unicode="&#x201d;" horiz-adv-x="587" d="M80 1208q43 88 47 246q-37 23 -37 74q0 33 19.5 54.5t50.5 21.5q37 0 55 -19.5t18 -68.5q0 -57 -20 -138.5t-48 -141.5t-44 -60q-15 0 -27 9t-14 23zM354 1208q25 53 36 121t11 125q-37 23 -36 74q0 35 19 55.5t52 20.5q37 0 55.5 -19.5t18.5 -68.5q0 -57 -21.5 -138.5 t-49 -141.5t-44.5 -60q-12 0 -24.5 9t-16.5 23z" />
<glyph unicode="&#x201e;" horiz-adv-x="585" d="M80 -195q43 86 47 246q-37 23 -37 74q0 33 19.5 54.5t50.5 21.5q37 0 55 -19.5t18 -68.5q0 -59 -20 -140.5t-48 -140.5t-44 -59q-15 0 -27 9t-14 23zM354 -195q25 51 36 119t11 127q-37 23 -36 74q0 33 19 54.5t52 21.5q37 0 55.5 -19.5t18.5 -68.5q0 -59 -21.5 -140.5 t-49 -140.5t-44.5 -59q-12 0 -24.5 9t-16.5 23z" />
<glyph unicode="&#x2022;" horiz-adv-x="430" d="M113 575q0 51 30.5 87t81.5 36q57 0 88 -34.5t31 -88.5q0 -53 -32.5 -87.5t-86.5 -34.5q-55 0 -83.5 32.5t-28.5 89.5z" />
<glyph unicode="&#x2026;" horiz-adv-x="972" d="M97 74q0 35 20.5 58.5t54.5 23.5q39 0 59.5 -23.5t20.5 -58.5q0 -37 -21.5 -60.5t-58.5 -23.5q-75 0 -75 84zM408 74q0 35 20.5 58.5t54.5 23.5q39 0 59.5 -23.5t20.5 -58.5q0 -37 -21.5 -60.5t-58.5 -23.5q-75 0 -75 84zM719 74q0 35 20.5 58.5t54.5 23.5 q39 0 59.5 -23.5t20.5 -58.5q0 -37 -21.5 -60.5t-58.5 -23.5q-75 0 -75 84z" />
<glyph unicode="&#x202f;" horiz-adv-x="383" />
<glyph unicode="&#x2039;" horiz-adv-x="532" d="M66 512q0 20 68.5 134t142 228.5t96.5 149.5q16 0 28.5 -10t18.5 -21.5t8 -15.5q0 -20 -60.5 -123.5t-126 -207t-85.5 -134.5q20 -31 87.5 -133.5t130 -202.5t62.5 -117q0 -6 -16.5 -32.5t-34.5 -26.5q-25 35 -101.5 148.5t-147 227t-70.5 136.5z" />
<glyph unicode="&#x203a;" horiz-adv-x="532" d="M96 57q0 16 62.5 117.5t131 204t89.5 133.5q-20 31 -86 134.5t-127.5 206.5t-61.5 124q0 14 12.5 24.5t27 15.5t18.5 7q23 -35 96.5 -149.5t141 -228.5t67.5 -134q0 -23 -70.5 -136.5t-146.5 -227t-100 -148.5q-5 2 -17 7t-24.5 18.5t-12.5 31.5z" />
<glyph unicode="&#x205f;" horiz-adv-x="478" />
<glyph unicode="&#x20ac;" d="M49 440q0 45 7 61.5t34 16.5h143v33q0 109 9 182h-193q0 45 7 61.5t34 16.5h160q37 252 136 340t239 88q59 0 102 -14.5t66.5 -32.5t23.5 -29q0 -20 -5 -37.5t-13 -25.5q-86 53 -156 53q-109 0 -186.5 -67.5t-108.5 -274.5h350q0 -45 -8 -61.5t-33 -16.5h-317 q-8 -74 -8 -186v-29h286q0 -45 -7 -61.5t-33 -16.5h-244q10 -158 49 -239.5t91 -106t126 -24.5q59 0 117.5 24.5t89.5 57.5q16 -29 16 -66q0 -16 -33.5 -43t-89 -45t-114.5 -18q-98 0 -169 32.5t-120 133t-61 294.5h-187z" />
<glyph unicode="&#x2122;" horiz-adv-x="1103" d="M74 1374v39q0 8 4 13.5t9 6.5t7 1h424v-41q0 -12 -8 -15.5t-12 -3.5h-162v-571q0 -14 -8.5 -16.5t-55.5 -2.5v590h-198zM567 784v629q0 6 4 13.5t17 7.5h35l108 -293q10 -27 27.5 -71t25.5 -62l45 129l105 276q0 6 4 13.5t14 7.5h43v-629q0 -12 -3 -15.5t-18.5 -4.5 t-41.5 -1l2 236l6 244l-59 -160l-72 -184q-2 -4 -5 -7.5t-5 -3.5h-43l-76 195q-23 66 -57 156l6 -240v-215q0 -14 -8.5 -17.5t-53.5 -3.5z" />
<glyph unicode="&#x25fc;" horiz-adv-x="1024" d="M0 0v1024h1024v-1024h-1024z" />
<glyph unicode="&#xfb03;" horiz-adv-x="1267" d="M33 942q0 33 1 52.5t7 24.5t20 5h134v154q0 203 97 265t222 62q115 0 213 -65q47 45 109.5 60.5t142.5 15.5q90 0 143.5 -18.5t53.5 -47.5q0 -23 -13 -55q-86 35 -186 35q-72 0 -124 -17.5t-87 -79t-35 -180.5v-129h184q0 -57 -3 -69.5t-21 -12.5h-160v-917 q0 -6 -4 -15.5t-20 -9.5h-68v942h-352v-917q0 -6 -5.5 -15.5t-21.5 -9.5h-65v942h-162zM287 1024h352v133q0 131 39 213q-33 27 -75 39t-99 12q-86 0 -151.5 -45t-65.5 -196v-156zM1047 0v977q0 33 16 40t78 7v-999q0 -14 -4 -18.5t-28 -5.5t-62 -1z" />
<glyph unicode="&#xfb04;" horiz-adv-x="1288" d="M33 942q0 33 1 52.5t7 24.5t20 5h134v154q0 203 97 265t222 62q113 0 209 -63q41 43 95 57t120 14q131 0 223 -51v-1437q0 -15 -4 -19t-26.5 -5t-61.5 -1v1407q-61 20 -125 20q-66 0 -109.5 -14t-73.5 -70.5t-30 -173.5v-145h184q0 -33 -1 -52.5t-6 -24.5t-19 -5h-158 v-917q0 -6 -4 -15.5t-20 -9.5h-68v942h-352v-917q0 -6 -5.5 -15.5t-21.5 -9.5h-65v942h-162zM287 1024h352v133q0 131 37 215q-33 27 -74 38t-98 11q-86 0 -151.5 -45t-65.5 -196v-156z" />
</font>
</defs>
</svg>
